<?xml version="1.0" encoding="utf-8"?>
<!-- Generator: Adobe Illustrator 27.0.1, SVG Export Plug-In . SVG Version: 6.00 Build 0)  -->
<svg version="1.1" id="Logos" xmlns="http://www.w3.org/2000/svg" xmlns:xlink="http://www.w3.org/1999/xlink" x="0px"
	y="0px" viewBox="0 0 1580.6 240.9" height="64px" style="enable-background:new 0 0 1580.6 240.9;" xml:space="preserve">
	<style type="text/css">
		.st0 {
			fill: currentColor;
		}

		.st1 {
			fill: #EE0000;
		}
	</style>
	<g>
		<path class="st0" d="M251.5,146.7h12.8l29.8,72.8h-11.9l-8.4-21.3h-32.6l-8.5,21.3h-11.3L251.5,146.7z M270.2,189.2l-12.7-31.9
		l-12.7,31.9H270.2z" />
		<path class="st0" d="M300.3,166.6h10.4v5.3c4.2-4.2,10-6.5,15.9-6.3c12.2,0,20.7,8.4,20.7,20.7v33.3h-10.4V188
		c0-8.3-5.1-13.4-13.1-13.4c-5.3-0.2-10.3,2.4-13.1,6.9v38.1h-10.4V166.6z" />
		<path class="st0" d="M359.9,205.8c5.5,4.4,11.3,6.7,17.3,6.7c7.5,0,12.7-3.2,12.7-7.9c0-3.7-2.7-5.9-8.5-6.8l-9.6-1.4
		c-10.5-1.6-15.8-6.4-15.8-14.7c0-9.6,8.3-16,20.7-16c7.7-0.1,15.1,2.3,21.4,6.7l-5.3,6.9c-5.8-3.9-11.1-5.5-16.8-5.5
		c-6.3,0-10.6,2.9-10.6,7.2c0,3.9,2.5,5.7,8.7,6.6l9.6,1.4c10.5,1.6,16,6.6,16,14.8c0,9.5-9.6,16.6-22.1,16.6
		c-9.1,0-17.4-2.7-23.2-7.8L359.9,205.8z" />
		<path class="st0"
			d="M406.5,151.6c0-3.5,2.8-6.4,6.3-6.4c0,0,0,0,0,0c3.6-0.1,6.6,2.6,6.7,6.2c0.1,3.6-2.6,6.6-6.2,6.7
		c-0.2,0-0.3,0-0.5,0C409.3,158,406.5,155.2,406.5,151.6C406.5,151.6,406.5,151.6,406.5,151.6z M418,219.5h-10.4v-52.9H418V219.5z" />
		<path class="st0" d="M456.6,220.4c-5.8,0-11.4-1.8-16-5.3v4.5h-10.3v-72.8l10.4-2.3v27.1c4.5-3.8,10.2-5.9,16.1-5.8
		c15,0,26.7,12,26.7,27.2S471.8,220.4,456.6,220.4z M440.7,181.2v23.9c3.3,3.9,8.8,6.2,14.8,6.2c10.2,0,17.9-7.8,17.9-18.2
		s-7.8-18.3-17.9-18.3C449.4,174.8,444.1,177.1,440.7,181.2z" />
		<path class="st0" d="M503.8,219.5h-10.4v-72.8l10.4-2.3V219.5z" />
		<path class="st0" d="M541.5,220.5c-15.6,0-27.8-12-27.8-27.4c0-15.3,11.7-27.2,26.5-27.2c14.6,0,25.6,12.1,25.6,27.7v3H524
		c1.3,8.8,9,15.3,17.9,15.2c4.9,0.1,9.6-1.5,13.4-4.6l6.7,6.6C556.2,218.2,548.9,220.6,541.5,220.5z M524.1,188.6h31.4
		c-1.6-8.1-7.8-14.1-15.5-14.1C532,174.5,525.7,180.2,524.1,188.6z" />
		<path class="st0" d="M621.5,146.7h12.8l29.7,72.8h-11.8l-8.4-21.3h-32.5l-8.5,21.3h-11.3L621.5,146.7z M640.3,189.2l-12.7-31.9
		l-12.7,31.9L640.3,189.2z" />
		<path class="st0" d="M678.4,198c0,8.3,5.1,13.5,13.1,13.5c5.3,0.1,10.2-2.5,13-7v-38H715v52.9h-10.4v-5.3c-4.2,4.2-10,6.5-15.9,6.4
		c-12.2,0-20.6-8.5-20.6-20.8v-33.1h10.4L678.4,198z" />
		<path class="st0" d="M734.1,175.3h-11.2v-8.7h11.2v-13.5l10.3-2.5v16H760v8.7h-15.6V204c0,5.4,2.2,7.4,7.8,7.4
		c2.6,0.1,5.2-0.4,7.6-1.2v8.7c-3.2,1-6.5,1.5-9.9,1.6c-10.3,0-15.8-4.9-15.8-14L734.1,175.3z" />
		<path class="st0" d="M791.7,165.6c15.2,0,27.5,12.4,27.5,27.6c0,15.2-12.4,27.5-27.6,27.5c-15.2,0-27.5-12.4-27.5-27.6c0,0,0,0,0,0
		c-0.2-15,11.9-27.3,26.9-27.4C791.3,165.6,791.5,165.6,791.7,165.6z M809,193c0-10.3-7.7-18.3-17.3-18.3s-17.4,8-17.4,18.3
		s7.6,18.4,17.4,18.4C801.3,211.4,809,203.3,809,193z" />
		<path class="st0" d="M829,166.6h10.4v5c3.9-4,9.3-6.1,14.9-6c7.2,0,13,3.3,16.3,8.8c4.1-5.7,10.8-9.1,17.9-8.8
		c11.7,0,19.9,8.4,19.9,20.7v33.3H898V188c0-8.3-4.7-13.4-12.2-13.4c-5.2,0-9.4,2.4-12.4,7.1c0.3,1.5,0.4,3,0.4,4.6v33.3h-10.3V188
		c0-8.3-4.7-13.4-12.2-13.4c-4.9-0.1-9.4,2.3-12,6.4v38.5H829V166.6z" />
		<path class="st0" d="M917.6,204.4c0-10,8.1-16.1,21.4-16.1c5,0,9.9,1,14.5,2.9v-5.6c0-7.5-4.5-11.2-12.9-11.2
		c-4.9,0-9.9,1.4-16.4,4.5l-3.8-7.8c7.9-3.8,14.8-5.4,21.7-5.4c13.7,0,21.6,6.8,21.6,18.9v35h-10.2V215c-4.6,3.7-10.5,5.7-16.4,5.5
		C925.5,220.5,917.6,213.9,917.6,204.4z M939.5,212.8c5.1,0.2,10.1-1.6,14-5v-9.2c-4.2-2.2-8.9-3.3-13.6-3.2
		c-7.6,0-12.3,3.4-12.3,8.7C927.6,209.2,932.4,212.8,939.5,212.8L939.5,212.8z" />
		<path class="st0" d="M980.5,175.3h-11.2v-8.7h11.2v-13.5l10.3-2.5v16h15.6v8.7h-15.6V204c0,5.4,2.2,7.4,7.8,7.4
		c2.6,0.1,5.2-0.4,7.6-1.2v8.7c-3.2,1-6.5,1.5-9.9,1.6c-10.3,0-15.8-4.9-15.8-14L980.5,175.3z" />
		<path class="st0" d="M1012.9,151.6c0-3.5,2.8-6.4,6.3-6.4c0,0,0,0,0,0c3.6-0.1,6.6,2.6,6.7,6.2c0.1,3.6-2.6,6.6-6.2,6.7
		c-0.2,0-0.3,0-0.5,0C1015.7,158,1012.9,155.2,1012.9,151.6C1012.9,151.6,1012.9,151.6,1012.9,151.6z M1024.5,219.5h-10.4v-52.9
		h10.4V219.5z" />
		<path class="st0" d="M1061.9,165.6c15.2,0,27.5,12.4,27.5,27.6s-12.4,27.5-27.6,27.5c-15.2,0-27.5-12.4-27.5-27.6c0,0,0,0,0,0
		c-0.2-15,11.9-27.3,26.9-27.4C1061.4,165.6,1061.7,165.6,1061.9,165.6z M1079.2,193c0-10.3-7.7-18.3-17.3-18.3s-17.4,8-17.4,18.3
		s7.6,18.4,17.4,18.4C1071.5,211.4,1079.2,203.3,1079.2,193z" />
		<path class="st0" d="M1099.2,166.6h10.4v5.3c4.2-4.2,10-6.5,15.9-6.3c12.2,0,20.7,8.4,20.7,20.7v33.3h-10.4V188
		c0-8.3-5.1-13.4-13.1-13.4c-5.3-0.2-10.3,2.4-13.1,6.9v38.1h-10.4V166.6z" />
	</g>
	<g>
		<path class="st0" d="M1176.1,146.7h33.7c14.2,0,23.8,8.8,23.8,21.8c0,12.8-9.7,21.6-23.8,21.6H1187v29.3h-10.9V146.7z M1187,156.3
		V181h21.6c8.5,0,13.9-4.8,13.9-12.4s-5.4-12.3-13.9-12.3L1187,156.3z" />
		<path class="st0" d="M1254,219.5h-10.4v-72.8l10.4-2.3V219.5z" />
		<path class="st0" d="M1263.6,204.4c0-10,8.1-16.1,21.4-16.1c5,0,9.9,1,14.5,2.9v-5.6c0-7.5-4.5-11.2-12.9-11.2
		c-4.9,0-9.9,1.4-16.4,4.5l-3.8-7.8c7.9-3.8,14.8-5.4,21.7-5.4c13.7,0,21.6,6.8,21.6,18.9v35h-10.2V215c-4.6,3.7-10.5,5.7-16.4,5.5
		C1271.5,220.5,1263.6,213.9,1263.6,204.4z M1285.5,212.8c5.1,0.2,10.1-1.6,14-5v-9.2c-4.2-2.2-8.9-3.3-13.6-3.2
		c-7.6,0-12.3,3.4-12.3,8.7C1273.6,209.2,1278.4,212.8,1285.5,212.8z" />
		<path class="st0" d="M1326.4,175.3h-11.2v-8.7h11.2v-13.5l10.3-2.5v16h15.6v8.7h-15.6V204c0,5.4,2.2,7.4,7.8,7.4
		c2.6,0.1,5.2-0.4,7.6-1.2v8.7c-3.2,1-6.5,1.5-9.9,1.6c-10.3,0-15.8-4.9-15.8-14V175.3z" />
		<path class="st0" d="M1368.9,166.6v-8c0-11,6.3-17,18-17c2.5,0,5,0.3,7.5,0.9v9c-2.1-0.7-4.3-1-6.6-0.9c-5.7,0-8.5,2.6-8.5,8.2v7.8
		h15.1v8.7h-15.1v44.2h-10.4v-44.2h-12.3v-8.7H1368.9z" />
		<path class="st0" d="M1425.3,165.6c15.2,0,27.5,12.4,27.5,27.6c0,15.2-12.4,27.5-27.6,27.5c-15.2,0-27.5-12.4-27.5-27.6
		c0,0,0,0,0,0c-0.2-15,11.9-27.3,26.9-27.4C1424.9,165.6,1425.1,165.6,1425.3,165.6z M1442.6,193c0-10.3-7.7-18.3-17.3-18.3
		s-17.4,8-17.4,18.3s7.6,18.4,17.4,18.4C1434.9,211.4,1442.6,203.3,1442.6,193z" />
		<path class="st0" d="M1462.6,166.6h10.4v6.8c3.1-5,8.6-8.1,14.6-7.9c1.8-0.1,3.6,0.2,5.3,0.8v9.4c-2-0.7-4-1.1-6.1-1.1
		c-6.1,0-11,3.3-13.7,9.7v35.4h-10.4V166.6z" />
		<path class="st0" d="M1501.2,166.6h10.4v5c3.9-4,9.3-6.1,14.9-6c7.2,0,13,3.3,16.3,8.8c4.1-5.7,10.8-9.1,17.9-8.8
		c11.7,0,19.9,8.4,19.9,20.7v33.3h-10.4V188c0-8.3-4.7-13.4-12.2-13.4c-5.2,0-9.4,2.4-12.4,7.1c0.3,1.5,0.4,3,0.4,4.6v33.3h-10.3
		V188c0-8.3-4.7-13.4-12.2-13.4c-4.9-0.1-9.4,2.3-12,6.5v38.5h-10.4L1501.2,166.6z" />
	</g>
	<path class="st1" d="M129,85c12.5,0,30.6-2.6,30.6-17.5c0-1.1-0.1-2.3-0.3-3.4l-7.4-32.4c-1.7-7.1-3.2-10.4-15.7-16.6
	C126.4,10.2,105.3,2,99,2c-5.8,0-7.6,7.5-14.4,7.5c-6.7,0-11.6-5.6-17.9-5.6c-6,0-9.9,4.1-12.9,12.5c0,0-8.4,23.7-9.5,27.2
	c-0.2,0.6-0.3,1.3-0.2,1.9C44,54.8,80.3,85,129,85 M161.6,73.6c1.7,8.2,1.7,9.1,1.7,10.1c0,14-15.7,21.8-36.4,21.8
	C80,105.5,39.1,78.1,39.1,60c0-2.5,0.5-5,1.5-7.3C23.8,53.5,2,56.5,2,75.7C2,107.2,76.6,146,135.6,146c45.3,0,56.7-20.5,56.7-36.7
	C192.3,96.6,181.3,82.2,161.6,73.6" />
	<path d="M161.5,73.6c1.7,8.2,1.7,9.1,1.7,10.1c0,14-15.7,21.8-36.4,21.8C80,105.5,39.1,78.1,39.1,60c0-2.5,0.5-5,1.5-7.3l3.7-9.1
	c-0.2,0.6-0.3,1.3-0.2,1.9C44,54.8,80.3,85,129,85c12.5,0,30.6-2.6,30.6-17.5c0-1.1-0.1-2.3-0.3-3.4L161.5,73.6z" />
	<path class="st0" d="M581.2,94.3c0,11.9,7.2,17.7,20.2,17.7c4-0.1,8-0.7,11.9-1.7V96.5c-2.5,0.8-5.1,1.2-7.7,1.2
	c-5.4,0-7.4-1.7-7.4-6.7V69.8h15.6V55.6h-15.6v-18l-17,3.7v14.3H570v14.2h11.2L581.2,94.3z M528.2,94.6c0-3.7,3.7-5.5,9.3-5.5
	c3.4,0,6.8,0.4,10.1,1.3v7.2c-3.2,1.8-6.9,2.7-10.6,2.6C531.5,100.2,528.3,98.1,528.2,94.6 M533.5,112.2c6,0,10.8-1.3,15.4-4.3v3.4
	h16.8V75.6c0-13.6-9.1-21-24.4-21c-8.5,0-16.9,2-26,6.1l6.1,12.5c6.5-2.7,12-4.4,16.8-4.4c7,0,10.6,2.7,10.6,8.3v2.7
	c-4.1-1.1-8.4-1.6-12.6-1.6c-14.3,0-22.9,6-22.9,16.7C513.3,104.8,521,112.2,533.5,112.2 M441,111.3h18.1V82.4h30.3v28.8h18.1V37.6
	h-18.1v28.3h-30.3V37.6H441L441,111.3z M372.1,83.4c0-8,6.3-14.1,14.6-14.1c4.3-0.1,8.5,1.4,11.8,4.3V93c-3.2,3-7.4,4.6-11.8,4.4
	C378.5,97.4,372.1,91.3,372.1,83.4 M398.7,111.2h16.8V33.9l-17,3.7v20.9c-4.3-2.5-9.2-3.7-14.2-3.7c-16.2,0-28.9,12.5-28.9,28.5
	c-0.2,15.6,12.3,28.4,27.9,28.6c0.2,0,0.3,0,0.5,0c5.4,0,10.6-1.7,14.9-4.8V111.2z M321.5,68.5c5.4,0,9.9,3.5,11.7,8.8H310
	C311.7,71.8,315.9,68.5,321.5,68.5 M292.8,83.5c0,16.2,13.2,28.8,30.3,28.8c9.4,0,16.2-2.5,23.2-8.4l-11.3-10
	c-2.6,2.7-6.5,4.2-11.1,4.2c-5.9,0.2-11.4-3.3-13.7-8.8h39.6v-4.2c0-17.7-11.9-30.4-28.1-30.4c-15.8-0.2-28.8,12.4-29,28.1
	C292.8,83,292.8,83.2,292.8,83.5 M263.5,53.1c6,0,9.4,3.8,9.4,8.3s-3.4,8.3-9.4,8.3h-17.9V53.1H263.5z M227.5,111.2h18.1V84.4h13.8
	l13.9,26.8h20.2l-16.2-29.5c8.4-3.4,13.9-11.6,13.9-20.7c0-13.2-10.4-23.5-26-23.5h-37.6L227.5,111.2z" />
</svg>