<?xml version="1.0" encoding="UTF-8"?>
<svg id="uuid-cb6aa006-7798-454d-8486-c21375d703b4"
  xmlns="http://www.w3.org/2000/svg" viewBox="0 0 38 38">
  <defs>
    <style>
      .uuid-89865283-9ba6-44d8-982f-205e56eeed76 {
        fill: #e00;
      }

      .uuid-ddc772e0-47d2-4cc5-a775-4a0939da0b1c {
        fill: #fff;
      }

      .uuid-7af0b32a-d191-4433-9c6f-ebb4ad7dfcf2 {
        fill: #e0e0e0;
      }
    </style>
  </defs>
  <path class="uuid-ddc772e0-47d2-4cc5-a775-4a0939da0b1c"
    d="m28,1H10C5.02944,1,1,5.02944,1,10v18c0,4.97057,4.02944,9,9,9h18c4.97056,0,9-4.02943,9-9V10c0-4.97056-4.02944-9-9-9h0Z" />
  <path class="uuid-7af0b32a-d191-4433-9c6f-ebb4ad7dfcf2"
    d="m28,2.25c4.27332,0,7.75,3.47664,7.75,7.75v18c0,4.27336-3.47668,7.75-7.75,7.75H10c-4.27332,0-7.75-3.47664-7.75-7.75V10c0-4.27336,3.47668-7.75,7.75-7.75h18m0-1.25H10C5.02942,1,1,5.02943,1,10v18c0,4.97057,4.02942,9,9,9h18c4.97058,0,9-4.02943,9-9V10c0-4.97057-4.02942-9-9-9h0Z" />
  <path class="uuid-89865283-9ba6-44d8-982f-205e56eeed76"
    d="m24,13.625h-10c-.34473,0-.625-.28027-.625-.625s.28027-.625.625-.625h10c.34473,0,.625.28027.625.625s-.28027.625-.625.625Z" />
  <path class="uuid-89865283-9ba6-44d8-982f-205e56eeed76"
    d="m19,21.625h-5c-.34473,0-.625-.28027-.625-.625s.28027-.625.625-.625h5c.34473,0,.625.28027.625.625s-.28027.625-.625.625Z" />
  <path
    d="m22,17.625h-8c-.34473,0-.625-.28027-.625-.625s.28027-.625.625-.625h8c.34473,0,.625.28027.625.625s-.28027.625-.625.625Z" />
  <path
    d="m22,25.625h-8c-.34473,0-.625-.28027-.625-.625s.28027-.625.625-.625h8c.34473,0,.625.28027.625.625s-.28027.625-.625.625Z" />
  <path
    d="m27,29.625H11c-.34473,0-.625-.28027-.625-.625V9c0-.34473.28027-.625.625-.625h16c.34473,0,.625.28027.625.625v6c0,.34473-.28027.625-.625.625s-.625-.28027-.625-.625v-5.375h-14.75v18.75h14.75v-1.375c0-.34473.28027-.625.625-.625s.625.28027.625.625v2c0,.34473-.28027.625-.625.625Z" />
  <path class="uuid-89865283-9ba6-44d8-982f-205e56eeed76"
    d="m31,20.375h-.77124c-.08569-.4433-.25732-.85614-.50195-1.2171l.5437-.54364c.24316-.24414.24316-.64062,0-.88477-.24414-.24414-.64062-.24414-.88477,0l-.5437.54364c-.36084-.24457-.77368-.4162-1.21704-.50189v-.77124c0-.34473-.28027-.625-.625-.625s-.625.28027-.625.625v.77124c-.44336.08569-.8562.25732-1.21704.50189l-.5437-.54364c-.24414-.24414-.64062-.24414-.88477,0-.24316.24414-.24316.64062,0,.88477l.5437.54364c-.24463.36096-.41626.7738-.50195,1.2171h-.77124c-.34473,0-.625.28027-.625.625s.28027.625.625.625h.77124c.08569.4433.25732.85614.50195,1.2171l-.5437.54364c-.24316.24414-.24316.64062,0,.88477.12207.12207.28223.18262.44238.18262s.32031-.06055.44238-.18262l.5437-.54364c.36084.24457.77368.4162,1.21704.50189v.77124c0,.34473.28027.625.625.625s.625-.28027.625-.625v-.77124c.44336-.08569.8562-.25732,1.21704-.50189l.5437.54364c.12207.12207.28223.18262.44238.18262s.32031-.06055.44238-.18262c.24316-.24414.24316-.64062,0-.88477l-.5437-.54364c.24463-.36096.41626-.7738.50195-1.2171h.77124c.34473,0,.625-.28027.625-.625s-.28027-.625-.625-.625Zm-4,2.66699c-1.12598,0-2.04199-.91602-2.04199-2.04199s.91602-2.04199,2.04199-2.04199,2.04199.91602,2.04199,2.04199-.91602,2.04199-2.04199,2.04199Z" />
</svg>