<?xml version="1.0" encoding="UTF-8"?>
<svg id="uuid-baac7536-61ee-49de-aca8-51e62eba11a5"
  xmlns="http://www.w3.org/2000/svg" viewBox="0 0 38 38">
  <defs>
    <style>
      .uuid-700deb97-998e-4286-80f1-b64be9d8a87e {
        fill: #e00;
      }

      .uuid-622b6af0-5456-4c50-a06e-b385eb23e91a {
        fill: #fff;
      }

      .uuid-32d24b75-3a1c-4fbd-976b-56a9b9c25ff2 {
        fill: #e0e0e0;
      }
    </style>
  </defs>
  <path class="uuid-622b6af0-5456-4c50-a06e-b385eb23e91a"
    d="m28,1H10C5.02944,1,1,5.02944,1,10v18c0,4.97057,4.02944,9,9,9h18c4.97056,0,9-4.02943,9-9V10c0-4.97056-4.02944-9-9-9h0Z" />
  <path class="uuid-32d24b75-3a1c-4fbd-976b-56a9b9c25ff2"
    d="m28,2.25c4.27332,0,7.75,3.47664,7.75,7.75v18c0,4.27336-3.47668,7.75-7.75,7.75H10c-4.27332,0-7.75-3.47664-7.75-7.75V10c0-4.27336,3.47668-7.75,7.75-7.75h18m0-1.25H10C5.02942,1,1,5.02944,1,10v18c0,4.97057,4.02942,9,9,9h18c4.97058,0,9-4.02943,9-9V10c0-4.97056-4.02942-9-9-9h0Z" />
  <path class="uuid-700deb97-998e-4286-80f1-b64be9d8a87e"
    d="m28,27.625H10c-.34473,0-.625-.27979-.625-.625v-8c0-.34521.28027-.625.625-.625h18c.34473,0,.625.27979.625.625v8c0,.34521-.28027.625-.625.625Zm-17.375-1.25h16.75v-6.75H10.625v6.75Z" />
  <path
    d="m26,17.625c-.34473,0-.625-.27979-.625-.625v-1.375h-12.75v1.375c0,.34521-.28027.625-.625.625s-.625-.27979-.625-.625v-2c0-.34521.28027-.625.625-.625h14c.34473,0,.625.27979.625.625v2c0,.34521-.28027.625-.625.625Z" />
  <path
    d="m24,13.625c-.34473,0-.625-.27979-.625-.625v-1.375h-8.75v1.375c0,.34521-.28027.625-.625.625s-.625-.27979-.625-.625v-2c0-.34521.28027-.625.625-.625h10c.34473,0,.625.27979.625.625v2c0,.34521-.28027.625-.625.625Z" />
  <path
    d="m14,24.625c-.16016,0-.32031-.06104-.44238-.18311l-1-1c-.24316-.24414-.24316-.63965,0-.88379.24414-.24414.64062-.24414.88477,0l.55762.55811,1.55762-1.55811c.24414-.24414.64062-.24414.88477,0,.24316.24414.24316.63965,0,.88379l-2,2c-.12207.12207-.28223.18311-.44238.18311Z" />
  <path
    d="m25,22.625h-6c-.34473,0-.625-.27979-.625-.625s.28027-.625.625-.625h6c.34473,0,.625.27979.625.625s-.28027.625-.625.625Z" />
  <path
    d="m23,24.625h-4c-.34473,0-.625-.27979-.625-.625s.28027-.625.625-.625h4c.34473,0,.625.27979.625.625s-.28027.625-.625.625Z" />
</svg>