<?xml version="1.0" encoding="UTF-8"?>
<svg id="uuid-ae9c5650-1aa0-40ab-83a2-138811124188" xmlns="http://www.w3.org/2000/svg" viewBox="0 0 38 38">
  <defs>
    <style>
      .uuid-375507de-e2d7-436d-b47d-fbcdeb81236f {
        fill: #e00;
      }

      .uuid-eb72751c-fe5e-454c-8d0f-61a6dc40e2ba {
        fill: #fff;
      }

      .uuid-bd2be7c5-86f6-4d1e-8b12-54fb3f9018a0 {
        fill: #e0e0e0;
      }
    </style>
  </defs>
  <path class="uuid-eb72751c-fe5e-454c-8d0f-61a6dc40e2ba"
    d="m28,1H10C5.02944,1,1,5.02944,1,10v18c0,4.97057,4.02944,9,9,9h18c4.97056,0,9-4.02943,9-9V10c0-4.97056-4.02944-9-9-9h0Z" />
  <path class="uuid-bd2be7c5-86f6-4d1e-8b12-54fb3f9018a0"
    d="m28,2.25c4.27332,0,7.75,3.47664,7.75,7.75v18c0,4.27336-3.47668,7.75-7.75,7.75H10c-4.27332,0-7.75-3.47664-7.75-7.75V10c0-4.27336,3.47668-7.75,7.75-7.75h18m0-1.25H10C5.02942,1,1,5.02943,1,10v18c0,4.97057,4.02942,9,9,9h18c4.97058,0,9-4.02943,9-9V10c0-4.97057-4.02942-9-9-9h0Z" />
  <path class="uuid-375507de-e2d7-436d-b47d-fbcdeb81236f"
    d="m23,12.375h-.77124c-.08569-.4433-.25732-.85614-.50195-1.2171l.5437-.54364c.24316-.24414.24316-.64062,0-.88477-.24414-.24414-.64062-.24414-.88477,0l-.5437.54364c-.36084-.24457-.77368-.4162-1.21704-.50189v-.77124c0-.34473-.28027-.625-.625-.625s-.625.28027-.625.625v.77124c-.44336.08569-.8562.25732-1.21704.50189l-.5437-.54364c-.24414-.24414-.64062-.24414-.88477,0-.24316.24414-.24316.64062,0,.88477l.5437.54364c-.24463.36096-.41626.7738-.50195,1.2171h-.77124c-.34473,0-.625.28027-.625.625s.28027.625.625.625h.77124c.08569.4433.25732.85614.50195,1.2171l-.5437.54364c-.24316.24414-.24316.64062,0,.88477.12207.12207.28223.18262.44238.18262s.32031-.06055.44238-.18262l.5437-.54364c.36084.24457.77368.4162,1.21704.50189v.77124c0,.34473.28027.625.625.625s.625-.28027.625-.625v-.77124c.44336-.08569.8562-.25732,1.21704-.50189l.5437.54364c.12207.12207.28223.18262.44238.18262s.32031-.06055.44238-.18262c.24316-.24414.24316-.64062,0-.88477l-.5437-.54364c.24463-.36096.41626-.7738.50195-1.2171h.77124c.34473,0,.625-.28027.625-.625s-.28027-.625-.625-.625Zm-4,2.66699c-1.12598,0-2.04199-.91602-2.04199-2.04199s.91602-2.04199,2.04199-2.04199,2.04199.91602,2.04199,2.04199-.91602,2.04199-2.04199,2.04199Z" />
  <path class="uuid-375507de-e2d7-436d-b47d-fbcdeb81236f"
    d="m28,28.625h-4c-.34473,0-.625-.28027-.625-.625v-4c0-.34473.28027-.625.625-.625h4c.34473,0,.625.28027.625.625v4c0,.34473-.28027.625-.625.625Zm-3.375-1.25h2.75v-2.75h-2.75v2.75Z" />
  <path class="uuid-375507de-e2d7-436d-b47d-fbcdeb81236f"
    d="m21,28.625h-4c-.34473,0-.625-.28027-.625-.625v-4c0-.34473.28027-.625.625-.625h4c.34473,0,.625.28027.625.625v4c0,.34473-.28027.625-.625.625Zm-3.375-1.25h2.75v-2.75h-2.75v2.75Z" />
  <path class="uuid-375507de-e2d7-436d-b47d-fbcdeb81236f"
    d="m14,28.625h-4c-.34473,0-.625-.28027-.625-.625v-4c0-.34473.28027-.625.625-.625h4c.34473,0,.625.28027.625.625v4c0,.34473-.28027.625-.625.625Zm-3.375-1.25h2.75v-2.75h-2.75v2.75Z" />
  <path
    d="m26,20.375h-6.375v-1.375c0-.34473-.28027-.625-.625-.625s-.625.28027-.625.625v1.375h-6.375c-.34473,0-.625.28027-.625.625s.28027.625.625.625h14c.34473,0,.625-.28027.625-.625s-.28027-.625-.625-.625Z" />
</svg>