<?xml version="1.0" encoding="UTF-8"?>
<svg id="uuid-361d9a9b-f623-4640-8be5-2d43d8a7a220"
  xmlns="http://www.w3.org/2000/svg" viewBox="0 0 38 38">
  <defs>
    <style>
      .uuid-9b4f76c7-a1a2-489e-8dfe-0c6f06d9cb52 {
        fill: #e00;
      }

      .uuid-e3181402-6280-4364-b124-639f0d89fc45 {
        fill: #fff;
      }

      .uuid-bc837c3b-3761-4994-a159-f1707cdd5425 {
        fill: #e0e0e0;
      }
    </style>
  </defs>
  <path class="uuid-e3181402-6280-4364-b124-639f0d89fc45"
    d="m28,.89949H10C5.02944.89949,1,4.92894,1,9.89949v18c0,4.97057,4.02944,9,9,9h18c4.97056,0,9-4.02943,9-9V9.89949c0-4.97056-4.02944-9-9-9h0Z" />
  <path class="uuid-bc837c3b-3761-4994-a159-f1707cdd5425"
    d="m28,2.14951c4.27332,0,7.75,3.47665,7.75,7.75v18c0,4.27335-3.47668,7.75-7.75,7.75H10c-4.27332,0-7.75-3.47665-7.75-7.75V9.89951c0-4.27335,3.47668-7.75,7.75-7.75h18m0-1.25H10C5.02942.89951,1,4.92892,1,9.89951v18c0,4.97055,4.02942,9,9,9h18c4.97058,0,9-4.02945,9-9V9.89951c0-4.97058-4.02942-9-9-9h0Z" />
  <path class="uuid-9b4f76c7-a1a2-489e-8dfe-0c6f06d9cb52"
    d="m26,27.52441h-14c-.34473,0-.625-.28027-.625-.625v-14c0-.34473.28027-.625.625-.625h4.375c.34473,0,.625.28027.625.625s-.28027.625-.625.625h-3.75v12.75h12.75v-12.75h-3.75c-.34473,0-.625-.28027-.625-.625s.28027-.625.625-.625h4.375c.34473,0,.625.28027.625.625v14c0,.34473-.28027.625-.625.625Z" />
  <path
    d="m19,14.52441c-.34473,0-.625-.28027-.625-.625v-5c0-.34473.28027-.625.625-.625s.625.28027.625.625v5c0,.34473-.28027.625-.625.625Z" />
  <path
    d="m18.53906,22.65723c-.04297,0-.08691-.00391-.13086-.01367-.33789-.07129-.55273-.40332-.48145-.74121l.90625-4.26562c.07227-.33789.40234-.55566.74121-.48145.33789.07129.55273.40332.48145.74121l-.90625,4.26562c-.0625.29395-.32227.49512-.61035.49512Z" />
  <path
    d="m21.50586,22.38867c-.16016,0-.32031-.06055-.44238-.18262-.24316-.24414-.24316-.64062,0-.88477l1.42773-1.42676-1.42773-1.42676c-.24316-.24414-.24316-.64062,0-.88477.24414-.24414.64062-.24414.88477,0l1.86914,1.86914c.24316.24414.24316.64062,0,.88477l-1.86914,1.86914c-.12207.12207-.28223.18262-.44238.18262Z" />
  <path
    d="m16.49414,22.38867c-.16016,0-.32031-.06055-.44238-.18262l-1.86914-1.86914c-.24316-.24414-.24316-.64062,0-.88477l1.86914-1.86914c.24414-.24414.64062-.24414.88477,0,.24316.24414.24316.64062,0,.88477l-1.42773,1.42676,1.42773,1.42676c.24316.24414.24316.64062,0,.88477-.12207.12207-.28223.18262-.44238.18262Z" />
</svg>