<?xml version="1.0" encoding="UTF-8"?>
<svg id="uuid-64522f25-9291-4a47-8352-e0227b0a2a73"
  xmlns="http://www.w3.org/2000/svg" viewBox="0 0 38 38">
  <defs>
    <style>
      .uuid-a5a51e48-58bb-407d-ac6d-d8cb3706e651 {
        fill: #e00;
      }

      .uuid-0d52047f-f7e7-4926-b929-47e8af549345 {
        fill: #fff;
      }

      .uuid-b60c7eff-20e3-40c2-bffd-9cc9784e6023 {
        fill: #e0e0e0;
      }
    </style>
  </defs>
  <path class="uuid-0d52047f-f7e7-4926-b929-47e8af549345"
    d="m28,1H10C5.02944,1,1,5.02944,1,10v18c0,4.97057,4.02944,9,9,9h18c4.97056,0,9-4.02943,9-9V10c0-4.97056-4.02944-9-9-9h0Z" />
  <path class="uuid-b60c7eff-20e3-40c2-bffd-9cc9784e6023"
    d="m28,2.25c4.27332,0,7.75,3.47665,7.75,7.75v18c0,4.27335-3.47668,7.75-7.75,7.75H10c-4.27332,0-7.75-3.47665-7.75-7.75V10c0-4.27335,3.47668-7.75,7.75-7.75h18m0-1.25H10C5.02942,1,1,5.02945,1,10v18c0,4.97058,4.02942,9,9,9h18c4.97058,0,9-4.02942,9-9V10c0-4.97055-4.02942-9-9-9h0Z" />
  <path
    d="m13,25.625c-.16016,0-.32031-.06055-.44238-.18262-.24316-.24414-.24316-.64062,0-.88477l12-12c.24414-.24414.64062-.24414.88477,0,.24316.24414.24316.64062,0,.88477l-12,12c-.12207.12207-.28223.18262-.44238.18262Z" />
  <path class="uuid-a5a51e48-58bb-407d-ac6d-d8cb3706e651"
    d="m29,21.625c-.16016,0-.32031-.06055-.44238-.18262l-12-12c-.24316-.24414-.24316-.64062,0-.88477.24414-.24414.64062-.24414.88477,0l12,12c.24316.24414.24316.64062,0,.88477-.12207.12207-.28223.18262-.44238.18262Z" />
  <path class="uuid-a5a51e48-58bb-407d-ac6d-d8cb3706e651"
    d="m21,29.625c-.16016,0-.32031-.06055-.44238-.18262l-12-12c-.24316-.24414-.24316-.64062,0-.88477.24414-.24414.64062-.24414.88477,0l12,12c.24316.24414.24316.64062,0,.88477-.12207.12207-.28223.18262-.44238.18262Z" />
  <path
    d="m17,29.625c-.16016,0-.32031-.06055-.44238-.18262-.24316-.24414-.24316-.64062,0-.88477l12-12c.24414-.24414.64062-.24414.88477,0,.24316.24414.24316.64062,0,.88477l-12,12c-.12207.12207-.28223.18262-.44238.18262Z" />
  <path
    d="m9,21.625c-.16016,0-.32031-.06055-.44238-.18262-.24316-.24414-.24316-.64062,0-.88477l12-12c.24414-.24414.64062-.24414.88477,0,.24316.24414.24316.64062,0,.88477l-12,12c-.12207.12207-.28223.18262-.44238.18262Z" />
  <path class="uuid-a5a51e48-58bb-407d-ac6d-d8cb3706e651"
    d="m25,25.625c-.16016,0-.32031-.06055-.44238-.18262l-12-12c-.24316-.24414-.24316-.64062,0-.88477.24414-.24414.64062-.24414.88477,0l12,12c.24316.24414.24316.64062,0,.88477-.12207.12207-.28223.18262-.44238.18262Z" />
  <path
    d="m18,20.625c-.16016,0-.32031-.06055-.44238-.18262-.24316-.24414-.24316-.64062,0-.88477l2-2c.24414-.24414.64062-.24414.88477,0,.24316.24414.24316.64062,0,.88477l-2,2c-.12207.12207-.28223.18262-.44238.18262Z" />
</svg>