<?xml version="1.0" encoding="UTF-8"?>
<svg id="uuid-3084b7e0-32ab-4cc1-afa0-5785d9a50fd1"
  xmlns="http://www.w3.org/2000/svg" viewBox="0 0 38 38">
  <defs>
    <style>
      .uuid-2e93fbdc-35d2-4881-908c-9ca155a276f4 {
        fill: #e00;
      }

      .uuid-d26a7da6-93bb-4d7c-aff0-48536dfd20e3 {
        fill: #fff;
      }

      .uuid-3e9f0386-cb8a-4b30-a71a-6f4fb23054c6 {
        fill: #e0e0e0;
      }
    </style>
  </defs>
  <path class="uuid-d26a7da6-93bb-4d7c-aff0-48536dfd20e3"
    d="m28,1H10C5.02944,1,1,5.02944,1,10v18c0,4.97057,4.02944,9,9,9h18c4.97056,0,9-4.02943,9-9V10c0-4.97056-4.02944-9-9-9h0Z" />
  <path class="uuid-3e9f0386-cb8a-4b30-a71a-6f4fb23054c6"
    d="m28,2.25c4.27332,0,7.75,3.47662,7.75,7.75v18c0,4.27338-3.47668,7.75-7.75,7.75H10c-4.27332,0-7.75-3.47662-7.75-7.75V10c0-4.27338,3.47668-7.75,7.75-7.75h18m0-1.25H10C5.02942,1,1,5.02942,1,10v18c0,4.97058,4.02942,9,9,9h18c4.97058,0,9-4.02942,9-9V10c0-4.97058-4.02942-9-9-9h0Z" />
  <path
    d="m15,11.625h11.49084l-.93323.93262c-.24316.24414-.24316.64062,0,.88477.12207.12207.28223.18262.44238.18262s.32031-.06055.44238-.18262l2-2c.02209-.02216.03162-.05072.04968-.0752.03064-.04108.06445-.07983.08447-.12775.02795-.06769.03955-.13947.04285-.21149.00049-.00983.00562-.01807.00562-.02795s-.00513-.01813-.00562-.02795c-.0033-.07202-.01489-.1438-.04285-.21149-.02002-.04791-.05383-.08667-.08447-.12775-.01807-.02448-.02759-.05304-.04968-.0752l-2-2c-.24414-.24414-.64062-.24414-.88477,0-.24316.24414-.24316.64062,0,.88477l.93323.93262h-11.49084c-.34473,0-.625.28027-.625.625s.28027.625.625.625Z" />
  <path
    d="m23,26.375h-11.49084l.93323-.93262c.24316-.24414.24316-.64062,0-.88477-.24414-.24414-.64062-.24414-.88477,0l-2,2c-.02209.02216-.03162.05072-.04968.0752-.03064.04108-.06445.07983-.08447.12775-.02795.06769-.03955.13947-.04285.21149-.00049.00983-.00562.01807-.00562.02795s.00513.01813.00562.02795c.0033.07202.01489.1438.04285.21149.02002.04791.05383.08667.08447.12775.01807.02448.02759.05304.04968.0752l2,2c.12207.12207.28223.18262.44238.18262s.32031-.06055.44238-.18262c.24316-.24414.24316-.64062,0-.88477l-.93323-.93262h11.49084c.34473,0,.625-.28027.625-.625s-.28027-.625-.625-.625Z" />
  <path
    d="m10.375,11.50916v11.49084c0,.34473.28027.625.625.625s.625-.28027.625-.625v-11.49084l.93262.93323c.12207.12207.28223.18262.44238.18262s.32031-.06055.44238-.18262c.24316-.24414.24316-.64062,0-.88477l-2-2c-.02759-.02759-.0625-.04065-.09351-.06201-.03564-.0249-.06763-.05487-.10828-.0719-.15381-.06403-.32739-.06403-.4812,0-.04065.01703-.07263.047-.10828.0719-.03101.02136-.06592.03442-.09351.06201l-2,2c-.24316.24414-.24316.64062,0,.88477.24414.24414.64062.24414.88477,0l.93262-.93323Z" />
  <path
    d="m29.44238,25.55762c-.24414-.24414-.64062-.24414-.88477,0l-.93262.93323v-11.49084c0-.34473-.28027-.625-.625-.625s-.625.28027-.625.625v11.49084l-.93262-.93323c-.24414-.24414-.64062-.24414-.88477,0-.24316.24414-.24316.64062,0,.88477l2,2c.0249.0249.05664.03613.08435.05591.03845.02771.07373.05963.11804.07812.07666.03174.1582.04858.23999.04858s.16333-.01685.23999-.04858c.04431-.01849.07959-.05042.11804-.07812.02771-.01978.05945-.03101.08435-.05591l2-2c.24316-.24414.24316-.64062,0-.88477Z" />
  <path class="uuid-2e93fbdc-35d2-4881-908c-9ca155a276f4"
    d="m23,18.375h-.77124c-.08569-.4433-.25732-.85614-.50195-1.2171l.5437-.54364c.24316-.24414.24316-.64062,0-.88477-.24414-.24414-.64062-.24414-.88477,0l-.5437.54364c-.36084-.24457-.77368-.4162-1.21704-.50189v-.77124c0-.34473-.28027-.625-.625-.625s-.625.28027-.625.625v.77124c-.44336.08569-.8562.25732-1.21704.50189l-.5437-.54364c-.24414-.24414-.64062-.24414-.88477,0-.24316.24414-.24316.64062,0,.88477l.5437.54364c-.24463.36096-.41626.7738-.50195,1.2171h-.77124c-.34473,0-.625.28027-.625.625s.28027.625.625.625h.77124c.08569.4433.25732.85614.50195,1.2171l-.5437.54364c-.24316.24414-.24316.64062,0,.88477.12207.12207.28223.18262.44238.18262s.32031-.06055.44238-.18262l.5437-.54364c.36084.24457.77368.4162,1.21704.50189v.77124c0,.34473.28027.625.625.625s.625-.28027.625-.625v-.77124c.44336-.08569.8562-.25732,1.21704-.50189l.5437.54364c.12207.12207.28223.18262.44238.18262s.32031-.06055.44238-.18262c.24316-.24414.24316-.64062,0-.88477l-.5437-.54364c.24463-.36096.41626-.7738.50195-1.2171h.77124c.34473,0,.625-.28027.625-.625s-.28027-.625-.625-.625Zm-4,2.66699c-1.12598,0-2.04199-.91602-2.04199-2.04199s.91602-2.04199,2.04199-2.04199,2.04199.91602,2.04199,2.04199-.91602,2.04199-2.04199,2.04199Z" />
</svg>