<?xml version="1.0" encoding="UTF-8"?>
<svg id="uuid-5bb12f0e-345b-4966-8985-53876cf195c1"
  xmlns="http://www.w3.org/2000/svg" viewBox="0 0 38 38">
  <defs>
    <style>
      .uuid-8e96db11-56cc-4e93-9534-9f8e251b55e3 {
        fill: #e00;
      }

      .uuid-8fece496-6af5-41d8-883e-0ba7bf07d241 {
        fill: #fff;
      }

      .uuid-9d61540b-a1ed-4f79-978a-406f31a9deb2 {
        fill: #e0e0e0;
      }
    </style>
  </defs>
  <path class="uuid-8fece496-6af5-41d8-883e-0ba7bf07d241"
    d="m10,1c-4.97056,0-9,4.02944-9,9v18c0,4.97057,4.02944,9,9,9h18c4.97056,0,9-4.02943,9-9V10c0-4.97056-4.02944-9-9-9H10Z" />
  <path class="uuid-9d61540b-a1ed-4f79-978a-406f31a9deb2"
    d="m28,2.25c4.27332,0,7.75,3.47662,7.75,7.75v18c0,4.27338-3.47668,7.75-7.75,7.75H10c-4.27332,0-7.75-3.47662-7.75-7.75V10c0-4.27338,3.47668-7.75,7.75-7.75h18m0-1.25H10C5.02942,1,1,5.02942,1,10v18c0,4.97058,4.02942,9,9,9h18c4.97058,0,9-4.02942,9-9V10c0-4.97058-4.02942-9-9-9h0Z" />
  <path
    d="m27.66016,21.27441c-.34473,0-.625.28027-.625.625v1.63867l-8.03516,4.63965-8.03516-4.63965v-3.12952l.93262.93323c.12207.12207.28223.18262.44238.18262s.32031-.06055.44238-.18262c.24316-.24414.24316-.64062,0-.88477l-2-2c-.02759-.02759-.0625-.04065-.09351-.06201-.03564-.0249-.06763-.05487-.10828-.0719-.15381-.06403-.32739-.06403-.4812,0-.04065.01703-.07263.047-.10828.0719-.03101.02136-.06592.03442-.09351.06201l-2,2c-.24316.24414-.24316.64062,0,.88477.24414.24414.64062.24414.88477,0l.93262-.93323v3.49084c0,.22363.11914.42969.3125.54102l8.66016,5c.09668.05566.20508.08398.3125.08398s.21582-.02832.3125-.08398l8.66016-5c.19336-.11133.3125-.31738.3125-.54102v-2c0-.34473-.28027-.625-.625-.625Z" />
  <path
    d="m30.10254,16.45703c-.24414-.24414-.64062-.24414-.88477,0l-.93262.93323v-3.49084c0-.22363-.11914-.42969-.3125-.54102l-8.66016-5c-.19336-.11133-.43164-.11133-.625,0l-8.66016,5c-.19336.11133-.3125.31738-.3125.54102v2c0,.34473.28027.625.625.625s.625-.28027.625-.625v-1.63867l8.03516-4.63965,8.03516,4.63965v3.12952l-.93262-.93323c-.24414-.24414-.64062-.24414-.88477,0-.24316.24414-.24316.64062,0,.88477l2,2c.0249.0249.05664.03613.08435.05591.03845.02771.07373.05963.11804.07812.07666.03174.1582.04858.23999.04858s.16333-.01685.23999-.04858c.04431-.01849.07959-.05042.11804-.07812.02771-.01978.05945-.03101.08435-.05591l2-2c.24316-.24414.24316-.64062,0-.88477Z" />
  <path class="uuid-8e96db11-56cc-4e93-9534-9f8e251b55e3"
    d="m23,18.375h-.77124c-.08569-.4433-.25732-.85614-.50195-1.2171l.5437-.54364c.24316-.24414.24316-.64062,0-.88477-.24414-.24414-.64062-.24414-.88477,0l-.5437.54364c-.36084-.24457-.77368-.4162-1.21704-.50189v-.77124c0-.34473-.28027-.625-.625-.625s-.625.28027-.625.625v.77124c-.44336.08569-.8562.25732-1.21704.50189l-.5437-.54364c-.24414-.24414-.64062-.24414-.88477,0-.24316.24414-.24316.64062,0,.88477l.5437.54364c-.24463.36096-.41626.7738-.50195,1.2171h-.77124c-.34473,0-.625.28027-.625.625s.28027.625.625.625h.77124c.08569.4433.25732.85614.50195,1.2171l-.5437.54364c-.24316.24414-.24316.64062,0,.88477.12207.12207.28223.18262.44238.18262s.32031-.06055.44238-.18262l.5437-.54364c.36084.24457.77368.4162,1.21704.50189v.77124c0,.34473.28027.625.625.625s.625-.28027.625-.625v-.77124c.44336-.08569.8562-.25732,1.21704-.50189l.5437.54364c.12207.12207.28223.18262.44238.18262s.32031-.06055.44238-.18262c.24316-.24414.24316-.64062,0-.88477l-.5437-.54364c.24463-.36096.41626-.7738.50195-1.2171h.77124c.34473,0,.625-.28027.625-.625s-.28027-.625-.625-.625Zm-4,2.66699c-1.12598,0-2.04199-.91602-2.04199-2.04199s.91602-2.04199,2.04199-2.04199,2.04199.91602,2.04199,2.04199-.91602,2.04199-2.04199,2.04199Z" />
</svg>