<svg width="100%" height="100%">
    <defs>
        <radialGradient id="myGradient">
            <stop offset="0%" stop-color="#0000" />
            <stop offset="100%" stop-color="#0003" />
        </radialGradient>
        <pattern id="bg" x="0" y="0" width="208" height="156" patternUnits="userSpaceOnUse">
            <g fill="url(#myGradient)">
                <g>
                    <polygon points="50 3,100 28,100 75, 50 100,3 75,3 25" />
                </g>
                <g transform="translate(104,0)">
                    <polygon points="50 3,100 28,100 75, 50 100,3 75,3 25" />
                </g>
                <g transform="translate(52,78)">
                    <polygon points="50 3,100 28,100 75, 50 100,3 75,3 25" />
                </g>
                <g transform="translate(-52,78)">
                    <polygon points="50 3,100 28,100 75, 50 100,3 75,3 25" />
                </g>
                <g transform="translate(156,78)">
                    <polygon points="50 3,100 28,100 75, 50 100,3 75,3 25" />
                </g>
                <g transform="translate(52,-78)">
                    <polygon points="50 3,100 28,100 75, 50 100,3 75,3 25" />
                </g>
                <g transform="translate(-52,-78)">
                    <polygon points="50 3,100 28,100 75, 50 100,3 75,3 25" />
                </g>
                <g transform="translate(156,-78)">
                    <polygon points="50 3,100 28,100 75, 50 100,3 75,3 25" />
                </g>
            </g>
        </pattern>
    </defs>
    <rect x="0" y="0" width="100%" height="100%" fill="url(#bg)"></rect>
</svg>