<svg viewBox="0 0 300 300" xmlns="http://www.w3.org/2000/svg">
    <circle r="150" cx="150" cy="150" fill="black" />
    <g transform="translate(150,150) scale(1.35) translate(-150,-150)">
        <g transform="matrix(1.3864,0,0,1.3864,-62.1186,-62.0077)">
            <path
                d="M154.799,112.893L182.438,181.102L140.692,148.221L154.799,112.893ZM203.895,196.815L161.385,94.514C160.385,91.762 157.727,89.94 154.799,90.001C151.826,89.933 149.113,91.743 148.034,94.514L101.377,206.726L117.338,206.726L135.806,160.458L190.923,204.988C193.142,206.782 194.739,207.593 196.82,207.593C196.88,207.594 196.939,207.595 196.999,207.595C201.181,207.595 204.623,204.153 204.623,199.97C204.623,199.968 204.623,199.966 204.623,199.964C204.551,198.882 204.305,197.819 203.895,196.815"
                style="fill:white;fill-rule:nonzero;" />
        </g>
    </g>
</svg>