<?xml version="1.0" encoding="utf-8"?>
<!-- Generator: Adobe Illustrator 26.5.0, SVG Export Plug-In . SVG Version: 6.00 Build 0)  -->
<svg version="1.1" id="Layer_1" xmlns="http://www.w3.org/2000/svg" xmlns:xlink="http://www.w3.org/1999/xlink" x="0px" y="0px"
	 viewBox="0 0 280 297" style="enable-background:new 0 0 280 297;" xml:space="preserve">
<style type="text/css">
	.st0{fill:#565656;}
	.st1{fill:#333233;}
	.st2{fill:#455367;}
	.st3{fill:#2C3A4E;}
	.st4{fill:#707070;}
	.st5{fill:#BB98B0;}
	.st6{fill:#BBC9DD;}
	.st7{fill:#08162B;}
	.st8{fill:#E98A97;}
	.st9{fill:#AC7794;}
	.st10{fill:#74BABE;}
	.st11{fill:#4B9696;}
	.st12{fill:#1E1F1E;}
	.st13{fill:#FFFFFF;}
	.st14{fill:#F2F2F2;}
	.st15{fill:#F15B52;}
	.st16{fill:#B4DBDA;}
	.st17{fill:#FFB9BE;}
	.st18{opacity:0.3;fill:#1C4B8E;}
</style>
<g>
	<path class="st0" d="M230.4,204.3c0-23.6-40.2-54-89.8-54s-89.8,30.4-89.8,54c0,12,10.4,22.9,27.2,30.7l5.1,47.6
		c0,0,35.7-14.3,56.4-14.8c40.1-1,58.9,14.8,58.9,14.8l3.2-46.9C219.3,227.9,230.4,216.7,230.4,204.3z"/>
	<path d="M199.5,285.1l-1.9-1.6c0,0-4.7-3.9-14.2-7.7c-8.7-3.4-23.4-7.4-43.9-6.9c-20.3,0.5-55.6,14.6-56,14.8l-1.5,0.6l-5.2-48.5
		c-17.6-8.3-27.3-19.5-27.3-31.5c0-12.2,10-26,26.9-36.9c8.5-5.5,18.5-10.1,28.9-13.2c11.4-3.4,23.3-5.2,35.3-5.2s23.9,1.7,35.3,5.2
		c10.4,3.1,20.4,7.7,28.9,13.2c16.8,10.9,26.9,24.7,26.9,36.9c0,6.4-2.7,12.5-8.1,18.3c-5,5.3-11.9,10-20.8,14L199.5,285.1z
		 M140.6,151.5c-11.7,0-23.4,1.7-34.6,5.1c-10.2,3-19.9,7.5-28.2,12.9c-7.9,5.1-14.4,11-18.9,17.2c-4.5,6.1-6.8,12.2-6.8,17.7
		c0,5.6,2.4,11,7,16.1c4.6,5.1,11.1,9.6,19.5,13.5l0.6,0.3l5,46.7c3-1.2,10.3-3.9,19-6.7c15.4-4.9,27.6-7.5,36.3-7.7
		c20.9-0.5,36,3.6,45,7.1c6.4,2.5,10.6,5.1,12.9,6.6l3.1-45.4l0.7-0.3c8.8-3.9,15.8-8.5,20.6-13.7c4.9-5.3,7.4-10.8,7.4-16.6
		c0-5.5-2.4-11.6-6.8-17.7c-4.5-6.1-11-12-18.9-17.2c-8.3-5.4-18-9.8-28.2-12.9C164,153.2,152.3,151.5,140.6,151.5z"/>
</g>
<g>
	<path class="st1" d="M235.2,182.2c0,0-2.5,7.4-4.9,9.8c-2.5,2.5-9.8,7.4-9.8,7.4l-4.9-7.4c0,0,7.4-2.5,9.8-4.9
		c2.5-2.5,9.8-9.8,9.8-9.8V182.2z"/>
	<path d="M220.1,201.1l-6.5-9.7l1.5-0.5c2-0.7,7.5-2.8,9.3-4.6l11.9-11.9v8.1l-0.1,0.2c-0.1,0.3-2.6,7.7-5.2,10.3
		c-2.5,2.5-9.7,7.3-10,7.5L220.1,201.1z M217.5,192.6l3.3,5c2.1-1.4,6.8-4.7,8.6-6.5c1.8-1.8,3.8-7,4.5-9.1v-1.7l-7.7,7.7
		C224.3,189.9,219.8,191.8,217.5,192.6z"/>
</g>
<path class="st1" d="M196.4,237.8c20.7-7.8,34-19.9,34-33.5c0-17.1-21-37.7-51.4-47.8l-68.9,10.8c0,0,49.1,19.6,73.6,24.5
	c24.5,4.9,22.1,14.7,22.1,24.5C205.8,224.9,198.3,235.3,196.4,237.8z"/>
<path d="M140.6,248.3c-24.2,0-46.9-4.5-64-12.7c-17.4-8.3-27-19.4-27-31.4c0-12.2,10-26,26.9-36.9c8.5-5.5,18.5-10.1,28.9-13.2
	c11.4-3.4,23.3-5.2,35.3-5.2s23.9,1.7,35.3,5.2c10.4,3.1,20.4,7.7,28.9,13.2c16.8,10.9,26.9,24.7,26.9,36.9c0,11.9-9.6,23.1-27,31.4
	C187.5,243.8,164.7,248.3,140.6,248.3z M140.6,151.5c-11.7,0-23.4,1.7-34.6,5.1c-10.2,3-19.9,7.5-28.2,12.9
	c-7.9,5.1-14.4,11-18.9,17.2c-4.5,6.1-6.8,12.2-6.8,17.7c0,10.9,9.1,21.3,25.6,29.2c16.8,8,39.2,12.4,63,12.4s46.2-4.4,63-12.4
	c16.5-7.9,25.6-18.2,25.6-29.2c0-5.5-2.4-11.6-6.8-17.7c-4.5-6.1-11-12-18.9-17.2c-8.3-5.4-18-9.8-28.2-12.9
	C164,153.2,152.3,151.5,140.6,151.5z"/>
<g>
	<g>
		<ellipse transform="matrix(0.9741 -0.226 0.226 0.9741 -16.9374 50.9284)" class="st1" cx="213.9" cy="99.4" rx="12.7" ry="7.8"/>
		<path d="M211.2,108.8c-1.8,0-3.6-0.3-5.2-0.8c-3.1-1-5.1-3-5.7-5.4l0,0c-0.6-2.5,0.4-5.1,2.7-7.4c2.2-2.1,5.3-3.8,8.8-4.6
			c7.6-1.8,14.4,0.7,15.6,5.6c0.6,2.5-0.4,5.1-2.7,7.4c-2.2,2.1-5.3,3.8-8.8,4.6C214.3,108.6,212.7,108.8,211.2,108.8z M216.6,92.5
			c-1.3,0-2.7,0.2-4.2,0.5c-3.1,0.7-5.8,2.1-7.6,3.9c-1.7,1.7-2.4,3.5-2,5.1l0,0c0.4,1.6,1.8,2.9,4.1,3.6c2.5,0.8,5.5,0.9,8.6,0.2
			c3.1-0.7,5.8-2.1,7.6-3.9c1.7-1.7,2.4-3.5,2-5.1C224.5,94.2,220.9,92.5,216.6,92.5z"/>
	</g>
	<g>
		<ellipse transform="matrix(0.226 -0.9741 0.9741 0.226 -44.7417 142.4075)" class="st1" cx="67.2" cy="99.4" rx="7.8" ry="12.7"/>
		<path d="M70,108.7c-1.5,0-3.2-0.2-4.8-0.6c-3.5-0.8-6.6-2.4-8.8-4.6c-2.3-2.3-3.3-4.9-2.7-7.4c0.6-2.5,2.6-4.4,5.7-5.4
			c2.9-1,6.4-1,9.9-0.2c7.6,1.8,12.6,7,11.5,11.9l0,0C79.9,106.4,75.5,108.7,70,108.7z M64.5,92.5c-1.6,0-3.1,0.2-4.4,0.7
			c-2.2,0.8-3.7,2-4.1,3.6c-0.4,1.6,0.4,3.4,2,5.1c1.8,1.8,4.6,3.2,7.6,3.9c6,1.4,11.8-0.3,12.6-3.8l0,0c0.8-3.5-3.6-7.6-9.7-9
			C67.3,92.6,65.9,92.5,64.5,92.5z"/>
	</g>
</g>
<path class="st2" d="M219.9,111.3c3.1,14.8,5.6,36.1-1.6,47.5c-14.1,22.1-49.6,28.5-78.9,28.5c-30.2,0-62.7,0.3-76.4-23
	c-6.5-11-5.4-40.5-1.7-53c11.6-39.7,21.1-68,77.2-67C197.4,45.4,211.3,70.5,219.9,111.3z"/>
<g>
	<path class="st3" d="M219.9,111.3c-8.6-40.8-22.5-65.9-81.5-67c-12.8-0.2-23.1,1.1-31.6,3.7c54.5,2.8,68,25.7,76.5,61.8
		c3.2,13.7,5.8,33.4-1.7,44c-14.6,20.5-51.3,26.4-81.6,26.4c-6.4,0-12.9,0-19.3-0.2c16.1,7.5,38,7.4,58.7,7.4
		c29.3,0,64.8-6.4,78.9-28.5C225.5,147.4,223,126.1,219.9,111.3z"/>
</g>
<path d="M137.3,188.5c-14.7,0-29.8-0.1-43.1-2.9c-15.5-3.3-26.1-10.1-32.4-20.7c-4.1-6.9-4.8-19.6-4.8-26.6c-0.1-10.2,1.1-21,3-27.5
	c6.3-21.4,11.5-37.5,22.2-49.2c12-13.2,29.8-19.1,56.2-18.6c28.4,0.5,47.6,6.5,60.5,18.9c13.1,12.6,18.4,31,22.2,49l0,0
	c6,28.3,2.3,42-1.8,48.4c-6.6,10.3-18.2,18.1-34.4,23c-16.3,5-33.7,6-45.5,6h-1C138,188.5,137.7,188.5,137.3,188.5z M135.5,45.5
	c-24,0-40.4,5.7-51.5,17.8c-10.3,11.3-15.5,27.2-21.7,48.3c-3.7,12.8-4.5,41.8,1.6,52.1c5.9,10,16,16.3,30.8,19.5
	c13.3,2.8,28.7,2.8,43.6,2.8h1c11.6,0,28.8-1,44.8-5.9c15.7-4.8,26.8-12.2,33-22c7.4-11.6,4.1-34.2,1.5-46.6l0,0
	c-3.7-17.6-8.9-35.6-21.5-47.8c-12.4-12-31.1-17.8-58.8-18.3C137.4,45.5,136.4,45.5,135.5,45.5z"/>
<ellipse class="st4" cx="141.4" cy="227" rx="34.3" ry="35.6"/>
<ellipse class="st5" cx="202" cy="139.8" rx="13" ry="10.5"/>
<path class="st6" d="M192.6,137.9c-0.2,0-0.4,0-0.5-0.1c-0.5-0.3-0.7-1-0.4-1.5c0.1-0.1,0.8-1.3,2.4-2.7c1.7-1.4,3.5-1.7,3.6-1.7
	c0.6-0.1,1.2,0.3,1.3,0.9c0.1,0.6-0.3,1.2-0.9,1.3c0,0-1.4,0.3-2.6,1.3c-1.4,1.1-1.9,2.1-1.9,2.1
	C193.3,137.7,192.9,137.9,192.6,137.9z"/>
<ellipse class="st5" cx="79.2" cy="139.8" rx="13" ry="10.5"/>
<path class="st6" d="M69.8,137.9c-0.2,0-0.4,0-0.5-0.1c-0.5-0.3-0.7-1-0.4-1.5c0.1-0.1,0.8-1.3,2.4-2.7c1.7-1.4,3.5-1.7,3.6-1.7
	c0.6-0.1,1.2,0.3,1.3,0.9c0.1,0.6-0.3,1.2-0.9,1.3c0,0-1.4,0.3-2.6,1.3c-1.4,1.1-1.9,2.1-1.9,2.1C70.5,137.7,70.2,137.9,69.8,137.9z
	"/>
<circle class="st7" cx="97.3" cy="119.8" r="13.1"/>
<circle class="st6" cx="101.7" cy="114.7" r="3.8"/>
<path class="st7" d="M88,112.2c-0.1,0-0.1,0-0.2,0c-0.1,0-1-0.2-2.6-0.9c-1.7-0.7-2.9-2-2.9-2c-0.4-0.4-0.4-1.1,0.1-1.5
	c0.4-0.4,1.1-0.4,1.5,0.1c0,0,0.9,0.9,2.2,1.5c1.4,0.6,2.1,0.7,2.1,0.7c0.6,0.1,1,0.7,0.9,1.3C89,111.8,88.5,112.2,88,112.2z"/>
<circle class="st7" cx="183.9" cy="119.8" r="13.1"/>
<circle class="st6" cx="187.1" cy="114.7" r="3.8"/>
<path class="st7" d="M193.2,112.2c-0.5,0-1-0.4-1.1-0.9c-0.1-0.6,0.3-1.2,0.9-1.3c0,0,0.8-0.1,2.1-0.7c1.3-0.6,2.2-1.5,2.2-1.5
	c0.4-0.4,1.1-0.5,1.5,0c0.4,0.4,0.5,1.1,0.1,1.5c0,0.1-1.2,1.3-2.9,2c-1.6,0.7-2.5,0.9-2.6,0.9C193.3,112.2,193.2,112.2,193.2,112.2
	z"/>
<ellipse class="st5" cx="140.6" cy="155.6" rx="45.2" ry="29.3"/>
<ellipse transform="matrix(0.9709 -0.2394 0.2394 0.9709 -31.2396 33.6945)" class="st7" cx="123.1" cy="145.4" rx="6.5" ry="3.8"/>
<ellipse transform="matrix(0.2394 -0.9709 0.9709 0.2394 -20.9334 264.1093)" class="st7" cx="158.1" cy="145.4" rx="3.8" ry="6.5"/>
<path class="st9" d="M165.5,131.2c5.2,5.5,8.4,12.3,8.4,19.7c0,20.4-26.4,29.9-49,29.9c-3.4,0-6.5-0.3-9.4-0.8
	c7.2,3.1,15.8,4.9,25.1,4.9c25,0,45.2-13.1,45.2-29.3C185.8,145.4,177.7,136.4,165.5,131.2z"/>
<path class="st6" d="M145.1,126.5c-1.5-0.1-3-0.1-4.5-0.1c-24.6,0-44.5,12.7-45.2,28.5C101.6,140.4,123,127.6,145.1,126.5z"/>
<path class="st7" d="M140.6,186.1c-12.3,0-23.9-3.1-32.7-8.8c-8.9-5.8-13.8-13.5-13.8-21.7c0-8.2,4.9-16,13.8-21.7
	c8.7-5.7,20.3-8.8,32.7-8.8s23.9,3.1,32.7,8.8c8.9,5.8,13.8,13.5,13.8,21.7c0,8.2-4.9,16-13.8,21.7
	C164.5,183,152.9,186.1,140.6,186.1z M140.6,127.6c-24.3,0-44,12.6-44,28c0,15.5,19.7,28,44,28s44-12.6,44-28
	C184.6,140.2,164.8,127.6,140.6,127.6z"/>
<path d="M179.8,243.9l-3.4-4.4l0.8-0.8c0.1-0.1,7.5-6.8,10.6-12.9c3-6.1,2.7-21.1,2.7-21.2l2.5-0.1c0,0.6,0.4,15.7-2.9,22.4
	c-2.7,5.4-8.2,10.9-10.3,12.9l1.1,1.4c2.9-0.6,13.9-3,22-6.8l1,2.2c-9.6,4.6-22.8,7.1-23.3,7.2L179.8,243.9z"/>
<path d="M101.4,243.9l-0.7-0.1c-0.6-0.1-13.7-2.6-23.3-7.2l1-2.2c8.1,3.8,19.1,6.2,22,6.8l1.1-1.4c-2.1-2-7.7-7.5-10.3-12.9
	c-3.3-6.6-2.9-21.7-2.9-22.4l2.5,0.1c0,0.2-0.4,15.1,2.7,21.2c3.1,6.1,10.5,12.8,10.6,12.9l0.8,0.8L101.4,243.9z"/>
<g>
	<circle class="st10" cx="141.4" cy="246.9" r="30.4"/>
	<path d="M141.4,216.5c5.8,0,11.6,1.6,16.7,5c14,9.3,17.9,28.1,8.6,42.2c-5.9,8.9-15.5,13.7-25.4,13.7c-5.8,0-11.6-1.6-16.7-5
		c-14-9.3-17.9-28.1-8.6-42.2C121.8,221.3,131.5,216.5,141.4,216.5 M141.4,214.5L141.4,214.5c-10.9,0-21.1,5.4-27.1,14.6
		c-4.8,7.2-6.4,15.9-4.7,24.4c1.7,8.5,6.7,15.8,13.9,20.6c5.3,3.5,11.5,5.4,17.8,5.4c10.9,0,21.1-5.4,27.1-14.6
		c4.8-7.2,6.4-15.9,4.7-24.4c-1.7-8.5-6.7-15.8-13.9-20.6C153.9,216.4,147.7,214.5,141.4,214.5L141.4,214.5z"/>
</g>
<path class="st11" d="M163.1,225.6c-1.5-1.5-3.1-2.9-4.9-4.1c-0.5-0.3-1-0.6-1.5-0.9c-0.6,7.1-4.5,17.1-11.1,27
	c-7.8,11.9-17.2,20.3-24.1,22.3c1,0.8,2,1.6,3.1,2.4c1.4,0.9,2.8,1.7,4.3,2.4c7.1-4.5,15.2-12.8,22.2-23.3
	C157,242.3,161.1,233.3,163.1,225.6z"/>
<path class="st11" d="M131.8,275.8c12.7,4.2,27.2-0.4,35-12.1c7.3-11.1,6.4-25.2-1.2-35.2L131.8,275.8z"/>
<g>
	<path class="st1" d="M181.1,239.6c-3.1-4.7-10.3-5.4-16-1.6c-4.3,2.9-6.5,7.4-6,11.5c0.1,0.5,0.5,0.9,1,0.9h4.6
		c0.4,0,0.7,0.4,0.5,0.8l-1.7,3.9c-0.2,0.5,0,1,0.5,1.3c3.6,1.8,8.4,1.4,12.5-1.4C182.2,251.1,184.3,244.2,181.1,239.6z"/>
	<path d="M168.8,258.6c-1.9,0-3.7-0.4-5.4-1.2c-1.1-0.5-1.5-1.8-1-2.8l1.3-3h-3.6c-1.1,0-2-0.8-2.2-1.9c-0.6-4.7,2-9.7,6.5-12.7
		c6.2-4.2,14.2-3.3,17.7,1.9l0,0c3.5,5.2,1.3,12.9-4.9,17.1C174.6,257.7,171.7,258.6,168.8,258.6z M164.8,255.3
		c3.3,1.5,7.6,1,11.1-1.4c5.1-3.4,7-9.6,4.2-13.7l0,0c-2.8-4.1-9.2-4.7-14.3-1.3c-3.7,2.5-5.8,6.4-5.5,10.2h4.4
		c0.6,0,1.2,0.3,1.5,0.8c0.3,0.5,0.4,1.1,0.1,1.7L164.8,255.3z"/>
</g>
<g>
	<path class="st1" d="M101,239.6c3.1-4.7,10.3-5.4,16-1.6c4.3,2.9,6.5,7.4,6,11.5c-0.1,0.5-0.5,0.9-1,0.9h-4.6
		c-0.4,0-0.7,0.4-0.5,0.8l1.7,3.9c0.2,0.5,0,1-0.5,1.3c-3.6,1.8-8.4,1.4-12.5-1.4C99.9,251.1,97.9,244.2,101,239.6z"/>
	<path d="M113.3,258.6c-2.8,0-5.8-0.9-8.4-2.7c-6.2-4.2-8.4-11.8-4.9-17.1l0,0c3.5-5.2,11.4-6.1,17.7-1.9c4.5,3,7.1,8,6.5,12.7
		c-0.1,1.1-1.1,1.9-2.2,1.9h-3.6l1.3,3c0.5,1.1,0,2.3-1,2.8C117,258.2,115.2,258.6,113.3,258.6z M102.1,240.2
		c-2.8,4.1-0.9,10.3,4.2,13.7c3.5,2.4,7.8,2.9,11.1,1.4l-1.6-3.7c-0.2-0.6-0.2-1.2,0.1-1.7c0.3-0.5,0.9-0.8,1.5-0.8h4.4
		c0.3-3.7-1.8-7.7-5.5-10.2C111.2,235.5,104.8,236.1,102.1,240.2L102.1,240.2z"/>
</g>
<path class="st1" d="M231.9,233.8l-4.9,1.3c-1.9,0.5-3.9-0.6-4.5-2.6l-1.4-5c-0.3-1.1-1.3-2-2.5-2c-10.1-0.6-21.3,5.6-28,16.6
	c-9,14.7-6.6,32.5,5.2,39.7c11.8,7.2,28.7,1.1,37.6-13.7c6.9-11.3,7.1-24.5,1.4-33.2C234.3,234,233.1,233.5,231.9,233.8z"/>
<path class="st12" d="M238.2,242.6c-1.6,6.3-6.1,19.5-16.8,28.9c-6.9,6.1-18.7,9.2-25.3,10.5c11.8,7,28.6,0.9,37.5-13.8
	C238.6,259.8,240.1,250.4,238.2,242.6z"/>
<path class="st1" d="M49.3,233.8l4.9,1.3c1.9,0.5,3.9-0.6,4.5-2.6l1.4-5c0.3-1.1,1.3-2,2.5-2c10.1-0.6,21.3,5.6,28,16.6
	c9,14.7,6.6,32.5-5.2,39.7c-11.8,7.2-28.7,1.1-37.6-13.7c-6.9-11.3-7.1-24.5-1.4-33.2C46.9,234,48.1,233.5,49.3,233.8z"/>
<path class="st12" d="M93,247.1c0,0,1.1,21.4-14.3,28.4c-7.1,3.2-14.9,3.8-21.3,3.5c8.8,6.4,19.5,7.9,27.8,2.9
	C95.8,275.5,98.8,260.7,93,247.1z"/>
<path d="M206.9,286.1c-4.2,0-8.1-1.1-11.6-3.2c-6-3.7-9.9-10-11-17.9c-1-7.8,0.9-16.1,5.4-23.5c6.8-11.1,18.2-17.9,29.1-17.2
	c1.7,0.1,3.1,1.3,3.6,2.9l1.4,5c0.3,1.3,1.7,2,3,1.7l4.9-1.3l0.3,1.2l-0.3-1.2c1.7-0.5,3.4,0.2,4.4,1.7c3,4.6,4.4,10.2,4.2,16.3
	c-0.2,6.2-2.2,12.5-5.6,18.2c-4.5,7.4-11,12.9-18.4,15.6C213.1,285.6,209.9,286.1,206.9,286.1z M217.3,226.7
	c-9.6,0-19.5,6.2-25.5,16.1c-4.2,6.9-6,14.7-5,21.9c0.9,7.1,4.4,12.9,9.8,16.1c5.4,3.3,12.1,3.7,18.8,1.3
	c6.8-2.5,12.9-7.6,17.1-14.5c3.2-5.3,5-11.2,5.2-17c0.2-5.6-1.1-10.8-3.8-14.9c-0.4-0.6-1.1-0.8-1.7-0.7l-4.9,1.3
	c-2.6,0.7-5.3-0.8-6-3.4l-1.4-5c-0.2-0.6-0.7-1.1-1.4-1.1C218.1,226.8,217.7,226.7,217.3,226.7z"/>
<path d="M74.3,286.1c-10.2,0-21.1-6.3-27.7-17.2c-3.4-5.7-5.4-12-5.6-18.2c-0.2-6.1,1.2-11.8,4.2-16.3c0.9-1.5,2.7-2.1,4.4-1.7
	l4.9,1.3c1.3,0.3,2.6-0.4,3-1.7l1.4-5c0.4-1.7,1.9-2.8,3.6-2.9c10.9-0.7,22.3,6.1,29.1,17.2c9.3,15.3,6.8,33.9-5.6,41.4
	C82.4,285.1,78.4,286.1,74.3,286.1z M48.5,235c-0.5,0-1,0.3-1.3,0.7c-2.7,4.1-4,9.3-3.8,14.9c0.2,5.8,2,11.7,5.2,17
	c8.6,14.1,24.7,20.1,36,13.2c11.2-6.8,13.4-23.9,4.8-38c-6.3-10.3-16.8-16.6-26.9-16c-0.6,0-1.2,0.5-1.4,1.1l-1.4,5
	c-0.7,2.6-3.4,4.1-6,3.4l-4.9-1.3C48.8,235,48.7,235,48.5,235z"/>
<g>
	<path class="st1" d="M240.1,157.7c0,0,7.4,9.8,4.9,19.6s-9.8,7.4-14.7,4.9s-4.9-9.8,0-14.7C235.2,162.6,240.1,157.7,240.1,157.7z"
		/>
	<path d="M237.7,185.6c-2.9,0-5.8-1.2-7.9-2.3c-2.3-1.1-3.8-3.3-4.2-5.9c-0.6-3.6,0.9-7.7,3.9-10.7l10.8-10.8l0.8,1.1
		c0.3,0.4,7.7,10.4,5.1,20.7c-0.9,3.7-2.7,6.2-5.1,7.3C240,185.4,238.8,185.6,237.7,185.6z M239.9,159.6l-8.8,8.8
		c-2.5,2.5-3.7,5.8-3.2,8.6c0.3,1.9,1.3,3.3,2.9,4.1c4.1,2,7.1,2.6,9.2,1.6c1.8-0.8,3-2.7,3.8-5.7
		C245.6,169.8,241.7,162.4,239.9,159.6z"/>
</g>
<g>
	<path class="st13" d="M140.8,16.4c-56.6,0-102.5,46.2-102.5,103.3c0,41.5,45.9,76.3,102.5,76.3s102.5-38.1,102.5-76.3
		C243.3,62.7,197.4,16.4,140.8,16.4z M218.1,144.3c-8.4,46-38,19.5-80.5,19.5C95,163.8,73.3,195,64,144.3
		c-8.1-44.1,34.5-76.4,77-76.4C183.6,67.9,225.7,102.6,218.1,144.3z"/>
	<path d="M140.8,197.5c-27.6,0-53.7-8.1-73.4-22.9c-19.8-14.8-30.6-34.3-30.6-54.9c0-57.8,46.7-104.8,104-104.8s104,47,104,104.8
		c0,19.1-11.2,38.7-30.6,53.7C194,189,167.9,197.5,140.8,197.5z M140.8,17.9c-55.7,0-101,45.7-101,101.8c0,19.7,10.5,38.3,29.4,52.5
		c19.2,14.4,44.6,22.3,71.6,22.3c26.5,0,51.9-8.4,71.6-23.5c18.7-14.4,29.4-33.1,29.4-51.3C241.8,63.6,196.5,17.9,140.8,17.9z
		 M84.7,174.8c-3.4,0-6.4-0.7-9.2-2.4c-6.2-3.9-10.2-12.4-13-27.8c-3.3-17.8,1.3-34.7,13.1-49c15-18,40.1-29.2,65.4-29.2
		c24.7,0,49.5,11.4,64.8,29.8c11.9,14.3,16.8,31.5,13.7,48.4l-1.5-0.3l1.5,0.3c-2.3,12.7-6.3,20.5-12.4,24.7
		c-8.8,5.9-20.5,3.5-35.3,0.5c-10.1-2.1-21.6-4.4-34.2-4.4c-13.4,0-24.6,3.1-34.4,5.8C96.2,173.1,90.1,174.8,84.7,174.8z
		 M141.1,69.4c-24.4,0-48.6,10.8-63.1,28.2c-11.3,13.5-15.6,29.6-12.5,46.5c2.6,14.3,6.3,22.5,11.7,25.8c6,3.8,14.5,1.4,25.3-1.6
		c9.5-2.7,21.3-5.9,35.2-5.9c12.9,0,24.6,2.4,34.8,4.5c14.1,2.9,25.3,5.2,33,0c5.4-3.6,9-11.1,11.2-22.7c2.9-16-1.7-32.4-13-46
		C188.8,80.4,164.8,69.4,141.1,69.4z"/>
</g>
<g>
	<path class="st14" d="M206.9,71.8c16.1,20.9,30.9,60,30.9,60l5.2-16.7c-4.8-53.8-39.4-92.2-92.3-97
		C150.6,18.1,188.2,47.5,206.9,71.8z"/>
	<path d="M140.6,198.1c-27.6,0-53.7-8.1-73.4-22.9c-19.8-14.8-30.6-34.3-30.6-54.9c0-57.8,46.7-104.8,104-104.8s104,47,104,104.8
		c0,19.1-11.2,38.7-30.6,53.7C193.8,189.5,167.7,198.1,140.6,198.1z M140.6,18.5c-55.7,0-101,45.7-101,101.8
		c0,19.7,10.5,38.3,29.4,52.5c19.2,14.4,44.6,22.3,71.6,22.3c26.5,0,51.9-8.4,71.6-23.5c18.7-14.4,29.4-33.1,29.4-51.3
		C241.6,64.1,196.3,18.5,140.6,18.5z"/>
</g>
<g>
	<path class="st4" d="M42.3,90.8c0,0,7.9,9.9,7.7,28.3s-5,26.5-5,26.5s-14.3,0.1-14.9-27.4C29.6,90.7,42.3,90.8,42.3,90.8z"/>
	<path d="M45,147.1c-0.9,0-15.8-0.5-16.4-28.9c-0.3-12.2,2-20.8,6.7-25.5c3.4-3.4,6.9-3.4,7-3.4l0.7,0l0.4,0.6
		c0.3,0.4,8.3,10.5,8.1,29.2c-0.2,18.6-5,26.9-5.2,27.3l-0.4,0.7L45,147.1C45,147.1,45,147.1,45,147.1z M41.6,92.4
		c-0.9,0.2-2.6,0.8-4.3,2.5c-2.8,2.9-6,9.2-5.7,23.2c0.5,21.9,9.6,25.3,12.5,25.8c1.1-2.5,4.2-10.5,4.4-24.9
		C48.7,104.1,43.3,94.9,41.6,92.4z"/>
</g>
<g>
	<path class="st4" d="M237.7,90.8c0,0-7.9,9.9-7.7,28.3s5,26.5,5,26.5s14.3,0.1,14.9-27.4S237.7,90.8,237.7,90.8z"/>
	<path d="M235,147.1C235,147.1,235,147.1,235,147.1l-0.9,0l-0.4-0.7c-0.2-0.3-5-8.7-5.2-27.3c-0.2-18.7,7.7-28.8,8.1-29.2l0.4-0.6
		l0.7,0c0.1,0,3.6,0,7,3.4c4.7,4.7,6.9,13.3,6.7,25.5C250.8,146.6,235.9,147.1,235,147.1z M238.4,92.4c-1.7,2.5-7.1,11.7-6.9,26.6
		c0.1,14.5,3.2,22.5,4.4,24.9c2.9-0.5,12.1-3.9,12.5-25.8c0.3-14-2.9-20.4-5.7-23.2C240.9,93.2,239.3,92.6,238.4,92.4z"/>
</g>
<g>
	<g>
		<path class="st13" d="M183.3,44.9c0,0,2.5,4.8,6,7.5s9,3.7,9.9,3.3c1-0.4,5.1-11.2,6.6-15.1c1.4-3.9,1.9-11.6-1-10.8
			c-2.9,0.7-2.6,6.3-10.6,10.3C186.2,44,183.3,44.9,183.3,44.9z"/>
		<path d="M198.5,56.9c-2.4,0-7-1.4-9.9-3.6c-3.6-2.8-6.2-7.7-6.3-7.9l-0.6-1.2l1.3-0.4c0.1,0,3-1,10.7-4.8c4.5-2.2,6.2-5,7.4-7
			c0.9-1.5,1.8-2.9,3.4-3.3c0.9-0.2,1.8,0,2.4,0.7c2,2.2,1,8.7-0.1,11.5c-5.6,15-6.6,15.5-7.1,15.7C199.3,56.8,199,56.9,198.5,56.9z
			 M198.5,54.9L198.5,54.9L198.5,54.9z M184.8,45.5c0.9,1.5,2.8,4.3,5,6.1c2.9,2.2,7.5,3.2,8.7,3.2c0.8-1.2,3.3-7.1,6.1-14.5
			c1.2-3.2,1.5-8.2,0.5-9.3c-0.1-0.1-0.1-0.1-0.2,0c-0.7,0.2-1.2,0.9-2,2.3c-1.3,2.1-3.3,5.3-8.3,7.9
			C189.5,43.6,186.4,44.9,184.8,45.5z"/>
	</g>
	<g>
		<path class="st13" d="M96.7,44.9c0,0-2.5,4.8-6,7.5s-9,3.7-9.9,3.3c-1-0.4-5.1-11.2-6.6-15.1c-1.4-3.9-1.9-11.6,1-10.8
			c2.9,0.7,2.6,6.3,10.6,10.3S96.7,44.9,96.7,44.9z"/>
		<path d="M81.6,56.9c-0.5,0-0.9-0.1-1.2-0.2c-0.5-0.2-1.5-0.7-7.1-15.7c-1.1-2.9-2.1-9.4-0.1-11.5c0.6-0.7,1.5-0.9,2.4-0.7
			c1.6,0.4,2.4,1.7,3.4,3.3c1.2,2,2.9,4.8,7.4,7c7.7,3.9,10.7,4.8,10.7,4.8l1.3,0.4l-0.6,1.2c-0.1,0.2-2.7,5.1-6.3,7.9
			c-2.2,1.7-4.9,2.6-6.3,3C84.6,56.5,82.9,56.9,81.6,56.9z M81.5,54.9L81.5,54.9L81.5,54.9z M81.4,54.7c1.2,0.1,5.8-0.9,8.7-3.2
			c2.3-1.7,4.1-4.5,5-6.1c-1.6-0.6-4.6-1.9-9.8-4.5c-5.1-2.5-7-5.7-8.3-7.9c-0.9-1.4-1.3-2.1-2-2.3c-0.1,0-0.2,0-0.2,0
			c-1,1.1-0.7,6.1,0.5,9.3C78.1,47.6,80.6,53.6,81.4,54.7z"/>
	</g>
</g>
<g>
	<g>
		<path class="st15" d="M160.3,42.1c0,11.3-9.1,20.4-20.4,20.4c-11.3,0-20.4-9.1-20.4-20.4c0-11.3,9.1-20.4,20.4-20.4
			C151.2,21.6,160.3,30.8,160.3,42.1"/>
		<path class="st13" d="M149.6,50.5l-8.1-19.6c-0.2-0.6-0.7-0.9-1.3-0.9c-0.6,0-1.1,0.3-1.3,0.9L130,52.3h3.1l3.5-8.8l10.5,8.5
			c0.4,0.3,0.7,0.5,1.1,0.5c0.8,0,1.5-0.6,1.5-1.5C149.8,50.9,149.7,50.7,149.6,50.5 M140.2,34.4l5.3,13l-8-6.3L140.2,34.4
			L140.2,34.4z"/>
	</g>
	<path d="M140,63.5c-11.8,0-21.4-9.6-21.4-21.4s9.6-21.4,21.4-21.4s21.4,9.6,21.4,21.4S151.8,63.5,140,63.5z M140,22.9
		c-10.6,0-19.2,8.6-19.2,19.2s8.6,19.2,19.2,19.2s19.2-8.6,19.2-19.2S150.6,22.9,140,22.9z"/>
</g>
<g>
	<path class="st16" d="M147.4,215c0.5,0.1,1,0.2,1.5,0.3c4.7-2.8,8.8-3.5,11.6-1.7c6.6,4.4,2.6,22-9,39.5
		c-11.5,17.5-26.2,28.1-32.8,23.7c-2.4-1.6-3.4-5.1-3.1-9.6c-0.4-0.5-0.7-1-1-1.5c-2.3,9.4-1.5,16.8,2.8,19.7
		c8.3,5.5,26.2-7.2,40.2-28.3c13.9-21.1,18.5-42.6,10.3-48C163.2,205.9,155.6,208.5,147.4,215z"/>
	<path d="M163.2,207.7c1.7,0,3.3,0.4,4.6,1.3c8.3,5.5,3.7,27-10.3,48c-11.7,17.8-26.3,29.5-35.6,29.5c-1.7,0-3.3-0.4-4.6-1.3
		c-4.4-2.9-5.1-10.2-2.8-19.7c0.3,0.5,0.7,1,1,1.5c-0.3,4.6,0.7,8,3.1,9.6c1,0.7,2.2,1,3.5,1c7.5,0,19.5-9.9,29.3-24.7
		c11.5-17.5,15.5-35.1,9-39.5c-1-0.7-2.2-1-3.5-1c-2.3,0-5.1,1-8.1,2.7c-0.5-0.1-1-0.2-1.5-0.3C153.3,210.3,158.8,207.7,163.2,207.7
		 M163.2,205.7c-4.8,0-10.7,2.7-17.1,7.7l-3.6,2.8l4.5,0.7c0.4,0.1,0.9,0.2,1.4,0.3l0.8,0.2l0.7-0.4c2.7-1.6,5.2-2.4,7-2.4
		c1,0,1.8,0.2,2.4,0.6c4.9,3.2,2.1,19.1-9.5,36.7c-10.3,15.6-21.7,23.8-27.6,23.8c-1,0-1.8-0.2-2.4-0.6c-1.7-1.1-2.5-3.9-2.2-7.8
		l0-0.7l-0.4-0.6c-0.3-0.4-0.7-0.9-1-1.4l-2.5-3.9l-1.1,4.5c-2.6,10.8-1.3,18.5,3.7,21.8c1.6,1.1,3.5,1.6,5.7,1.6
		c10.3,0,25.2-12.2,37.3-30.4c6.9-10.4,11.7-21.2,13.7-30.6c2.1-9.9,0.7-17.1-4-20.2C167.2,206.2,165.3,205.7,163.2,205.7
		L163.2,205.7z"/>
</g>
</svg>
