<?xml version="1.0" encoding="UTF-8"?>
<svg id="Layer_1" data-name="Layer 1" xmlns="http://www.w3.org/2000/svg" viewBox="0 0 171.01 29.03"
	stroke="transparent">
	<circle fill="#ffffff" cx="14.5" cy="14.51" r="10.35" />
	<path fill="#1b66b6"
		d="m13.41,28.53c-.79,0-1.46-.59-1.55-1.38l-.1-.62c-1.4-.31-2.63-.82-3.75-1.52l-.6.43c-.26.2-.6.32-.95.32-.42,0-.81-.16-1.11-.46l-1.37-1.37c-.56-.56-.61-1.45-.12-2.07l.39-.54c-.85-1.28-1.44-2.69-1.76-4.19l-.62-.1c-.76-.09-1.36-.76-1.36-1.55v-1.93c0-.79.59-1.46,1.38-1.55l.61-.1c.31-1.43.87-2.79,1.67-4.02l-.32-.44c-.48-.61-.42-1.5.14-2.05l1.37-1.37c.3-.29.69-.46,1.11-.46.35,0,.69.12.97.33l.42.3c1.2-.78,2.51-1.33,3.91-1.65l.11-.68c.09-.76.76-1.36,1.55-1.36h1.94c.79,0,1.46.59,1.55,1.38l.1.6c1.5.31,2.91.88,4.21,1.72l.45-.33c.26-.2.6-.32.95-.32.42,0,.81.16,1.11.46l1.37,1.37c.56.56.61,1.45.12,2.07l-.32.45c.79,1.23,1.35,2.58,1.66,4.01l.6.1c.76.09,1.36.76,1.36,1.55v1.93c0,.79-.59,1.46-1.38,1.55l-.57.09c-.32,1.49-.91,2.89-1.75,4.17l.42.58c.47.61.42,1.5-.14,2.05l-1.37,1.37c-.3.3-.69.46-1.11.46h0c-.35,0-.69-.12-.96-.33l-.59-.43c-1.21.78-2.51,1.29-4.05,1.6l-.09.58c-.09.76-.76,1.36-1.55,1.36h-1.94Zm1.1-23.46c-5.22,0-9.46,4.25-9.46,9.46s4.25,9.46,9.46,9.46,9.46-4.25,9.46-9.46-4.25-9.46-9.46-9.46Z" />
	<path fill="#ffffff"
		d="m15.34,1c.54,0,.99.4,1.06.94l.16.96c1.7.3,3.28.96,4.65,1.9l.73-.53c.19-.15.43-.23.66-.23.27,0,.55.11.75.31l1.37,1.37c.38.38.42.99.08,1.41l-.53.74c.9,1.32,1.54,2.83,1.85,4.46l.94.15c.53.06.94.52.94,1.06v1.93c0,.54-.4.99-.94,1.06l-.94.15c-.31,1.69-.99,3.26-1.94,4.62l.62.86c.33.42.3,1.03-.08,1.41l-1.37,1.37c-.21.21-.48.31-.75.31-.23,0-.46-.07-.66-.23l-.88-.63h-.02c-1.37.93-2.79,1.47-4.5,1.76l-.15.92c-.06.53-.52.94-1.06.94h-1.93c-.54,0-.99-.4-1.06-.94l-.16-.98c-1.56-.31-2.93-.85-4.2-1.71l-.88.63c-.19.15-.43.23-.66.23-.27,0-.55-.11-.75-.31l-1.37-1.37c-.38-.38-.42-.99-.08-1.41l.61-.84c-.96-1.36-1.64-2.93-1.95-4.63l-.97-.16c-.53-.06-.94-.52-.94-1.06v-1.93c0-.54.4-.99.94-1.06l.97-.16c.31-1.63.95-3.15,1.86-4.47l-.52-.72c-.33-.42-.3-1.03.08-1.41l1.37-1.37c.21-.21.48-.31.75-.31.23,0,.46.07.66.23l.72.52c1.29-.89,2.76-1.52,4.35-1.84l.17-1.02c.06-.53.52-.94,1.06-.94h1.93m-.83,23.5c5.5,0,9.96-4.46,9.96-9.96s-4.46-9.96-9.96-9.96S4.55,9.03,4.55,14.53s4.46,9.96,9.96,9.96M15.34,0h-1.93c-1.04,0-1.92.78-2.05,1.82l-.05.31c-1.22.31-2.37.8-3.45,1.46l-.17-.12c-.33-.26-.78-.41-1.24-.41-.55,0-1.07.21-1.46.6l-1.37,1.37c-.74.74-.81,1.91-.16,2.73l.1.14c-.68,1.11-1.17,2.3-1.48,3.56l-.3.05c-.99.12-1.78,1-1.78,2.04v1.93c0,1.04.78,1.92,1.82,2.05l.25.04c.32,1.32.85,2.58,1.57,3.73l-.2.28c-.62.79-.55,1.96.19,2.7l1.37,1.37c.39.39.91.6,1.46.6.46,0,.91-.16,1.27-.44l.3-.21c1,.59,2.09,1.03,3.29,1.33l.05.31c.12.99,1,1.78,2.04,1.78h1.93c1.04,0,1.92-.78,2.05-1.82l.03-.2c1.34-.3,2.51-.76,3.59-1.41l.34.24c.33.26.78.41,1.24.41.55,0,1.07-.21,1.46-.6l1.37-1.37c.74-.74.81-1.91.16-2.73l-.19-.27c.72-1.15,1.24-2.4,1.56-3.72l.26-.04c.99-.12,1.78-1,1.78-2.04v-1.93c0-1.04-.78-1.92-1.82-2.05l-.23-.04c-.31-1.25-.8-2.44-1.47-3.55l.14-.19c.62-.79.55-1.96-.19-2.7l-1.37-1.37c-.39-.39-.91-.6-1.46-.6-.46,0-.91.16-1.27.44l-.15.1c-1.16-.71-2.42-1.23-3.75-1.54l-.05-.28c-.12-.99-1-1.78-2.04-1.78h0Zm-.83,23.5c-4.94,0-8.96-4.02-8.96-8.96S9.57,5.57,14.51,5.57s8.96,4.02,8.96,8.96-4.02,8.96-8.96,8.96h0Z" />
	<circle fill="#ef5a54" cx="14.4" cy="14.51" r="8.84" />
	<path fill="#ffffff"
		d="m12.26,15.36c-.54,1.35-1.02,2.64-1.58,3.9-.41.92-1.21.26-1.94.49,1.36-3.27,2.66-6.39,3.97-9.51.2-.48.39-.98.67-1.42.15-.24.48-.52.73-.52.24,0,.6.28.7.53.95,2.17,1.85,4.36,2.77,6.54.4.94.85,1.86,1.16,2.83.13.41.13,1.05-.11,1.34-.38.45-.91.14-1.33-.2-1.51-1.22-3.02-2.45-4.54-3.66-.15-.12-.33-.2-.53-.31Zm.58-1.47c1.17.92,2.34,1.83,3.67,2.87-.83-2.05-1.58-3.92-2.41-5.97-.47,1.15-.86,2.11-1.26,3.09Z" />
	<path fill="#ffffff" d="m46.42,17.85v2.2h-11.3v-11.08h11.19v2.2h-8.04v2.23h7.77v2.06h-7.77v2.39h8.15Z" />
	<path fill="#ffffff"
		d="m48.86,8.97h7.04c4.07,0,6.68,1.89,6.68,5.35s-2.76,5.73-6.73,5.73h-6.99v-11.08Zm6.59,8.94c2.37,0,3.82-1.31,3.82-3.54s-1.58-3.26-3.86-3.26h-3.4v6.81h3.43Z" />
	<path fill="#ffffff"
		d="m67.99,8.97h3.93l5.53,11.08h-3.37l-1.03-2.23h-6.18l-1.03,2.23h-3.39l5.54-11.08Zm4.12,6.84l-1.42-3.04c-.17-.39-.53-1.33-.72-1.9h-.05c-.17.58-.53,1.51-.7,1.9l-1.42,3.04h4.31Z" />
	<path fill="#ffffff" d="m86.21,14.61v2.22h-8.15v-2.22h8.15Z" />
	<path fill="#ffffff"
		d="m86.93,17.6l2.25-1.58c.92,1.3,2.62,2.17,4.9,2.17,2.01,0,2.95-.41,2.95-1.28,0-.69-.47-.97-1.79-1.11l-3.4-.37c-2.72-.3-4.03-1.3-4.03-3.34,0-2.2,2.15-3.5,5.95-3.5,2.79,0,5,.73,6.37,2.28l-2,1.67c-.81-1.09-2.4-1.76-4.53-1.76-1.73,0-2.65.41-2.65,1.16,0,.69.45.95,1.89,1.11l3.06.3c3.06.31,4.31,1.22,4.31,3.28,0,2.45-2.28,3.81-6.29,3.81-3.28,0-5.84-1.08-6.98-2.83Z" />
	<path fill="#ffffff" d="m113.45,17.85v2.2h-11.3v-11.08h11.19v2.2h-8.04v2.23h7.77v2.06h-7.77v2.39h8.15Z" />
	<path fill="#ffffff"
		d="m115.89,8.97h7.55c3.56,0,4.59,1.83,4.59,3.51,0,1.23-.62,2.68-2.5,3.28l2.9,4.29h-3.54l-2.62-3.92h-3.23v3.92h-3.15v-11.08Zm6.84,5.15c1.53,0,1.98-.76,1.98-1.55s-.45-1.5-1.97-1.5h-3.7v3.04h3.68Z" />
	<path fill="#ffffff"
		d="m128.43,8.97h3.5l3.48,7.46c.2.44.3.76.38,1.11h.05c.08-.34.19-.67.38-1.11l3.48-7.46h3.5l-5.48,11.08h-3.78l-5.49-11.08Z" />
	<path fill="#ffffff" d="m156.03,17.85v2.2h-11.3v-11.08h11.19v2.2h-8.04v2.23h7.77v2.06h-7.77v2.39h8.15Z" />
	<path fill="#ffffff"
		d="m158.47,8.97h7.55c3.56,0,4.59,1.83,4.59,3.51,0,1.23-.62,2.68-2.5,3.28l2.9,4.29h-3.54l-2.62-3.92h-3.23v3.92h-3.15v-11.08Zm6.84,5.15c1.53,0,1.98-.76,1.98-1.55s-.45-1.5-1.97-1.5h-3.7v3.04h3.68Z" />
</svg>