
<?xml version="1.0" encoding="utf-8"?>
<svg version="1.1" id="Layer_1" xmlns="http://www.w3.org/2000/svg" xmlns:xlink="http://www.w3.org/1999/xlink" x="0px" y="0px" width="48px"
	 viewBox="0 0 32 32" xml:space="preserve">
		<path fill="#1B66B6" d="M14.92,31.5c-0.84,0-1.55-0.63-1.65-1.46l-0.12-0.71c-1.54-0.34-2.9-0.89-4.13-1.68l-0.68,0.49
			c-0.27,0.22-0.64,0.34-1.01,0.34c-0.44,0-0.86-0.17-1.17-0.49L4.68,26.5c-0.59-0.59-0.65-1.54-0.13-2.2l0.44-0.62
			c-0.94-1.41-1.59-2.95-1.94-4.61l-0.71-0.12c-0.81-0.1-1.44-0.81-1.44-1.64v-2.11c0-0.84,0.63-1.55,1.46-1.65l0.7-0.11
			c0.34-1.58,0.96-3.07,1.84-4.43L4.53,8.52c-0.5-0.64-0.45-1.59,0.15-2.18l1.49-1.49C6.48,4.53,6.9,4.36,7.34,4.36
			c0.37,0,0.73,0.13,1.02,0.35l0.49,0.35c1.32-0.86,2.76-1.47,4.3-1.82l0.13-0.77c0.1-0.81,0.81-1.44,1.65-1.44h2.11
			c0.84,0,1.55,0.63,1.65,1.46l0.11,0.68c1.66,0.33,3.21,0.97,4.62,1.89l0.52-0.37c0.27-0.22,0.64-0.34,1.01-0.34
			c0.44,0,0.86,0.17,1.17,0.49l1.49,1.49c0.59,0.59,0.65,1.54,0.13,2.2l-0.37,0.51c0.88,1.36,1.49,2.84,1.83,4.41l0.69,0.11
			c0.81,0.1,1.44,0.81,1.44,1.65v2.11c0,0.84-0.63,1.55-1.46,1.65l-0.66,0.11c-0.35,1.64-1,3.18-1.93,4.59l0.47,0.66
			c0.51,0.64,0.45,1.59-0.14,2.18L26.12,28c-0.31,0.31-0.73,0.49-1.17,0.49l0,0c-0.37,0-0.73-0.13-1.02-0.35l-0.67-0.48
			c-1.32,0.86-2.76,1.42-4.46,1.75l-0.11,0.66c-0.1,0.81-0.81,1.44-1.65,1.44H14.92z M16.13,5.93c-5.71,0-10.36,4.65-10.36,10.36
			s4.65,10.36,10.36,10.36S26.49,22,26.49,16.29S21.84,5.93,16.13,5.93z"/>
	<circle fill="#EF5A54" cx="16" cy="16" r="10.25"/>
		<path fill="white" d="M17.03,1.54c0.59,0,1.08,0.44,1.15,1.02l0.17,1.05c1.86,0.32,3.58,1.05,5.07,2.08l0.8-0.58
			c0.21-0.17,0.46-0.25,0.72-0.25c0.3,0,0.6,0.11,0.82,0.34l1.49,1.49c0.41,0.41,0.45,1.07,0.09,1.54l-0.58,0.81
			c0.98,1.44,1.68,3.08,2.01,4.86l1.03,0.17c0.58,0.07,1.02,0.56,1.02,1.15v2.11c0,0.59-0.44,1.08-1.02,1.15l-1.02,0.17
			c-0.34,1.85-1.08,3.55-2.11,5.03l0.68,0.94c0.36,0.46,0.32,1.12-0.09,1.54l-1.49,1.49c-0.23,0.23-0.52,0.34-0.82,0.34
			c-0.25,0-0.5-0.08-0.72-0.25l-0.96-0.69l-0.02-0.01c-1.49,1.03-3.05,1.61-4.9,1.93l-0.16,1.01C18.11,30.56,17.62,31,17.03,31
			h-2.11c-0.59,0-1.08-0.44-1.15-1.02l-0.17-1.07c-1.7-0.34-3.2-0.93-4.58-1.87l-0.96,0.69c-0.21,0.17-0.46,0.25-0.72,0.25
			c-0.3,0-0.6-0.11-0.82-0.34l-1.49-1.49c-0.41-0.41-0.45-1.07-0.09-1.54L5.6,23.7c-1.05-1.48-1.79-3.2-2.13-5.05l-1.05-0.17
			C1.83,18.4,1.4,17.91,1.4,17.32v-2.11c0-0.59,0.44-1.08,1.02-1.15l1.06-0.17c0.34-1.78,1.04-3.43,2.03-4.87L4.94,8.23
			C4.58,7.77,4.62,7.11,5.03,6.69L6.52,5.2c0.23-0.23,0.52-0.34,0.82-0.34c0.25,0,0.5,0.08,0.72,0.25l0.79,0.57
			c1.41-0.97,3.01-1.66,4.75-2.01l0.18-1.11c0.07-0.58,0.56-1.02,1.15-1.02H17.03 M16.13,27.15c6,0,10.86-4.86,10.86-10.86
			S22.13,5.43,16.13,5.43S5.27,10.29,5.27,16.29S10.13,27.15,16.13,27.15 M17.03,0.54h-2.11c-1.09,0-2.01,0.82-2.14,1.9l-0.07,0.4
			c-1.36,0.34-2.65,0.89-3.84,1.62L8.64,4.3C8.3,4.02,7.82,3.86,7.34,3.86c-0.58,0-1.12,0.22-1.53,0.63L4.32,5.98
			c-0.77,0.77-0.85,2-0.17,2.86l0.14,0.2c-0.76,1.23-1.31,2.56-1.65,3.97l-0.39,0.06C1.21,13.2,0.4,14.12,0.4,15.21v2.11
			c0,1.09,0.82,2.01,1.9,2.14l0.34,0.06c0.35,1.48,0.94,2.87,1.75,4.15l-0.26,0.36c-0.65,0.83-0.57,2.06,0.2,2.83l1.49,1.49
			c0.41,0.41,0.95,0.63,1.53,0.63c0.48,0,0.95-0.16,1.33-0.46l0.37-0.27c1.12,0.67,2.33,1.16,3.67,1.49l0.06,0.4
			c0.13,1.04,1.05,1.86,2.14,1.86h2.11c1.09,0,2.01-0.82,2.14-1.9l0.05-0.28c1.5-0.33,2.8-0.84,4-1.57l0.42,0.3
			c0.35,0.27,0.82,0.44,1.3,0.44c0.58,0,1.12-0.22,1.53-0.63l1.49-1.49c0.77-0.77,0.85-2,0.17-2.86l-0.25-0.34
			c0.81-1.28,1.39-2.67,1.74-4.14l0.35-0.06c1.04-0.13,1.86-1.05,1.86-2.14v-2.11c0-1.09-0.82-2.01-1.9-2.14l-0.31-0.05
			c-0.34-1.4-0.89-2.72-1.64-3.95l0.18-0.26c0.65-0.83,0.57-2.06-0.2-2.83l-1.49-1.49c-0.41-0.41-0.95-0.63-1.53-0.63
			c-0.48,0-0.95,0.16-1.33,0.46L23.4,4.47c-1.29-0.8-2.69-1.37-4.17-1.71L19.17,2.4C19.05,1.36,18.12,0.54,17.03,0.54L17.03,0.54z
			 M16.13,26.15c-5.44,0-9.86-4.42-9.86-9.86s4.42-9.86,9.86-9.86s9.86,4.42,9.86,9.86S21.56,26.15,16.13,26.15L16.13,26.15z"/>
	<path fill="white" d="M13.67,17.2c-0.59,1.47-1.11,2.88-1.72,4.25c-0.44,1-1.32,0.29-2.11,0.53c1.49-3.56,2.9-6.97,4.33-10.37
		c0.22-0.53,0.43-1.07,0.73-1.55c0.17-0.26,0.52-0.57,0.8-0.57c0.26,0,0.65,0.31,0.77,0.57c1.03,2.37,2.02,4.75,3.02,7.13
		c0.43,1.02,0.93,2.03,1.27,3.08c0.14,0.44,0.14,1.15-0.12,1.46c-0.41,0.49-1,0.15-1.45-0.21c-1.65-1.33-3.29-2.67-4.95-3.99
		C14.08,17.4,13.88,17.32,13.67,17.2z M14.3,15.6c1.28,1,2.55,2,4,3.13c-0.9-2.23-1.72-4.27-2.62-6.5
		C15.16,13.48,14.74,14.52,14.3,15.6z"/>
</svg>
