<?xml version="1.0" encoding="UTF-8"?>
<svg id="Layer_1" data-name="Layer 1" xmlns="http://www.w3.org/2000/svg" version="1.1" viewBox="0 0 128 128">
	<path
		d="M62.059,110.679c25.88,0,46.859-21.015,46.859-46.938s-20.98-46.939-46.859-46.939S15.2,37.817,15.2,63.74s20.98,46.938,46.86,46.938Z"
		fill="#74babe" stroke-width="0" />
	<path
		d="M62.064,16.801c8.94,0,17.881,2.47,25.742,7.72,21.58,14.359,27.591,43.387,13.256,65.158-9.094,13.742-23.892,21.153-39.152,21.153-8.94,0-17.881-2.471-25.742-7.72-21.58-14.36-27.592-43.387-13.256-65.158,8.94-13.742,23.892-21.153,39.152-21.153ZM62.064,13.713c-16.802,0-32.524,8.338-41.773,22.543-7.399,11.117-9.865,24.55-7.245,37.674,2.62,13.124,10.328,24.396,21.426,31.807,8.17,5.404,17.726,8.337,27.438,8.337,16.802,0,32.524-8.337,41.772-22.542,7.399-11.117,9.866-24.55,7.245-37.674-2.62-13.124-10.327-24.396-21.426-31.807-8.17-5.404-17.727-8.338-27.437-8.338Z"
		fill="#000" stroke-width="0" />
	<path
		d="M95.511,30.852c-2.312-2.316-4.778-4.478-7.553-6.33-.771-.463-1.542-.926-2.312-1.39-.925,10.963-6.936,26.403-17.11,41.689-12.023,18.374-26.513,31.344-37.149,34.432,1.542,1.235,3.083,2.47,4.778,3.705,2.158,1.39,4.316,2.625,6.628,3.706,10.944-6.948,23.43-19.764,34.22-35.976,9.094-14.051,15.414-27.947,18.497-39.836Z"
		fill="#4b9696" stroke-width="0" />
	<path d="M47.265,108.362c19.576,6.485,41.927-.618,53.951-18.683,11.252-17.139,9.865-38.91-1.85-54.35l-52.101,73.033Z"
		fill="#4b9696" stroke-width="0" />
	<path
		d="M71.316,14.485c.771.154,1.541.309,2.312.463,7.245-4.323,13.565-5.404,17.881-2.625,10.174,6.794,4.008,33.969-13.873,60.989-17.726,27.021-40.386,43.387-50.559,36.593-3.699-2.47-5.241-7.874-4.778-14.822-.617-.772-1.079-1.544-1.541-2.316-3.545,14.514-2.312,25.939,4.316,30.417,12.794,8.492,40.386-11.117,61.966-43.696,21.426-32.579,28.517-65.776,15.877-74.113-7.245-4.941-18.96-.926-31.599,9.11Z"
		fill="#b4dbda" stroke-width="0" />
	<path
		d="M95.671,3.214c2.62,0,5.087.618,7.091,2.007,12.793,8.492,5.703,41.689-15.877,74.113-18.035,27.483-40.54,45.549-54.875,45.549-2.62,0-5.087-.618-7.091-2.008-6.782-4.477-7.861-15.749-4.316-30.417.462.772,1.079,1.544,1.541,2.316-.462,7.102,1.079,12.352,4.778,14.823,1.541,1.08,3.391,1.544,5.395,1.544,11.561,0,30.058-15.286,45.164-38.138,17.727-27.021,23.892-54.195,13.873-60.989-1.541-1.081-3.391-1.544-5.395-1.544-3.545,0-7.861,1.544-12.486,4.169-.771-.154-1.541-.309-2.312-.463,9.249-6.948,17.726-10.963,24.509-10.963ZM95.671.126c-7.399,0-16.493,4.169-26.358,11.889l-5.549,4.323,6.937,1.081c.617.154,1.387.309,2.158.463l1.233.309,1.079-.618c4.162-2.47,8.015-3.706,10.79-3.706,1.541,0,2.775.309,3.699.926,7.553,4.941,3.237,29.491-14.644,56.666-15.877,24.087-33.449,36.748-42.544,36.748-1.541,0-2.775-.309-3.699-.926-2.62-1.699-3.854-6.022-3.391-12.044v-1.081l-.617-.927c-.462-.618-1.079-1.39-1.542-2.162l-3.854-6.022-1.695,6.948c-4.008,16.675-2.004,28.564,5.703,33.66,2.466,1.698,5.395,2.47,8.786,2.47,15.877,0,38.844-18.837,57.496-46.938,10.636-16.058,18.035-32.733,21.118-47.247,3.237-15.286,1.079-26.403-6.166-31.189-2.774-1.853-5.703-2.625-8.94-2.625Z"
		fill="#000" stroke-width="0" />
</svg>