
<?xml version="1.0" encoding="utf-8"?>
<!-- Generator: Adobe Illustrator 21.1.0, SVG Export Plug-In . SVG Version: 6.00 Build 0)  -->
<svg version="1.1" id="Layer_1" xmlns="http://www.w3.org/2000/svg" xmlns:xlink="http://www.w3.org/1999/xlink" x="0px" y="0px" width="48px"
	 viewBox="0 0 426.4 386.9" style="enable-background:new 0 0 426.4 386.9;" xml:space="preserve">
<style type="text/css">
	.st0{fill:#42210B;}
	.st1{fill:#FFFFFF;}
	.st2{fill:#C69C6D;stroke:#8C6239;stroke-width:5;stroke-miterlimit:10;}
	.st3{fill:#FFFFFF;stroke:#42210B;stroke-width:3;stroke-miterlimit:10;}
	.st4{fill:#ED1C24;stroke:#8C6239;stroke-width:5;stroke-miterlimit:10;}
	.st5{fill:#A67C52;}
	.st6{fill:#ED1C24;}
</style>
<g>
	<g>
		<g>
			<path class="st0" d="M146.7,233.6c-10.1,3.2-20.3,6-30.6,8.4c-10.7,2.5-21.7,5-32.8,5.1C63,247.4,46.9,233.5,27,232.4
				c-5.8-0.3-5.8,8.7,0,9c9.9,0.5,18.9,5.1,27.9,8.8c9.8,4,19.6,6.3,30.2,5.9c21.5-0.8,43.5-7.4,64-13.8
				C154.6,240.6,152.2,231.9,146.7,233.6L146.7,233.6z"/>
		</g>
	</g>
	<g>
		<g>
			<path class="st0" d="M289.2,131.1c17.9-8,36-18.5,44.3-37.2c4.2-9.3,6-19.2,7.2-29.3c1.5-11.7,2.5-23.4,3.7-35.2
				c0.6-5.8-8.4-5.7-9,0c-1.1,10.3-2.1,20.6-3.3,30.9C331,70,329.6,80,325.7,89c-7.5,17.5-24.6,26.8-41.2,34.2
				C279.4,125.7,283.9,133.5,289.2,131.1L289.2,131.1z"/>
		</g>
	</g>
	<g>
		
			<ellipse transform="matrix(0.5541 -0.8324 0.8324 0.5541 -181.2331 320.1169)" class="st0" cx="208.2" cy="329.2" rx="65.5" ry="33.7"/>
	</g>
	<g>
		<g>
			<path class="st1" d="M191.1,378.8c22-11.5,38.7-31,47.1-54.3c2-5.5-6.7-7.8-8.7-2.4c-7.6,21.1-23.1,38.5-43,48.9
				C181.4,373.7,185.9,381.4,191.1,378.8L191.1,378.8z"/>
		</g>
	</g>
	<g>
		
			<ellipse transform="matrix(0.9684 -0.2494 0.2494 0.9684 -51.6225 98.7773)" class="st0" cx="364" cy="253.1" rx="63.9" ry="32.9"/>
	</g>
	<g>
		<g>
			<path class="st1" d="M330.8,277.8c28.3,7,58.7-0.8,80.2-20.5c4.3-3.9-2.1-10.3-6.4-6.4c-19.1,17.5-46.4,24.4-71.5,18.2
				C327.5,267.8,325.1,276.4,330.8,277.8L330.8,277.8z"/>
		</g>
	</g>
	<path class="st2" d="M123.9,32.3c-25.4,4.5-32.9,20.2-45,46.9c-20.2,44.4,2,90.3,5.6,97.5c18.4,36.5,42.3,36.8,60,80.6
		c8.6,21.2,4.6,25.2,13.1,37.5c20.4,29.2,63.7,36.1,91.9,33.8c40.3-3.3,91.5-28.8,108.8-82.5c17.1-53.2-6-112.1-41.2-131.2
		c-25.3-13.7-44.9-0.5-71.2-20.6c-21.6-16.5-18.4-33.1-37.5-48.8C194.9,34.4,170.7,24,123.9,32.3z"/>
	<ellipse transform="matrix(0.6622 -0.7494 0.7494 0.6622 101.8029 263.3924)" class="st0" cx="343" cy="18.8" rx="21" ry="15.5"/>
	<g>
		<g>
			<path class="st1" d="M346.8,11.6c0.8,0.2-0.6-0.4-0.1-0.1c0.2,0.1,0.3,0.2,0.5,0.3c0.4,0.2-0.6-0.7-0.1-0.1
				c0.1,0.1,0.7,0.8,0.2,0.2c-0.4-0.5,0,0,0.1,0.1c0.4,0.7,0,0.2,0-0.2c0,0.1,0.1,0.4,0.2,0.5c0.3,0.9-0.1-1,0-0.1
				c0.1,2.3,2,4.6,4.5,4.5c2.3-0.1,4.6-2,4.5-4.5c-0.3-4.4-3-8.1-7.3-9.4c-2.2-0.7-5,0.8-5.5,3.1C343.1,8.5,344.4,10.8,346.8,11.6
				L346.8,11.6z"/>
		</g>
	</g>
	
		<ellipse transform="matrix(0.9999 -1.433732e-02 1.433732e-02 0.9999 -3.3929 0.3254)" class="st0" cx="21" cy="236.8" rx="21" ry="15.5"/>
	<g>
		<g>
			<path class="st1" d="M19.2,233.8c1.1-0.3,1.4-0.4,2.5,0c0.8,0.3,1.3,0.7,2,1.7c1.5,1.9,4.8,1.6,6.4,0c1.9-1.9,1.5-4.4,0-6.4
				c-3.1-3.9-8.6-5.4-13.3-4C11.3,226.8,13.7,235.5,19.2,233.8L19.2,233.8z"/>
		</g>
	</g>
	<g>
		<g>
			<path class="st0" d="M116.3,45.1c4.9-10.8-1.3-24.2-12.9-26.9c-1.9-0.4-2.7,2.4-0.8,2.9c9.6,2.3,15.3,13.5,11.2,22.5
				C112.9,45.3,115.5,46.8,116.3,45.1L116.3,45.1z"/>
		</g>
	</g>
	<g>
		<g>
			<path class="st0" d="M108.2,48.6c2.4-9.4-5.4-19.3-15.2-19c-1.9,0.1-1.9,3.1,0,3c7.8-0.2,14.2,7.6,12.3,15.2
				C104.8,49.7,107.7,50.5,108.2,48.6L108.2,48.6z"/>
		</g>
	</g>
	<g>
		<g>
			<path class="st0" d="M99.6,54.3c-1.1-8.3-10.9-13.4-18.2-9.1c-1.7,1-0.2,3.6,1.5,2.6c5.2-3,12.9,0.4,13.7,6.5
				C96.8,56.2,99.8,56.2,99.6,54.3L99.6,54.3z"/>
		</g>
	</g>
	<path class="st3" d="M182.5,102.8l34-73c0,0,35,0,46,21c7.5,14.3,8,39,8,39L182.5,102.8z"/>
	<path class="st3" d="M175.2,106.8L95.7,94.1c0,0-19.6,29-8.4,49.9c7.6,14.2,27.8,28.5,27.8,28.5L175.2,106.8z"/>
	<path class="st0" d="M177.5,100.8l33-74c0,0-2.5-5.5-8-7s-12,0-12,0L177.5,100.8z"/>
	<path class="st0" d="M174.4,101.6l-73.1-35c0,0-5.6,2.4-7.2,7.8c-1.6,5.5-0.3,12-0.3,12L174.4,101.6z"/>
	<path d="M182.5,102.8L201,63.3c0,0,17-6,25.5,7.5c8.6,13.6-3.5,25.5-3.5,25.5L182.5,102.8z"/>
	<path d="M173.7,107.2l-29.6,32c0,0-18,0.5-22-14.9c-4-15.6,11.1-23.2,11.1-23.2L173.7,107.2z"/>
	<g>
		<g>
			<path class="st1" d="M210.4,75.4c-0.6,0.2-0.7,0.3-0.4,0.2s0.2-0.1-0.5,0.1c0.7,0-0.3,0-0.4-0.1c0.1,0,0.3,0.1,0.4,0.1
				c0.3,0.1,0.2,0-0.4-0.2l0.6,0.3c0.5,0.2-0.9-0.6-0.1-0.1c0.6,0.4-0.3-0.5-0.1-0.1c0.3,0.5-0.3-1-0.1-0.2s0-1,0-0.1
				c0,2.4,2.1,4.6,4.5,4.5c2.5-0.1,4.5-2,4.5-4.5c0-3-1.6-5.7-4.1-7.3c-2.6-1.7-5.6-1.6-8.4-0.4c-2.2,0.9-2.8,4.3-1.6,6.2
				C205.7,76,208,76.4,210.4,75.4L210.4,75.4z"/>
		</g>
	</g>
	<g>
		<g>
			<path class="st1" d="M140.5,112.7c-0.5-0.3-0.1,0,0.2,0.1c-0.7-0.6,0.3,0.5,0.1,0c-0.3-0.5,0.4,0.8,0.1,0.2
				c-0.4-0.8,0.2,0.2,0,0.1v-0.6c-0.1,0.1-0.1,1,0,0.3c-0.1,0.2-0.1,0.3-0.2,0.5c0.2-0.3,0.2-0.4,0-0.1c-0.2,0.2-0.2,0.3-0.1,0.1
				c0.2-0.2,0.1-0.2-0.3,0.2c1.9-1.4,3-4,1.6-6.2c-1.2-1.9-4.1-3.1-6.2-1.6c-2.4,1.7-4,4.3-3.9,7.4c0.1,3,1.6,5.7,4.1,7.3
				c2,1.2,5,0.5,6.2-1.6C143.3,116.7,142.7,114,140.5,112.7L140.5,112.7z"/>
		</g>
	</g>
	
		<ellipse transform="matrix(0.862 -0.5069 0.5069 0.862 -60.577 161.0481)" class="st4" cx="265.5" cy="191.8" rx="79.5" ry="68.5"/>
	<g>
		<g>
			<path class="st5" d="M140.6,46.1c-2.1,2-3.9,4.6-3.6,7.6c0.3,3.5,2.8,6.6,6.6,6.7c6,0.2,11.5-7.7,8.2-13c-1-1.7-3.1-3.1-5.2-3
				c-1.7,0.1-3.1,0.8-4.4,1.9c-2,1.8-2.8,5.2-1.9,7.7c2.4,6.6,11.8,5.9,13.8-0.7c0.7-2.5-0.9-5.6-3.5-6.2c-2.7-0.6-5.4,0.8-6.2,3.5
				c0.6-2.1,3.1-2.6,4.6-1c0.8,0.9,1,1.8,0.8,2.8c0.2-0.5,0.1-0.4-0.1,0.3c-0.4,0.7-1,1.2-1.8,1.4c-0.9,0-1.8,0-2.7,0
				c-1.8-0.6-2.5-1.6-2.3-3.1c-0.1-0.4-0.1-0.7,0.1-1c0.2-0.3,0.1-0.3-0.1,0.1c0.1-0.1,0.2-0.2,0.3-0.4c-0.2,0.3-0.5,0.5-0.7,0.8
				c-0.1,0.1-0.2,0.2-0.3,0.3c-0.3,0.2-0.2,0.2,0.1-0.1c1.3,0.2,2.6,0.4,3.9,0.6c0.2,0.4,0.5,0.9,0.7,1.3c0.2,0.6-0.2,0.9-0.2,1.4
				c0,0.4,0.4-0.5-0.1,0.1c0.3-0.4,0.6-0.7,1-1c1.9-1.8,2-5.3,0-7.1C145.7,44.2,142.6,44.1,140.6,46.1L140.6,46.1z"/>
		</g>
	</g>
	<g>
		<g>
			<path class="st5" d="M118.2,184.9c-5.7,7,1.7,16.9,10,13.3c3.4-1.5,6.3-5,6.3-8.9c0-4.2-2.7-7.6-7-7.8c-3.1-0.1-5.8,3.3-4.8,6.3
				c1.2,3.4,3.7,6.1,7.3,7c2.6,0.6,5.4-0.8,6.2-3.5c0.7-2.5-0.9-5.5-3.5-6.2c-1.7-0.4,0,0.1-0.2,0.1c-0.4,0-0.4-0.8-0.1-0.1
				c-1.6,2.1-3.2,4.2-4.8,6.3c-2.4-0.1-2.8-1.1-3-2.6c0.1,0.7-0.1,0.2,0.1-0.1c0.7-0.9-0.5,0.5,0,0c-0.5,0.5-0.3,0.1-0.2,0.2
				c0.1,0,0.6,0,0.7,0c0.4,0.1,0.5,0.4,0.8,0.6c0.2,0.3,0.2,0.2-0.1-0.2c0.1,0.1,0.1,0.3,0.2,0.4c0,1,0.1,1.1-0.7,2.1
				c1.7-2.1,2-5,0-7.1C123.5,183.1,119.9,182.8,118.2,184.9L118.2,184.9z"/>
		</g>
	</g>
	<g>
		<g>
			<path class="st5" d="M171.1,142c0.8,4.8,5.3,8.6,10.1,8.6c5.1,0,9.5-3.9,10.3-8.9c0.7-4.4-0.2-12.1-5.3-13.6
				c-2.7-0.8-5.2,0.5-7,2.4c-1.1,1.2-1.5,1.7-3.1,1.2c0.7,2.8,1.5,5.6,2.2,8.4c0.2-0.2-0.5,0.2-0.5,0.2c6.3,1.4,8.9-8.2,2.7-9.6
				c-3.5-0.8-6.6,0-9.3,2.4c-3,2.6-1.1,7.2,2.2,8.4c2.6,0.9,5.5,0.8,8-0.2c1.3-0.5,2.4-1.2,3.4-2.1c0.4-0.3,0.7-0.6,1-1
				c0.2-0.3,0.4-0.5,0.6-0.7c0.4-0.4,0.3-0.4-0.5,0.3c-0.9,0-1.8,0-2.7,0c0.2,0.1,0.3,0.1,0.5,0.2c-0.7-0.4-1.5-0.9-2.2-1.3
				c0.1,0.2,0.3,0.3,0.4,0.5c-0.4-0.7-0.9-1.5-1.3-2.2c0.4,1.2,0.8,2.5,1,3.7c0,0.4,0,0.8,0,1.2c0,0.5-0.5,0.9,0,0.4
				c-0.8,0.6-0.9,0.2-1.1-0.9c-0.4-2.7-3.8-4.1-6.2-3.5C171.7,136.6,170.7,139.3,171.1,142L171.1,142z"/>
		</g>
	</g>
	<g>
		<g>
			<path class="st5" d="M232.9,115.9c0.2,0.4,0.5,0.9,0.7,1.3c0.6,1.1,1.8,2,3,2.3s2.8,0.2,3.9-0.5s2-1.7,2.3-3
				c0.3-1.4,0.1-2.6-0.5-3.9c-0.2-0.4-0.5-0.9-0.7-1.3c-0.6-1.1-1.8-2-3-2.3s-2.8-0.2-3.9,0.5s-2,1.7-2.3,3
				C232.1,113.4,232.3,114.6,232.9,115.9L232.9,115.9z"/>
		</g>
	</g>
	<g>
		<g>
			<path class="st5" d="M167.4,232.1c-6.1,1.6-8.1,8.6-5,13.7c2.8,4.7,9.1,7.2,14.3,5.4c4.9-1.7,7.8-7.1,6.3-12.2
				c-0.8-2.7-2.7-4.8-5.3-5.8c-1.4-0.5-2.8-0.7-4.2-0.8c-0.1,0-0.9-0.1-0.9-0.1c0.2-0.4,1.2,2.5,0.9,0.7c0,0.9,0,1.8,0,2.7
				c-0.1,0.1-0.1,0.1-0.2,0.2c3.1-5.6-5.5-10.7-8.6-5c-1.7,3-1.1,6.6,1.4,9c1.3,1.2,2.8,2,4.5,2.3c0.8,0.1,1.6,0.2,2.4,0.3
				c0.4,0,0.7,0,1.1,0.1c0.2,0.1,0.1,0.1-0.2-0.1c0,0.1-0.6-0.5-0.6-0.5c-0.1-0.1-0.1-0.2,0-0.3c0.1-0.3,0.1-0.1-0.1,0.5
				c-0.3-0.1,0.7-0.2-0.3-0.3c-0.9-0.1-1.1-0.6-1.8-0.9c0,0-0.2-0.3-0.3-0.3c0.3,0-0.8,1.2-0.8,1.2
				C176.3,240.1,173.6,230.5,167.4,232.1L167.4,232.1z"/>
		</g>
	</g>
	<g>
		<g>
			<path class="st5" d="M211.8,291.6c-4-6.2-11.2-2.3-12,3.9c-0.8,5.9,1.8,12,6.5,15.6c4.5,3.5,11.5,4.9,16.7,2.1
				c6.4-3.3,5.4-9.8,4.9-15.9c-0.5-6.3-1.9-12-9.5-12.1c-5.1-0.1-13.1,0.2-14.5,6.4c-1.2,5.4,2.5,12.8,8.2,13.8
				c6.2,1.1,11.2-5.5,7.8-11c-2.2-3.5-8.1-3.1-9.1,1.2c-1.1,4.4,0.5,8,4.1,10.6c5.2,3.8,10.2-4.8,5-8.6c0.2,0.2,0.4,0.5,0.5,0.7
				c-3,0.4-6.1,0.8-9.1,1.2c-0.4-0.7,3.4-3.1,2.9-4.8c-0.8-2.6-1.7,1.4-1.9,1.1c0,0.1,5.2-0.1,5.6-0.4c0.7,0.1,0.8-0.1,0.2-0.6
				c-0.4-0.7-0.5-0.8-0.4-0.3c-0.2,0.3,0.2,1.9,0.2,2.3c0.2,2,0.3,4,0.5,5.9c0.1,1.6,0.4,1.7-1.1,2c-1.3,0.2-2.9-0.3-4-0.9
				c-1.4-0.8-2.5-2-3.1-3.5c-0.3-0.7-0.4-1.3-0.5-2c0-0.3-0.1-0.7,0-1c0.2-1.9-1.1-1.5-3.8,1.2c-1-0.8-2-1.5-3-2.3
				c0.1,0.2,0.2,0.4,0.4,0.6C206.6,302,215.3,297,211.8,291.6L211.8,291.6z"/>
		</g>
	</g>
	<g>
		<g>
			<path class="st5" d="M303.5,273.7c-2.4-1.5-5.1-2.5-7.9-1.8c-2.7,0.7-4.9,3.2-5.3,6c-0.9,6.4,6.3,8.3,11.2,8.4
				c4.8,0.1,10.6-2.4,10.9-7.9c0.2-5.6-5.5-9.6-10.6-6.9c-5.7,3-0.7,11.6,5,8.6c-0.1,0.1-0.2,0.1-0.3,0.2c-0.9,0-1.8,0-2.7,0
				c-2.1-0.4-1.4-4.8-0.3-4.3l-1.3,0.3c-0.6,0-1.2,0-1.8-0.1c-0.5-0.1-1-0.2-1.5-0.4c-1.2-0.5-1-0.2,0.6,0.7
				c0.2,0.8,0.5,1.7,0.7,2.5c-3.4,1.1-4.4,1.9-2.8,2.7c0.4,0.2,0.7,0.4,1.1,0.7C303.9,285.9,308.9,277.2,303.5,273.7L303.5,273.7z"
				/>
		</g>
	</g>
	<path class="st1" d="M191.3,192.8l27.7,16.5v-40l32,20v-38l28,17l4-28l23,12l-3-24c0,0-14-8-35.5-6.4c-11.6,0.9-24.3,6.8-33.5,11.4
		c-14,7-23.7,18.9-31.2,29.1C194,174.3,191.3,192.8,191.3,192.8z"/>
	<path class="st1" d="M339.9,185.2l-28.8-14.5l2.9,39.9l-33.3-17.7l2.7,37.9l-29.1-15l-2,28.2l-23.8-10.3l4.7,23.7
		c0,0,14.5,7,35.9,3.8c11.5-1.7,23.7-8.5,32.6-13.8c13.5-8,22.3-20.5,29-31.2C338.5,203.8,339.9,185.2,339.9,185.2z"/>
</g>
<g>
	<g>
		<path class="st6" d="M202.2,57.9c8.5-3.1,23.2-0.1,27.8,8.4c2.3,4.4,4.5,9.9,4.5,14.9c0.1,5.5-2.7,10.5-5.3,15.3
			c-1.5,2.8,2.8,5.4,4.3,2.5c3.1-5.8,6.3-11.9,6-18.7c-0.3-6-2.8-12.8-5.9-17.9c-6-9.5-22.6-13.1-32.7-9.4
			C197.9,54.1,199.2,59,202.2,57.9L202.2,57.9z"/>
	</g>
</g>
<g>
	<g>
		<path class="st6" d="M208.1,46.8c11.6-2.3,25.6,2.3,32.2,12.4c6.6,10.2,6.1,22.8,3.1,34.2c-1.3,5,6.4,7.1,7.7,2.1
			c3.8-14.3,3.8-30.3-5.5-42.6c-8.9-11.7-25.5-16.6-39.6-13.8C200.9,40.1,203.1,47.8,208.1,46.8L208.1,46.8z"/>
	</g>
</g>
<g>
	<g>
		<path class="st6" d="M212.4,33.8c7.8-1.8,15.5,0,22.9,2.8c7.2,2.7,15,6.1,20.3,11.8c10.7,11.7,9.5,29.3,8.7,44
			c-0.3,6.4,9.7,6.4,10,0c1-17.9,1.2-38.5-12.7-52.1C255.2,34,246.3,30.1,238,27c-9.1-3.4-18.6-4.9-28.2-2.8
			C203.5,25.5,206.1,35.2,212.4,33.8L212.4,33.8z"/>
	</g>
</g>
<g>
	<g>
		<path class="st6" d="M122.8,94.8c-13.1,4.8-14.2,21.6-10.1,33.1c4.3,12,15.2,20.6,28.2,20.5c3.2,0,3.2-5,0-5
			c-9.9,0.1-18.6-5.9-22.6-14.9c-3.9-8.6-5.2-24.8,5.8-28.9C127.2,98.6,125.9,93.7,122.8,94.8L122.8,94.8z"/>
	</g>
</g>
<g>
	<g>
		<path class="st6" d="M131.1,152.8c-11.4-2.2-18.8-11.4-22.7-21.9c-3.6-9.6-7.7-25.3,1.2-33.1c3.9-3.4-1.8-9-5.7-5.7
			c-11.3,9.9-7.9,28.5-3.3,40.9c4.8,13,14.1,24.7,28.3,27.5C134,161.5,136.1,153.8,131.1,152.8L131.1,152.8z"/>
	</g>
</g>
<g>
	<g>
		<path class="st6" d="M119,168c-27.3-13.3-38.1-46.5-23.3-73.2c3.1-5.6-5.5-10.7-8.6-5c-17.3,31.2-5.3,71.1,26.9,86.9
			C119.7,179.4,124.8,170.8,119,168L119,168z"/>
	</g>
</g>
</svg>
