<svg viewBox="1043 117 877 962" xmlns="http://www.w3.org/2000/svg" xmlns:xlink="http://www.w3.org/1999/xlink">
  <clipPath id="a">
    <path d="m0 0h1920v1080h-1920z" />
  </clipPath>
  <g clip-path="url(#a)">
    <g stroke-miterlimit="10">
      <path
        d="m1864.53 1090.45 194.09 145.85-129.94-288.09zm-149.84 284.22c-4.6 0-9.25-.94-13.71-2.98-16.85-7.57-24.32-27.37-16.74-44.19l213.96-474.31c10.81-24.03 50.15-24.03 60.96 0l213.96 474.31c6.27 13.89 2.32 30.3-9.59 39.86-11.99 9.51-28.81 9.72-40.98.63l-286.21-215.06-91.15 202.05c-5.59 12.38-17.76 19.69-30.51 19.69z"
        fill="#f1f1f1" stroke="#e00" stroke-width="1.75" />
      <path
        d="m1823.81 1044.79 194.09 145.85-129.94-288.09zm-149.84 284.22c-4.6 0-9.24-.95-13.71-2.98-16.83-7.62-24.32-27.37-16.74-44.19l213.96-474.31c10.81-24.03 50.15-24.03 60.96 0l213.96 474.31c6.27 13.89 2.35 30.33-9.59 39.86-11.96 9.54-28.81 9.72-40.98.63l-286.21-215.06-91.15 202.05c-5.59 12.38-17.76 19.69-30.51 19.69z"
        fill="#f1e1e1" stroke="#e00" stroke-width="1.75" />
      <path
        d="m1783.08 999.13 194.09 145.85-129.94-288.09zm-149.84 284.22c-4.6 0-9.24-.95-13.71-2.98-16.83-7.62-24.32-27.37-16.74-44.19l213.96-474.31c10.81-24.03 50.15-24.03 60.96 0l213.96 474.31c6.27 13.89 2.35 30.33-9.59 39.86-11.96 9.54-28.81 9.72-40.98.63l-286.21-215.06-91.15 202.05c-5.59 12.38-17.76 19.69-30.51 19.69z"
        fill="#f1d1d1" stroke="#e00" stroke-width="1.75" />
      <path
        d="m1742.36 953.47 194.09 145.85-129.94-288.09zm-149.84 284.22c-4.6 0-9.24-.95-13.71-2.98-16.83-7.62-24.32-27.37-16.74-44.19l213.96-474.31c10.81-24.03 50.15-24.03 60.96 0l213.96 474.31c6.27 13.89 2.35 30.33-9.59 39.86-11.96 9.54-28.81 9.72-40.98.63l-286.21-215.06-91.15 202.05c-5.59 12.38-17.76 19.69-30.51 19.69z"
        fill="#f0c1c1" stroke="#e00" stroke-width="1.75" />
      <path
        d="m1701.63 907.8 194.09 145.85-129.94-288.09zm-149.84 284.22c-4.6 0-9.24-.95-13.71-2.98-16.83-7.62-24.32-27.37-16.74-44.19l213.96-474.31c10.81-24.03 50.15-24.03 60.96 0l213.96 474.31c6.27 13.89 2.35 30.33-9.59 39.86-11.96 9.54-28.81 9.72-40.98.63l-286.21-215.06-91.15 202.05c-5.59 12.38-17.76 19.69-30.51 19.69z"
        fill="#f0b1b1" stroke="#e00" stroke-width="1.75" />
      <path
        d="m1660.9 862.14 194.09 145.85-129.94-288.09zm-149.84 284.22c-4.6 0-9.24-.95-13.71-2.98-16.83-7.62-24.32-27.37-16.74-44.19l213.96-474.31c10.81-24.03 50.15-24.03 60.96 0l213.96 474.31c6.27 13.89 2.35 30.33-9.59 39.86-11.96 9.54-28.81 9.72-40.98.63l-286.21-215.06-91.15 202.05c-5.59 12.38-17.76 19.69-30.51 19.69z"
        fill="#f0a1a1" stroke="#e00" stroke-width="1.75" />
      <path
        d="m1620.18 816.48 194.09 145.85-129.94-288.09zm-149.84 284.22c-4.6 0-9.24-.95-13.71-2.98-16.83-7.62-24.32-27.37-16.74-44.19l213.96-474.31c10.81-24.03 50.15-24.03 60.96 0l213.96 474.31c6.27 13.89 2.35 30.33-9.59 39.86-11.96 9.54-28.81 9.72-40.98.63l-286.21-215.06-91.15 202.05c-5.59 12.38-17.76 19.69-30.51 19.69z"
        fill="#f09191" stroke="#e00" stroke-width="1.75" />
      <path
        d="m1579.45 770.81 194.09 145.85-129.94-288.09zm-149.84 284.22c-4.6 0-9.24-.95-13.71-2.98-16.83-7.62-24.32-27.37-16.74-44.19l213.96-474.31c10.81-24.03 50.15-24.03 60.96 0l213.96 474.31c6.27 13.89 2.35 30.33-9.59 39.86-11.96 9.54-28.81 9.72-40.98.63l-286.21-215.06-91.15 202.05c-5.59 12.38-17.76 19.69-30.51 19.69z"
        fill="#f08181" stroke="#e00" stroke-width="1.75" />
      <path
        d="m1538.72 725.15 194.09 145.85-129.94-288.09zm-149.84 284.22c-4.6 0-9.24-.95-13.71-2.98-16.83-7.62-24.32-27.37-16.74-44.19l213.96-474.31c10.81-24.03 50.15-24.03 60.96 0l213.96 474.31c6.27 13.89 2.35 30.33-9.59 39.86-11.96 9.54-28.81 9.72-40.98.63l-286.21-215.06-91.15 202.05c-5.59 12.38-17.76 19.69-30.51 19.69z"
        fill="#ef7070" stroke="#e00" stroke-width="1.75" />
      <path
        d="m1498 679.49 194.09 145.85-129.94-288.09zm-149.84 284.22c-4.6 0-9.24-.95-13.71-2.98-16.83-7.62-24.32-27.37-16.74-44.19l213.96-474.31c10.81-24.03 50.15-24.03 60.96 0l213.96 474.31c6.27 13.89 2.35 30.33-9.59 39.86s-28.81 9.72-40.98.63l-286.21-215.06-91.15 202.05c-5.59 12.38-17.76 19.69-30.51 19.69z"
        fill="#ef6060" stroke="#e00" stroke-width="1.75" />
      <path
        d="m1457.27 633.83 194.09 145.85-129.94-288.09zm-149.84 284.22c-4.6 0-9.24-.95-13.71-2.98-16.83-7.62-24.32-27.37-16.74-44.19l213.96-474.31c10.81-24.03 50.15-24.03 60.96 0l213.96 474.31c6.27 13.89 2.35 30.33-9.59 39.86-11.96 9.54-28.81 9.72-40.98.63l-286.21-215.06-91.15 202.05c-5.59 12.38-17.76 19.69-30.51 19.69z"
        fill="#ef5050" stroke="#e00" stroke-width="1.75" />
      <path
        d="m1416.54 588.16 194.09 145.85-129.94-288.09zm-149.84 284.22c-4.6 0-9.24-.95-13.71-2.98-16.83-7.62-24.32-27.37-16.74-44.19l213.96-474.31c10.81-24.03 50.15-24.03 60.96 0l213.96 474.31c6.27 13.89 2.35 30.33-9.59 39.86s-28.81 9.72-40.98.63l-286.21-215.06-91.15 202.05c-5.59 12.38-17.76 19.69-30.51 19.69z"
        fill="#ef4040" stroke="#e00" stroke-width="1.75" />
      <path
        d="m1375.82 542.5 194.09 145.85-129.94-288.09zm-149.84 284.22c-4.6 0-9.24-.95-13.71-2.98-16.83-7.62-24.32-27.37-16.74-44.19l213.96-474.31c10.81-24.03 50.15-24.03 60.96 0l213.96 474.31c6.27 13.89 2.35 30.33-9.59 39.86-11.96 9.54-28.81 9.72-40.98.63l-286.21-215.06-91.15 202.05c-5.59 12.38-17.76 19.69-30.51 19.69z"
        fill="#ef3030" stroke="#e00" stroke-width="1.75" />
      <path
        d="m1335.09 496.84 194.09 145.85-129.94-288.09zm-149.84 284.22c-4.6 0-9.24-.95-13.71-2.98-16.83-7.62-24.32-27.37-16.74-44.19l213.96-474.31c10.81-24.03 50.15-24.03 60.96 0l213.96 474.31c6.27 13.89 2.35 30.33-9.59 39.86-11.96 9.54-28.81 9.72-40.98.63l-286.21-215.06-91.15 202.05c-5.59 12.38-17.76 19.69-30.51 19.69z"
        fill="#ee2020" stroke="#e00" stroke-width="1.75" />
      <path
        d="m1294.36 451.17 194.09 145.85-129.94-288.09zm-149.84 284.22c-4.6 0-9.24-.95-13.71-2.98-16.83-7.62-24.32-27.37-16.74-44.19l213.96-474.31c10.81-24.03 50.15-24.03 60.96 0l213.96 474.31c6.27 13.89 2.35 30.33-9.59 39.86s-28.81 9.72-40.98.63l-286.21-215.06-91.15 202.05c-5.59 12.38-17.76 19.69-30.51 19.69z"
        fill="#ee1010" stroke="#e00" stroke-width="1.75" />
      <path
        d="m1253.64 405.51 194.09 145.85-129.94-288.09zm-149.84 284.22c-4.6 0-9.25-.94-13.71-2.98-16.85-7.57-24.32-27.37-16.74-44.19l213.96-474.31c10.81-24.03 50.15-24.03 60.96 0l213.96 474.31c6.27 13.89 2.32 30.3-9.59 39.86-11.99 9.51-28.81 9.72-40.98.63l-286.21-215.06-91.15 202.05c-5.59 12.38-17.76 19.69-30.51 19.69z"
        fill="#e00" stroke="#e00" stroke-width="1.75" />
    </g>
    <path
      d="m1227.62 372.84 194.09 145.85-129.94-288.09zm-149.84 284.22c-4.6 0-9.25-.94-13.71-2.98-16.85-7.57-24.32-27.37-16.74-44.19l213.96-474.31c10.81-24.03 50.15-24.03 60.96 0l213.96 474.31c6.27 13.89 2.32 30.3-9.59 39.86-11.99 9.51-28.81 9.72-40.98.63l-286.21-215.06-91.15 202.05c-5.59 12.38-17.76 19.69-30.51 19.69z"
      fill="#fff" />
    <path
      d="m1583.32 1210.17 111.13 83.51-74.4-164.95zm-85.8 162.74c-2.63 0-5.29-.55-7.85-1.7-9.63-4.36-13.92-15.67-9.59-25.3l122.51-271.58c6.19-13.76 28.71-13.76 34.9 0l122.51 271.58c3.59 7.96 1.35 17.37-5.49 22.82-6.85 5.46-16.5 5.56-23.46.36l-163.88-123.14-52.19 115.69c-3.2 7.09-10.17 11.28-17.47 11.28z"
      fill="#dfdfdf" stroke="#dfdfdf" stroke-miterlimit="10" stroke-width="3.79" />
    <path
      d="m1560 1184.03 111.13 83.51-74.4-164.95zm-85.8 162.74c-2.63 0-5.29-.55-7.85-1.7-9.63-4.36-13.92-15.67-9.59-25.3l122.51-271.58c6.19-13.76 28.71-13.76 34.9 0l122.51 271.58c3.59 7.96 1.35 17.37-5.49 22.82-6.85 5.46-16.5 5.56-23.46.36l-163.88-123.14-52.19 115.69c-3.2 7.09-10.17 11.28-17.47 11.28z"
      fill="#d9d9d9" stroke="#dfdfdf" stroke-miterlimit="10" stroke-width="3.62" />
    <path
      d="m1536.68 1157.88 111.13 83.51-74.4-164.95zm-85.8 162.74c-2.63 0-5.29-.55-7.85-1.7-9.63-4.36-13.92-15.67-9.59-25.3l122.51-271.58c6.19-13.76 28.71-13.76 34.9 0l122.51 271.58c3.59 7.96 1.35 17.37-5.49 22.82-6.85 5.46-16.5 5.56-23.46.36l-163.88-123.14-52.19 115.69c-3.2 7.09-10.17 11.28-17.47 11.28z"
      fill="#d3d3d3" stroke="#dfdfdf" stroke-miterlimit="10" stroke-width="3.45" />
    <path
      d="m1513.36 1131.74 111.13 83.51-74.4-164.95zm-85.8 162.74c-2.63 0-5.29-.55-7.85-1.7-9.63-4.36-13.92-15.67-9.59-25.3l122.51-271.58c6.19-13.76 28.71-13.76 34.9 0l122.51 271.58c3.59 7.96 1.35 17.37-5.49 22.82-6.85 5.46-16.5 5.56-23.46.36l-163.88-123.14-52.19 115.69c-3.2 7.09-10.17 11.28-17.47 11.28z"
      fill="#cdcdcd" stroke="#dfdfdf" stroke-miterlimit="10" stroke-width="3.28" />
    <path
      d="m1490.04 1105.59 111.13 83.51-74.4-164.95zm-85.8 162.74c-2.63 0-5.29-.55-7.85-1.7-9.63-4.36-13.92-15.67-9.59-25.3l122.51-271.58c6.19-13.76 28.71-13.76 34.9 0l122.51 271.58c3.59 7.96 1.35 17.37-5.49 22.82-6.85 5.46-16.5 5.56-23.46.36l-163.88-123.14-52.19 115.69c-3.2 7.09-10.17 11.28-17.47 11.28z"
      fill="#c6c6c6" stroke="#dfdfdf" stroke-miterlimit="10" stroke-width="3.11" />
    <path
      d="m1466.72 1079.44 111.13 83.51-74.4-164.95zm-85.8 162.74c-2.63 0-5.29-.55-7.85-1.7-9.63-4.36-13.92-15.67-9.59-25.3l122.51-271.58c6.19-13.76 28.71-13.76 34.9 0l122.51 271.58c3.59 7.96 1.35 17.37-5.49 22.82-6.85 5.46-16.5 5.56-23.46.36l-163.88-123.14-52.19 115.69c-3.2 7.09-10.17 11.28-17.47 11.28z"
      fill="#c0c0c0" stroke="#e0e0e0" stroke-miterlimit="10" stroke-width="2.94" />
    <path
      d="m1443.41 1053.3 111.13 83.51-74.4-164.95zm-85.8 162.74c-2.63 0-5.29-.55-7.85-1.7-9.63-4.36-13.92-15.67-9.59-25.3l122.51-271.58c6.19-13.76 28.71-13.76 34.9 0l122.51 271.58c3.59 7.96 1.35 17.37-5.49 22.82-6.85 5.46-16.5 5.56-23.46.36l-163.88-123.14-52.19 115.69c-3.2 7.09-10.17 11.28-17.47 11.28z"
      fill="#bababa" stroke="#e0e0e0" stroke-miterlimit="10" stroke-width="2.77" />
    <path
      d="m1420.09 1027.15 111.13 83.51-74.4-164.95zm-85.8 162.74c-2.63 0-5.29-.55-7.85-1.7-9.63-4.36-13.92-15.67-9.59-25.3l122.51-271.58c6.19-13.76 28.71-13.76 34.9 0l122.51 271.58c3.59 7.96 1.35 17.37-5.49 22.82-6.85 5.46-16.5 5.56-23.46.36l-163.88-123.14-52.19 115.69c-3.2 7.09-10.17 11.28-17.47 11.28z"
      fill="#b4b4b4" stroke="#e0e0e0" stroke-miterlimit="10" stroke-width="2.6" />
    <path
      d="m1396.77 1001.01 111.13 83.51-74.4-164.95zm-85.8 162.74c-2.63 0-5.29-.55-7.85-1.7-9.63-4.36-13.92-15.67-9.59-25.3l122.51-271.58c6.19-13.76 28.71-13.76 34.9 0l122.51 271.58c3.59 7.96 1.35 17.37-5.49 22.82-6.85 5.46-16.5 5.56-23.46.36l-163.88-123.14-52.19 115.69c-3.2 7.09-10.17 11.28-17.47 11.28z"
      fill="#aeaeae" stroke="#e0e0e0" stroke-miterlimit="10" stroke-width="2.43" />
    <path
      d="m1373.45 974.86 111.13 83.51-74.4-164.95zm-85.8 162.74c-2.63 0-5.29-.55-7.85-1.7-9.63-4.36-13.92-15.67-9.59-25.3l122.51-271.58c6.19-13.76 28.71-13.76 34.9 0l122.51 271.58c3.59 7.96 1.35 17.37-5.49 22.82-6.85 5.46-16.5 5.56-23.46.36l-163.88-123.14-52.19 115.69c-3.2 7.09-10.17 11.28-17.47 11.28z"
      fill="#a8a8a8" stroke="#e0e0e0" stroke-miterlimit="10" stroke-width="2.26" />
    <path
      d="m1350.13 948.71 111.13 83.51-74.4-164.95zm-85.8 162.74c-2.63 0-5.29-.55-7.85-1.7-9.63-4.36-13.92-15.67-9.59-25.3l122.51-271.58c6.19-13.76 28.71-13.76 34.9 0l122.51 271.58c3.59 7.96 1.35 17.37-5.49 22.82-6.85 5.46-16.5 5.56-23.46.36l-163.88-123.14-52.19 115.69c-3.2 7.09-10.17 11.28-17.47 11.28z"
      fill="#a2a2a2" stroke="#e1e1e1" stroke-miterlimit="10" stroke-width="2.09" />
    <path
      d="m1326.81 922.57 111.13 83.51-74.4-164.95zm-85.8 162.74c-2.63 0-5.29-.55-7.85-1.7-9.63-4.36-13.92-15.67-9.59-25.3l122.51-271.58c6.19-13.76 28.71-13.76 34.9 0l122.51 271.58c3.59 7.96 1.35 17.37-5.49 22.82-6.85 5.46-16.5 5.56-23.46.36l-163.88-123.14-52.19 115.69c-3.2 7.09-10.17 11.28-17.47 11.28z"
      fill="#9c9c9c" stroke="#e1e1e1" stroke-miterlimit="10" stroke-width="1.92" />
    <path
      d="m1303.49 896.42 111.13 83.51-74.4-164.95zm-85.8 162.74c-2.63 0-5.29-.54-7.85-1.7-9.65-4.34-13.92-15.67-9.59-25.3l122.51-271.58c6.19-13.76 28.71-13.76 34.9 0l122.51 271.58c3.59 7.96 1.33 17.35-5.49 22.82-6.86 5.44-16.5 5.56-23.46.36l-163.88-123.14-52.19 115.69c-3.2 7.09-10.17 11.28-17.47 11.28z"
      fill="#969696" stroke="#e1e1e1" stroke-miterlimit="10" stroke-width="1.75" />
    <path
      d="m1288.59 877.71 111.13 83.51-74.4-164.95zm-85.8 162.74c-2.63 0-5.29-.54-7.85-1.7-9.65-4.34-13.92-15.67-9.59-25.3l122.51-271.58c6.19-13.76 28.71-13.76 34.9 0l122.51 271.58c3.59 7.96 1.33 17.35-5.49 22.82-6.86 5.44-16.5 5.56-23.46.36l-163.88-123.14-52.19 115.69c-3.2 7.09-10.17 11.28-17.47 11.28z"
      fill="#fff" />
    <path
      d="m2015.32 866.17 111.13 83.51-74.4-164.95zm-85.8 162.74c-2.63 0-5.29-.55-7.85-1.7-9.63-4.36-13.92-15.67-9.59-25.3l122.51-271.58c6.19-13.76 28.71-13.76 34.9 0l122.51 271.58c3.59 7.96 1.35 17.37-5.49 22.82-6.85 5.46-16.5 5.56-23.46.36l-163.88-123.14-52.19 115.69c-3.2 7.09-10.17 11.28-17.47 11.28z"
      fill="#dfdfdf" stroke="#dfdfdf" stroke-miterlimit="10" stroke-width="3.79" />
    <path
      d="m1992 840.03 111.13 83.51-74.4-164.95zm-85.8 162.74c-2.63 0-5.29-.55-7.85-1.7-9.63-4.36-13.92-15.67-9.59-25.3l122.51-271.58c6.19-13.76 28.71-13.76 34.9 0l122.51 271.58c3.59 7.96 1.35 17.37-5.49 22.82s-16.5 5.56-23.46.36l-163.88-123.14-52.19 115.69c-3.2 7.09-10.17 11.28-17.47 11.28z"
      fill="#d9d9d9" stroke="#dfdfdf" stroke-miterlimit="10" stroke-width="3.62" />
    <path
      d="m1968.68 813.88 111.13 83.51-74.4-164.95zm-85.8 162.74c-2.63 0-5.29-.55-7.85-1.7-9.63-4.36-13.92-15.67-9.59-25.3l122.51-271.58c6.19-13.76 28.71-13.76 34.9 0l122.51 271.58c3.59 7.96 1.35 17.37-5.49 22.82-6.85 5.46-16.5 5.56-23.46.36l-163.88-123.14-52.19 115.69c-3.2 7.09-10.17 11.28-17.47 11.28z"
      fill="#d3d3d3" stroke="#dfdfdf" stroke-miterlimit="10" stroke-width="3.45" />
    <path
      d="m1945.36 787.74 111.13 83.51-74.4-164.95zm-85.8 162.74c-2.63 0-5.29-.55-7.85-1.7-9.63-4.36-13.92-15.67-9.59-25.3l122.51-271.58c6.19-13.76 28.71-13.76 34.9 0l122.51 271.58c3.59 7.96 1.35 17.37-5.49 22.82-6.85 5.46-16.5 5.56-23.46.36l-163.88-123.14-52.19 115.69c-3.2 7.09-10.17 11.28-17.47 11.28z"
      fill="#cdcdcd" stroke="#dfdfdf" stroke-miterlimit="10" stroke-width="3.28" />
    <path
      d="m1922.04 761.59 111.13 83.51-74.4-164.95zm-85.8 162.74c-2.63 0-5.29-.55-7.85-1.7-9.63-4.36-13.92-15.67-9.59-25.3l122.51-271.58c6.19-13.76 28.71-13.76 34.9 0l122.51 271.58c3.59 7.96 1.35 17.37-5.49 22.82s-16.5 5.56-23.46.36l-163.88-123.14-52.19 115.69c-3.2 7.09-10.17 11.28-17.47 11.28z"
      fill="#c6c6c6" stroke="#dfdfdf" stroke-miterlimit="10" stroke-width="3.11" />
    <path
      d="m1898.72 735.44 111.13 83.51-74.4-164.95zm-85.8 162.74c-2.63 0-5.29-.55-7.85-1.7-9.63-4.36-13.92-15.67-9.59-25.3l122.51-271.58c6.19-13.76 28.71-13.76 34.9 0l122.51 271.58c3.59 7.96 1.35 17.37-5.49 22.82-6.85 5.46-16.5 5.56-23.46.36l-163.88-123.14-52.19 115.69c-3.2 7.09-10.17 11.28-17.47 11.28z"
      fill="#c0c0c0" stroke="#e0e0e0" stroke-miterlimit="10" stroke-width="2.94" />
    <path
      d="m1875.4 709.3 111.13 83.51-74.4-164.95zm-85.8 162.74c-2.63 0-5.29-.55-7.85-1.7-9.63-4.36-13.92-15.67-9.59-25.3l122.51-271.58c6.19-13.76 28.71-13.76 34.9 0l122.51 271.58c3.59 7.96 1.35 17.37-5.49 22.82-6.85 5.46-16.5 5.56-23.46.36l-163.88-123.14-52.19 115.69c-3.2 7.09-10.17 11.28-17.47 11.28z"
      fill="#bababa" stroke="#e0e0e0" stroke-miterlimit="10" stroke-width="2.77" />
    <path
      d="m1852.09 683.15 111.13 83.51-74.4-164.95zm-85.8 162.74c-2.63 0-5.29-.55-7.85-1.7-9.63-4.36-13.92-15.67-9.59-25.3l122.51-271.58c6.19-13.76 28.71-13.76 34.9 0l122.51 271.58c3.59 7.96 1.35 17.37-5.49 22.82-6.85 5.46-16.5 5.56-23.46.36l-163.88-123.14-52.19 115.69c-3.2 7.09-10.17 11.28-17.47 11.28z"
      fill="#b4b4b4" stroke="#e0e0e0" stroke-miterlimit="10" stroke-width="2.6" />
    <path
      d="m1828.77 657.01 111.13 83.51-74.4-164.95zm-85.8 162.74c-2.63 0-5.29-.55-7.85-1.7-9.63-4.36-13.92-15.67-9.59-25.3l122.51-271.58c6.19-13.76 28.71-13.76 34.9 0l122.51 271.58c3.59 7.96 1.35 17.37-5.49 22.82-6.85 5.46-16.5 5.56-23.46.36l-163.88-123.14-52.19 115.69c-3.2 7.09-10.17 11.28-17.47 11.28z"
      fill="#aeaeae" stroke="#e0e0e0" stroke-miterlimit="10" stroke-width="2.43" />
    <path
      d="m1805.45 630.86 111.13 83.51-74.4-164.95zm-85.8 162.74c-2.63 0-5.29-.55-7.85-1.7-9.63-4.36-13.92-15.67-9.59-25.3l122.51-271.58c6.19-13.76 28.71-13.76 34.9 0l122.51 271.58c3.59 7.96 1.35 17.37-5.49 22.82-6.85 5.46-16.5 5.56-23.46.36l-163.88-123.14-52.19 115.69c-3.2 7.09-10.17 11.28-17.47 11.28z"
      fill="#a8a8a8" stroke="#e0e0e0" stroke-miterlimit="10" stroke-width="2.26" />
    <path
      d="m1782.13 604.72 111.13 83.51-74.4-164.95zm-85.8 162.74c-2.63 0-5.29-.55-7.85-1.7-9.63-4.36-13.92-15.67-9.59-25.3l122.51-271.58c6.19-13.76 28.71-13.76 34.9 0l122.51 271.58c3.59 7.96 1.35 17.37-5.49 22.82-6.85 5.46-16.5 5.56-23.46.36l-163.88-123.14-52.19 115.69c-3.2 7.09-10.17 11.28-17.47 11.28z"
      fill="#a2a2a2" stroke="#e1e1e1" stroke-miterlimit="10" stroke-width="2.09" />
    <path
      d="m1758.81 578.57 111.13 83.51-74.4-164.95zm-85.8 162.74c-2.63 0-5.29-.55-7.85-1.7-9.63-4.36-13.92-15.67-9.59-25.3l122.51-271.58c6.19-13.76 28.71-13.76 34.9 0l122.51 271.58c3.59 7.96 1.35 17.37-5.49 22.82-6.85 5.46-16.5 5.56-23.46.36l-163.88-123.14-52.19 115.69c-3.2 7.09-10.17 11.28-17.47 11.28z"
      fill="#9c9c9c" stroke="#e1e1e1" stroke-miterlimit="10" stroke-width="1.92" />
    <path
      d="m1735.49 552.42 111.13 83.51-74.4-164.95zm-85.8 162.74c-2.63 0-5.29-.54-7.85-1.7-9.65-4.34-13.92-15.67-9.59-25.3l122.51-271.58c6.19-13.76 28.71-13.76 34.9 0l122.51 271.58c3.59 7.96 1.33 17.35-5.49 22.82-6.86 5.44-16.5 5.56-23.46.36l-163.88-123.14-52.19 115.69c-3.2 7.09-10.17 11.28-17.47 11.28z"
      fill="#969696" stroke="#e1e1e1" stroke-miterlimit="10" stroke-width="1.75" />
    <path
      d="m1720.59 533.71 111.13 83.51-74.4-164.95zm-85.8 162.74c-2.63 0-5.29-.54-7.85-1.7-9.65-4.34-13.92-15.67-9.59-25.3l122.51-271.58c6.19-13.76 28.71-13.76 34.9 0l122.51 271.58c3.59 7.96 1.33 17.35-5.49 22.82-6.86 5.44-16.5 5.56-23.46.36l-163.88-123.14-52.19 115.69c-3.2 7.09-10.17 11.28-17.47 11.28z"
      fill="#fff" />
  </g>
</svg>