<?xml version="1.0" encoding="UTF-8"?>
<svg id="Layer_1" data-name="Layer 1" xmlns="http://www.w3.org/2000/svg" xmlns:xlink="http://www.w3.org/1999/xlink"
  viewBox="1043 117 877 962">
  <defs>
    <style>
      .cls-1 {
        fill: none;
      }

      .cls-2 {
        clip-path: url(#clippath);
      }

      .cls-3 {
        fill: #fff;
      }

      .cls-4 {
        fill: #e00;
      }

      .cls-4,
      .cls-5,
      .cls-6,
      .cls-7,
      .cls-8,
      .cls-9,
      .cls-10,
      .cls-11,
      .cls-12,
      .cls-13,
      .cls-14,
      .cls-15,
      .cls-16,
      .cls-17,
      .cls-18,
      .cls-19,
      .cls-20,
      .cls-21,
      .cls-22,
      .cls-23,
      .cls-24,
      .cls-25,
      .cls-26,
      .cls-27,
      .cls-28,
      .cls-29,
      .cls-30,
      .cls-31,
      .cls-32 {
        stroke-miterlimit: 10;
        stroke-width: 1.72px;
      }

      .cls-4,
      .cls-7,
      .cls-8,
      .cls-9,
      .cls-10,
      .cls-11,
      .cls-12,
      .cls-13,
      .cls-14,
      .cls-16,
      .cls-18,
      .cls-19,
      .cls-20,
      .cls-22,
      .cls-23,
      .cls-32 {
        stroke: #e00;
      }

      .cls-5 {
        fill: #8b8b8b;
      }

      .cls-5,
      .cls-6,
      .cls-15,
      .cls-17,
      .cls-21,
      .cls-24,
      .cls-25,
      .cls-26,
      .cls-27,
      .cls-28,
      .cls-29,
      .cls-30,
      .cls-31 {
        stroke: #777;
      }

      .cls-6 {
        fill: #818181;
      }

      .cls-7 {
        fill: #9f0000;
      }

      .cls-8 {
        fill: #8f0000;
      }

      .cls-9 {
        fill: #7f0000;
      }

      .cls-10 {
        fill: #ce0000;
      }

      .cls-11 {
        fill: #de0000;
      }

      .cls-12 {
        fill: #af0000;
      }

      .cls-13 {
        fill: #be0000;
      }

      .cls-14 {
        fill: #100000;
      }

      .cls-15 {
        fill: #636363;
      }

      .cls-16 {
        fill: #300000;
      }

      .cls-17 {
        fill: #595959;
      }

      .cls-18 {
        fill: #5f0000;
      }

      .cls-19 {
        fill: #4f0000;
      }

      .cls-20 {
        fill: #3f0000;
      }

      .cls-21 {
        fill: #1e1e1e;
      }

      .cls-22 {
        fill: #200000;
      }

      .cls-23 {
        fill: #6f0000;
      }

      .cls-24 {
        fill: #323232;
      }

      .cls-25 {
        fill: #3c3c3c;
      }

      .cls-26 {
        fill: #959595;
      }

      .cls-27 {
        fill: #6d6d6d;
      }

      .cls-28 {
        fill: #464646;
      }

      .cls-29 {
        fill: #4f4f4f;
      }

      .cls-30 {
        fill: #282828;
      }

      .cls-31 {
        fill: #777;
      }
    </style>
    <clipPath id="clippath">
      <rect class="cls-1" y="0" width="1920" height="1080" />
    </clipPath>
  </defs>
  <g class="cls-2">
    <g>
      <g>
        <path class="cls-32"
          d="M1864.53,1090.45l194.09,145.85-129.94-288.09-64.15,142.24Zm-149.84,284.22c-4.6,0-9.25-.94-13.71-2.98-16.85-7.57-24.32-27.37-16.74-44.19l213.96-474.31c10.81-24.03,50.15-24.03,60.96,0l213.96,474.31c6.27,13.89,2.32,30.3-9.59,39.86-11.99,9.51-28.81,9.72-40.98,.63l-286.21-215.06-91.15,202.05c-5.59,12.38-17.76,19.69-30.51,19.69Z" />
        <path class="cls-14"
          d="M1823.81,1044.79l194.09,145.85-129.94-288.09-64.15,142.24Zm-149.84,284.22c-4.6,0-9.24-.95-13.71-2.98-16.83-7.62-24.32-27.37-16.74-44.19l213.96-474.31c10.81-24.03,50.15-24.03,60.96,0l213.96,474.31c6.27,13.89,2.35,30.33-9.59,39.86-11.96,9.54-28.81,9.72-40.98,.63l-286.21-215.06-91.15,202.05c-5.59,12.38-17.76,19.69-30.51,19.69Z" />
        <path class="cls-22"
          d="M1783.08,999.13l194.09,145.85-129.94-288.09-64.15,142.24Zm-149.84,284.22c-4.6,0-9.24-.95-13.71-2.98-16.83-7.62-24.32-27.37-16.74-44.19l213.96-474.31c10.81-24.03,50.15-24.03,60.96,0l213.96,474.31c6.27,13.89,2.35,30.33-9.59,39.86-11.96,9.54-28.81,9.72-40.98,.63l-286.21-215.06-91.15,202.05c-5.59,12.38-17.76,19.69-30.51,19.69Z" />
        <path class="cls-16"
          d="M1742.36,953.47l194.09,145.85-129.94-288.09-64.15,142.24Zm-149.84,284.22c-4.6,0-9.24-.95-13.71-2.98-16.83-7.62-24.32-27.37-16.74-44.19l213.96-474.31c10.81-24.03,50.15-24.03,60.96,0l213.96,474.31c6.27,13.89,2.35,30.33-9.59,39.86-11.96,9.54-28.81,9.72-40.98,.63l-286.21-215.06-91.15,202.05c-5.59,12.38-17.76,19.69-30.51,19.69Z" />
        <path class="cls-20"
          d="M1701.63,907.8l194.09,145.85-129.94-288.09-64.15,142.24Zm-149.84,284.22c-4.6,0-9.24-.95-13.71-2.98-16.83-7.62-24.32-27.37-16.74-44.19l213.96-474.31c10.81-24.03,50.15-24.03,60.96,0l213.96,474.31c6.27,13.89,2.35,30.33-9.59,39.86-11.96,9.54-28.81,9.72-40.98,.63l-286.21-215.06-91.15,202.05c-5.59,12.38-17.76,19.69-30.51,19.69Z" />
        <path class="cls-19"
          d="M1660.9,862.14l194.09,145.85-129.94-288.09-64.15,142.24Zm-149.84,284.22c-4.6,0-9.24-.95-13.71-2.98-16.83-7.62-24.32-27.37-16.74-44.19l213.96-474.31c10.81-24.03,50.15-24.03,60.96,0l213.96,474.31c6.27,13.89,2.35,30.33-9.59,39.86-11.96,9.54-28.81,9.72-40.98,.63l-286.21-215.06-91.15,202.05c-5.59,12.38-17.76,19.69-30.51,19.69Z" />
        <path class="cls-18"
          d="M1620.18,816.48l194.09,145.85-129.94-288.09-64.15,142.24Zm-149.84,284.22c-4.6,0-9.24-.95-13.71-2.98-16.83-7.62-24.32-27.37-16.74-44.19l213.96-474.31c10.81-24.03,50.15-24.03,60.96,0l213.96,474.31c6.27,13.89,2.35,30.33-9.59,39.86-11.96,9.54-28.81,9.72-40.98,.63l-286.21-215.06-91.15,202.05c-5.59,12.38-17.76,19.69-30.51,19.69Z" />
        <path class="cls-23"
          d="M1579.45,770.81l194.09,145.85-129.94-288.09-64.15,142.24Zm-149.84,284.22c-4.6,0-9.24-.95-13.71-2.98-16.83-7.62-24.32-27.37-16.74-44.19l213.96-474.31c10.81-24.03,50.15-24.03,60.96,0l213.96,474.31c6.27,13.89,2.35,30.33-9.59,39.86s-28.81,9.72-40.98,.63l-286.21-215.06-91.15,202.05c-5.59,12.38-17.76,19.69-30.51,19.69Z" />
        <path class="cls-9"
          d="M1538.72,725.15l194.09,145.85-129.94-288.09-64.15,142.24Zm-149.84,284.22c-4.6,0-9.24-.95-13.71-2.98-16.83-7.62-24.32-27.37-16.74-44.19l213.96-474.31c10.81-24.03,50.15-24.03,60.96,0l213.96,474.31c6.27,13.89,2.35,30.33-9.59,39.86-11.96,9.54-28.81,9.72-40.98,.63l-286.21-215.06-91.15,202.05c-5.59,12.38-17.76,19.69-30.51,19.69Z" />
        <path class="cls-8"
          d="M1498,679.49l194.09,145.85-129.94-288.09-64.15,142.24Zm-149.84,284.22c-4.6,0-9.24-.95-13.71-2.98-16.83-7.62-24.32-27.37-16.74-44.19l213.96-474.31c10.81-24.03,50.15-24.03,60.96,0l213.96,474.31c6.27,13.89,2.35,30.33-9.59,39.86-11.96,9.54-28.81,9.72-40.98,.63l-286.21-215.06-91.15,202.05c-5.59,12.38-17.76,19.69-30.51,19.69Z" />
        <path class="cls-7"
          d="M1457.27,633.83l194.09,145.85-129.94-288.09-64.15,142.24Zm-149.84,284.22c-4.6,0-9.24-.95-13.71-2.98-16.83-7.62-24.32-27.37-16.74-44.19l213.96-474.31c10.81-24.03,50.15-24.03,60.96,0l213.96,474.31c6.27,13.89,2.35,30.33-9.59,39.86s-28.81,9.72-40.98,.63l-286.21-215.06-91.15,202.05c-5.59,12.38-17.76,19.69-30.51,19.69Z" />
        <path class="cls-12"
          d="M1416.54,588.16l194.09,145.85-129.94-288.09-64.15,142.24Zm-149.84,284.22c-4.6,0-9.24-.95-13.71-2.98-16.83-7.62-24.32-27.37-16.74-44.19l213.96-474.31c10.81-24.03,50.15-24.03,60.96,0l213.96,474.31c6.27,13.89,2.35,30.33-9.59,39.86s-28.81,9.72-40.98,.63l-286.21-215.06-91.15,202.05c-5.59,12.38-17.76,19.69-30.51,19.69Z" />
        <path class="cls-13"
          d="M1375.82,542.5l194.09,145.85-129.94-288.09-64.15,142.24Zm-149.84,284.22c-4.6,0-9.24-.95-13.71-2.98-16.83-7.62-24.32-27.37-16.74-44.19l213.96-474.31c10.81-24.03,50.15-24.03,60.96,0l213.96,474.31c6.27,13.89,2.35,30.33-9.59,39.86-11.96,9.54-28.81,9.72-40.98,.63l-286.21-215.06-91.15,202.05c-5.59,12.38-17.76,19.69-30.51,19.69Z" />
        <path class="cls-10"
          d="M1335.09,496.84l194.09,145.85-129.94-288.09-64.15,142.24Zm-149.84,284.22c-4.6,0-9.24-.95-13.71-2.98-16.83-7.62-24.32-27.37-16.74-44.19l213.96-474.31c10.81-24.03,50.15-24.03,60.96,0l213.96,474.31c6.27,13.89,2.35,30.33-9.59,39.86-11.96,9.54-28.81,9.72-40.98,.63l-286.21-215.06-91.15,202.05c-5.59,12.38-17.76,19.69-30.51,19.69Z" />
        <path class="cls-11"
          d="M1294.36,451.17l194.09,145.85-129.94-288.09-64.15,142.24Zm-149.84,284.22c-4.6,0-9.24-.95-13.71-2.98-16.83-7.62-24.32-27.37-16.74-44.19l213.96-474.31c10.81-24.03,50.15-24.03,60.96,0l213.96,474.31c6.27,13.89,2.35,30.33-9.59,39.86s-28.81,9.72-40.98,.63l-286.21-215.06-91.15,202.05c-5.59,12.38-17.76,19.69-30.51,19.69Z" />
        <path class="cls-4"
          d="M1253.64,405.51l194.09,145.85-129.94-288.09-64.15,142.24Zm-149.84,284.22c-4.6,0-9.25-.94-13.71-2.98-16.85-7.57-24.32-27.37-16.74-44.19l213.96-474.31c10.81-24.03,50.15-24.03,60.96,0l213.96,474.31c6.27,13.89,2.32,30.3-9.59,39.86-11.99,9.51-28.81,9.72-40.98,.63l-286.21-215.06-91.15,202.05c-5.59,12.38-17.76,19.69-30.51,19.69Z" />
      </g>
      <path class="cls-3"
        d="M1227.62,372.84l194.09,145.85-129.94-288.09-64.15,142.24Zm-149.84,284.22c-4.6,0-9.25-.94-13.71-2.98-16.85-7.57-24.32-27.37-16.74-44.19l213.96-474.31c10.81-24.03,50.15-24.03,60.96,0l213.96,474.31c6.27,13.89,2.32,30.3-9.59,39.86-11.99,9.51-28.81,9.72-40.98,.63l-286.21-215.06-91.15,202.05c-5.59,12.38-17.76,19.69-30.51,19.69Z" />
    </g>
    <g>
      <g>
        <path class="cls-21"
          d="M1583.32,1210.17l111.13,83.51-74.4-164.95-36.73,81.44Zm-85.8,162.74c-2.63,0-5.29-.55-7.85-1.7-9.63-4.36-13.92-15.67-9.59-25.3l122.51-271.58c6.19-13.76,28.71-13.76,34.9,0l122.51,271.58c3.59,7.96,1.35,17.37-5.49,22.82-6.85,5.46-16.5,5.56-23.46,.36l-163.88-123.14-52.19,115.69c-3.2,7.09-10.17,11.28-17.47,11.28Z" />
        <path class="cls-30"
          d="M1560,1184.03l111.13,83.51-74.4-164.95-36.73,81.44Zm-85.8,162.74c-2.63,0-5.29-.55-7.85-1.7-9.63-4.36-13.92-15.67-9.59-25.3l122.51-271.58c6.19-13.76,28.71-13.76,34.9,0l122.51,271.58c3.59,7.96,1.35,17.37-5.49,22.82-6.85,5.46-16.5,5.56-23.46,.36l-163.88-123.14-52.19,115.69c-3.2,7.09-10.17,11.28-17.47,11.28Z" />
        <path class="cls-24"
          d="M1536.68,1157.88l111.13,83.51-74.4-164.95-36.73,81.44Zm-85.8,162.74c-2.63,0-5.29-.55-7.85-1.7-9.63-4.36-13.92-15.67-9.59-25.3l122.51-271.58c6.19-13.76,28.71-13.76,34.9,0l122.51,271.58c3.59,7.96,1.35,17.37-5.49,22.82-6.85,5.46-16.5,5.56-23.46,.36l-163.88-123.14-52.19,115.69c-3.2,7.09-10.17,11.28-17.47,11.28Z" />
        <path class="cls-25"
          d="M1513.36,1131.74l111.13,83.51-74.4-164.95-36.73,81.44Zm-85.8,162.74c-2.63,0-5.29-.55-7.85-1.7-9.63-4.36-13.92-15.67-9.59-25.3l122.51-271.58c6.19-13.76,28.71-13.76,34.9,0l122.51,271.58c3.59,7.96,1.35,17.37-5.49,22.82s-16.5,5.56-23.46,.36l-163.88-123.14-52.19,115.69c-3.2,7.09-10.17,11.28-17.47,11.28Z" />
        <path class="cls-28"
          d="M1490.04,1105.59l111.13,83.51-74.4-164.95-36.73,81.44Zm-85.8,162.74c-2.63,0-5.29-.55-7.85-1.7-9.63-4.36-13.92-15.67-9.59-25.3l122.51-271.58c6.19-13.76,28.71-13.76,34.9,0l122.51,271.58c3.59,7.96,1.35,17.37-5.49,22.82-6.85,5.46-16.5,5.56-23.46,.36l-163.88-123.14-52.19,115.69c-3.2,7.09-10.17,11.28-17.47,11.28Z" />
        <path class="cls-29"
          d="M1466.72,1079.44l111.13,83.51-74.4-164.95-36.73,81.44Zm-85.8,162.74c-2.63,0-5.29-.55-7.85-1.7-9.63-4.36-13.92-15.67-9.59-25.3l122.51-271.58c6.19-13.76,28.71-13.76,34.9,0l122.51,271.58c3.59,7.96,1.35,17.37-5.49,22.82s-16.5,5.56-23.46,.36l-163.88-123.14-52.19,115.69c-3.2,7.09-10.17,11.28-17.47,11.28Z" />
        <path class="cls-17"
          d="M1443.41,1053.3l111.13,83.51-74.4-164.95-36.73,81.44Zm-85.8,162.74c-2.63,0-5.29-.55-7.85-1.7-9.63-4.36-13.92-15.67-9.59-25.3l122.51-271.58c6.19-13.76,28.71-13.76,34.9,0l122.51,271.58c3.59,7.96,1.35,17.37-5.49,22.82s-16.5,5.56-23.46,.36l-163.88-123.14-52.19,115.69c-3.2,7.09-10.17,11.28-17.47,11.28Z" />
        <path class="cls-15"
          d="M1420.09,1027.15l111.13,83.51-74.4-164.95-36.73,81.44Zm-85.8,162.74c-2.63,0-5.29-.55-7.85-1.7-9.63-4.36-13.92-15.67-9.59-25.3l122.51-271.58c6.19-13.76,28.71-13.76,34.9,0l122.51,271.58c3.59,7.96,1.35,17.37-5.49,22.82-6.85,5.46-16.5,5.56-23.46,.36l-163.88-123.14-52.19,115.69c-3.2,7.09-10.17,11.28-17.47,11.28Z" />
        <path class="cls-27"
          d="M1396.77,1001.01l111.13,83.51-74.4-164.95-36.73,81.44Zm-85.8,162.74c-2.63,0-5.29-.55-7.85-1.7-9.63-4.36-13.92-15.67-9.59-25.3l122.51-271.58c6.19-13.76,28.71-13.76,34.9,0l122.51,271.58c3.59,7.96,1.35,17.37-5.49,22.82s-16.5,5.56-23.46,.36l-163.88-123.14-52.19,115.69c-3.2,7.09-10.17,11.28-17.47,11.28Z" />
        <path class="cls-31"
          d="M1373.45,974.86l111.13,83.51-74.4-164.95-36.73,81.44Zm-85.8,162.74c-2.63,0-5.29-.55-7.85-1.7-9.63-4.36-13.92-15.67-9.59-25.3l122.51-271.58c6.19-13.76,28.71-13.76,34.9,0l122.51,271.58c3.59,7.96,1.35,17.37-5.49,22.82-6.85,5.46-16.5,5.56-23.46,.36l-163.88-123.14-52.19,115.69c-3.2,7.09-10.17,11.28-17.47,11.28Z" />
        <path class="cls-6"
          d="M1350.13,948.71l111.13,83.51-74.4-164.95-36.73,81.44Zm-85.8,162.74c-2.63,0-5.29-.55-7.85-1.7-9.63-4.36-13.92-15.67-9.59-25.3l122.51-271.58c6.19-13.76,28.71-13.76,34.9,0l122.51,271.58c3.59,7.96,1.35,17.37-5.49,22.82s-16.5,5.56-23.46,.36l-163.88-123.14-52.19,115.69c-3.2,7.09-10.17,11.28-17.47,11.28Z" />
        <path class="cls-5"
          d="M1326.81,922.57l111.13,83.51-74.4-164.95-36.73,81.44Zm-85.8,162.74c-2.63,0-5.29-.55-7.85-1.7-9.63-4.36-13.92-15.67-9.59-25.3l122.51-271.58c6.19-13.76,28.71-13.76,34.9,0l122.51,271.58c3.59,7.96,1.35,17.37-5.49,22.82s-16.5,5.56-23.46,.36l-163.88-123.14-52.19,115.69c-3.2,7.09-10.17,11.28-17.47,11.28Z" />
        <path class="cls-26"
          d="M1303.49,896.42l111.13,83.51-74.4-164.95-36.73,81.44Zm-85.8,162.74c-2.63,0-5.29-.54-7.85-1.7-9.65-4.34-13.92-15.67-9.59-25.3l122.51-271.58c6.19-13.76,28.71-13.76,34.9,0l122.51,271.58c3.59,7.96,1.33,17.35-5.49,22.82-6.86,5.44-16.5,5.56-23.46,.36l-163.88-123.14-52.19,115.69c-3.2,7.09-10.17,11.28-17.47,11.28Z" />
      </g>
      <path class="cls-3"
        d="M1288.59,877.71l111.13,83.51-74.4-164.95-36.73,81.44Zm-85.8,162.74c-2.63,0-5.29-.54-7.85-1.7-9.65-4.34-13.92-15.67-9.59-25.3l122.51-271.58c6.19-13.76,28.71-13.76,34.9,0l122.51,271.58c3.59,7.96,1.33,17.35-5.49,22.82-6.86,5.44-16.5,5.56-23.46,.36l-163.88-123.14-52.19,115.69c-3.2,7.09-10.17,11.28-17.47,11.28Z" />
    </g>
    <g>
      <g>
        <path class="cls-21"
          d="M2015.32,864.84l111.13,83.51-74.4-164.95-36.73,81.44Zm-85.8,162.74c-2.63,0-5.29-.55-7.85-1.7-9.63-4.36-13.92-15.67-9.59-25.3l122.51-271.58c6.19-13.76,28.71-13.76,34.9,0l122.51,271.58c3.59,7.96,1.35,17.37-5.49,22.82-6.85,5.46-16.5,5.56-23.46,.36l-163.88-123.14-52.19,115.69c-3.2,7.09-10.17,11.28-17.47,11.28Z" />
        <path class="cls-30"
          d="M1992,838.69l111.13,83.51-74.4-164.95-36.73,81.44Zm-85.8,162.74c-2.63,0-5.29-.55-7.85-1.7-9.63-4.36-13.92-15.67-9.59-25.3l122.51-271.58c6.19-13.76,28.71-13.76,34.9,0l122.51,271.58c3.59,7.96,1.35,17.37-5.49,22.82-6.85,5.46-16.5,5.56-23.46,.36l-163.88-123.14-52.19,115.69c-3.2,7.09-10.17,11.28-17.47,11.28Z" />
        <path class="cls-24"
          d="M1968.68,812.55l111.13,83.51-74.4-164.95-36.73,81.44Zm-85.8,162.74c-2.63,0-5.29-.55-7.85-1.7-9.63-4.36-13.92-15.67-9.59-25.3l122.51-271.58c6.19-13.76,28.71-13.76,34.9,0l122.51,271.58c3.59,7.96,1.35,17.37-5.49,22.82s-16.5,5.56-23.46,.36l-163.88-123.14-52.19,115.69c-3.2,7.09-10.17,11.28-17.47,11.28Z" />
        <path class="cls-25"
          d="M1945.36,786.4l111.13,83.51-74.4-164.95-36.73,81.44Zm-85.8,162.74c-2.63,0-5.29-.55-7.85-1.7-9.63-4.36-13.92-15.67-9.59-25.3l122.51-271.58c6.19-13.76,28.71-13.76,34.9,0l122.51,271.58c3.59,7.96,1.35,17.37-5.49,22.82s-16.5,5.56-23.46,.36l-163.88-123.14-52.19,115.69c-3.2,7.09-10.17,11.28-17.47,11.28Z" />
        <path class="cls-28"
          d="M1922.04,760.26l111.13,83.51-74.4-164.95-36.73,81.44Zm-85.8,162.74c-2.63,0-5.29-.55-7.85-1.7-9.63-4.36-13.92-15.67-9.59-25.3l122.51-271.58c6.19-13.76,28.71-13.76,34.9,0l122.51,271.58c3.59,7.96,1.35,17.37-5.49,22.82s-16.5,5.56-23.46,.36l-163.88-123.14-52.19,115.69c-3.2,7.09-10.17,11.28-17.47,11.28Z" />
        <path class="cls-29"
          d="M1898.72,734.11l111.13,83.51-74.4-164.95-36.73,81.44Zm-85.8,162.74c-2.63,0-5.29-.55-7.85-1.7-9.63-4.36-13.92-15.67-9.59-25.3l122.51-271.58c6.19-13.76,28.71-13.76,34.9,0l122.51,271.58c3.59,7.96,1.35,17.37-5.49,22.82s-16.5,5.56-23.46,.36l-163.88-123.14-52.19,115.69c-3.2,7.09-10.17,11.28-17.47,11.28Z" />
        <path class="cls-17"
          d="M1875.4,707.97l111.13,83.51-74.4-164.95-36.73,81.44Zm-85.8,162.74c-2.63,0-5.29-.55-7.85-1.7-9.63-4.36-13.92-15.67-9.59-25.3l122.51-271.58c6.19-13.76,28.71-13.76,34.9,0l122.51,271.58c3.59,7.96,1.35,17.37-5.49,22.82-6.85,5.46-16.5,5.56-23.46,.36l-163.88-123.14-52.19,115.69c-3.2,7.09-10.17,11.28-17.47,11.28Z" />
        <path class="cls-15"
          d="M1852.09,681.82l111.13,83.51-74.4-164.95-36.73,81.44Zm-85.8,162.74c-2.63,0-5.29-.55-7.85-1.7-9.63-4.36-13.92-15.67-9.59-25.3l122.51-271.58c6.19-13.76,28.71-13.76,34.9,0l122.51,271.58c3.59,7.96,1.35,17.37-5.49,22.82s-16.5,5.56-23.46,.36l-163.88-123.14-52.19,115.69c-3.2,7.09-10.17,11.28-17.47,11.28Z" />
        <path class="cls-27"
          d="M1828.77,655.67l111.13,83.51-74.4-164.95-36.73,81.44Zm-85.8,162.74c-2.63,0-5.29-.55-7.85-1.7-9.63-4.36-13.92-15.67-9.59-25.3l122.51-271.58c6.19-13.76,28.71-13.76,34.9,0l122.51,271.58c3.59,7.96,1.35,17.37-5.49,22.82s-16.5,5.56-23.46,.36l-163.88-123.14-52.19,115.69c-3.2,7.09-10.17,11.28-17.47,11.28Z" />
        <path class="cls-31"
          d="M1805.45,629.53l111.13,83.51-74.4-164.95-36.73,81.44Zm-85.8,162.74c-2.63,0-5.29-.55-7.85-1.7-9.63-4.36-13.92-15.67-9.59-25.3l122.51-271.58c6.19-13.76,28.71-13.76,34.9,0l122.51,271.58c3.59,7.96,1.35,17.37-5.49,22.82s-16.5,5.56-23.46,.36l-163.88-123.14-52.19,115.69c-3.2,7.09-10.17,11.28-17.47,11.28Z" />
        <path class="cls-6"
          d="M1782.13,603.38l111.13,83.51-74.4-164.95-36.73,81.44Zm-85.8,162.74c-2.63,0-5.29-.55-7.85-1.7-9.63-4.36-13.92-15.67-9.59-25.3l122.51-271.58c6.19-13.76,28.71-13.76,34.9,0l122.51,271.58c3.59,7.96,1.35,17.37-5.49,22.82s-16.5,5.56-23.46,.36l-163.88-123.14-52.19,115.69c-3.2,7.09-10.17,11.28-17.47,11.28Z" />
        <path class="cls-5"
          d="M1758.81,577.24l111.13,83.51-74.4-164.95-36.73,81.44Zm-85.8,162.74c-2.63,0-5.29-.55-7.85-1.7-9.63-4.36-13.92-15.67-9.59-25.3l122.51-271.58c6.19-13.76,28.71-13.76,34.9,0l122.51,271.58c3.59,7.96,1.35,17.37-5.49,22.82s-16.5,5.56-23.46,.36l-163.88-123.14-52.19,115.69c-3.2,7.09-10.17,11.28-17.47,11.28Z" />
        <path class="cls-26"
          d="M1735.49,551.09l111.13,83.51-74.4-164.95-36.73,81.44Zm-85.8,162.74c-2.63,0-5.29-.54-7.85-1.7-9.65-4.34-13.92-15.67-9.59-25.3l122.51-271.58c6.19-13.76,28.71-13.76,34.9,0l122.51,271.58c3.59,7.96,1.33,17.35-5.49,22.82-6.86,5.44-16.5,5.56-23.46,.36l-163.88-123.14-52.19,115.69c-3.2,7.09-10.17,11.28-17.47,11.28Z" />
      </g>
      <path class="cls-3"
        d="M1720.59,532.38l111.13,83.51-74.4-164.95-36.73,81.44Zm-85.8,162.74c-2.63,0-5.29-.54-7.85-1.7-9.65-4.34-13.92-15.67-9.59-25.3l122.51-271.58c6.19-13.76,28.71-13.76,34.9,0l122.51,271.58c3.59,7.96,1.33,17.35-5.49,22.82-6.86,5.44-16.5,5.56-23.46,.36l-163.88-123.14-52.19,115.69c-3.2,7.09-10.17,11.28-17.47,11.28Z" />
    </g>
  </g>
</svg>