<svg viewBox="0 0 1100 420" fill="none" stroke-linecap="square" stroke-miterlimit="10" xmlns="http://www.w3.org/2000/svg"><clipPath id="prefix__a"><path d="M0 0h1280v960H0V0z"/></clipPath><g clip-path="url(#prefix__a)"><path fill="none" d="M0 0h1280v960H0z"/><path fill="#000" d="M208 7.995h576v40H208z" fill-rule="evenodd"/><path stroke="#000" stroke-linejoin="round" stroke-linecap="butt" d="M208 7.995h576v40H208z"/><path fill="#fff" d="M230.406 34.915h-2.937l-1.172-3.032h-5.328l-1.11 3.032H217l5.203-13.36h2.844l5.36 13.36zm-4.969-5.282l-1.843-4.953-1.797 4.953h3.64zm15.177 5.282h-2.563v-4.938q0-1.562-.172-2.015-.156-.47-.531-.72-.36-.265-.875-.265-.672 0-1.203.375-.531.36-.735.969-.187.594-.187 2.219v4.375H231.8v-9.672h2.375v1.422q1.266-1.64 3.188-1.64.843 0 1.546.312.704.296 1.063.78.36.47.5 1.079.14.594.14 1.703v6.016zm1.692-2.766l2.563-.39q.172.75.672 1.14.5.39 1.406.39.984 0 1.484-.374.344-.25.344-.672 0-.297-.187-.485-.188-.187-.86-.343-3.093-.688-3.922-1.25-1.14-.782-1.14-2.172 0-1.266.984-2.11 1-.859 3.078-.859 1.985 0 2.953.656.97.641 1.329 1.907l-2.407.437q-.156-.562-.593-.86-.422-.296-1.235-.296-1 0-1.437.281-.297.203-.297.516 0 .265.25.468.344.25 2.39.72 2.047.452 2.86 1.14.797.672.797 1.89 0 1.344-1.11 2.297-1.11.953-3.28.953-1.985 0-3.142-.796-1.14-.813-1.5-2.188zm11.282-8.219v-2.375h2.563v2.375h-2.563zm0 10.985v-9.672h2.563v9.672h-2.563zm5.074 0v-13.36h2.563v4.813q1.172-1.344 2.797-1.344 1.765 0 2.922 1.281 1.156 1.282 1.156 3.672 0 2.485-1.188 3.828-1.172 1.328-2.86 1.328-.827 0-1.64-.406-.797-.422-1.375-1.234v1.422h-2.375zm2.532-5.047q0 1.5.484 2.219.656 1.03 1.766 1.03.843 0 1.437-.718.594-.734.594-2.297 0-1.656-.61-2.39-.593-.735-1.53-.735-.923 0-1.532.719-.61.719-.61 2.172zm8.974 5.047v-13.36h2.562v13.36h-2.562zm10.777-3.078l2.547.421q-.485 1.407-1.547 2.141-1.063.734-2.657.734-2.515 0-3.734-1.656-.953-1.312-.953-3.328 0-2.406 1.25-3.766 1.266-1.359 3.187-1.359 2.157 0 3.407 1.422t1.187 4.375h-6.406q.031 1.14.61 1.781.593.625 1.484.625.593 0 1-.328.422-.328.625-1.062zm.156-2.594q-.031-1.11-.578-1.688-.547-.578-1.328-.578-.844 0-1.39.61-.548.609-.532 1.656h3.828zm21.179 5.672h-2.938l-1.172-3.032h-5.328l-1.11 3.032h-2.858l5.203-13.36h2.843l5.36 13.36zm-4.969-5.282l-1.844-4.953-1.797 4.953h3.641zm12.739 5.282v-1.453q-.532.78-1.391 1.234-.86.438-1.813.438-.968 0-1.75-.422-.765-.438-1.125-1.204-.343-.78-.343-2.14v-6.125h2.562v4.437q0 2.047.14 2.516.141.453.516.719.375.265.954.265.656 0 1.171-.359.516-.36.704-.89.203-.532.203-2.61v-4.078h2.547v9.672h-2.375zm9.474-9.672v2.031h-1.75v3.906q0 1.188.047 1.391.046.188.218.313.188.124.438.124.36 0 1.031-.25l.219 2q-.89.375-2.016.375-.703 0-1.265-.234-.547-.234-.813-.594-.25-.375-.344-1-.093-.453-.093-1.812v-4.219h-1.172v-2.031h1.172V23.32l2.578-1.5v3.422h1.75zm1.181 4.703q0-1.281.625-2.469.625-1.203 1.781-1.828 1.157-.625 2.579-.625 2.187 0 3.593 1.422 1.407 1.422 1.407 3.61 0 2.187-1.422 3.64-1.422 1.438-3.563 1.438-1.328 0-2.547-.594-1.203-.61-1.828-1.766-.625-1.172-.625-2.828zm2.625.125q0 1.453.672 2.219.688.75 1.688.75t1.671-.75q.688-.766.688-2.235 0-1.422-.688-2.187-.671-.766-1.671-.766t-1.688.766q-.672.765-.672 2.203zm9.162-4.828h2.36v1.312q1.265-1.53 3.015-1.53.937 0 1.61.39.687.375 1.124 1.14.64-.765 1.375-1.14.75-.39 1.578-.39 1.063 0 1.797.437.75.421 1.11 1.265.265.625.265 2v6.188h-2.562v-5.532q0-1.437-.266-1.859-.344-.547-1.094-.547-.531 0-1.015.328-.47.328-.672.97-.203.624-.203 2v4.64h-2.563v-5.297q0-1.422-.14-1.828-.141-.407-.422-.61-.282-.203-.782-.203-.593 0-1.062.328-.469.313-.688.922-.203.594-.203 1.985v4.703h-2.562v-9.672zm18.698 2.953l-2.329-.422q.407-1.406 1.36-2.078.953-.672 2.844-.672 1.703 0 2.546.406.844.407 1.172 1.032.344.625.344 2.28l-.016 3q0 1.266.11 1.876.125.61.469 1.297h-2.532q-.11-.25-.25-.75-.062-.235-.093-.313-.657.64-1.407.969-.734.313-1.593.313-1.485 0-2.344-.813-.86-.813-.86-2.047 0-.828.391-1.469.39-.64 1.094-.968.703-.344 2.031-.61 1.797-.328 2.484-.625v-.25q0-.75-.359-1.062-.36-.313-1.375-.313-.687 0-1.078.281-.375.266-.61.938zm3.421 2.078q-.484.156-1.562.39-1.063.22-1.39.438-.5.36-.5.906 0 .532.406.938.406.39 1.015.39.703 0 1.328-.468.469-.344.61-.844.093-.328.093-1.25v-.5zm9.485-5.031v2.031h-1.75v3.906q0 1.188.047 1.391.047.188.22.313.187.124.437.124.359 0 1.03-.25l.22 2q-.891.375-2.016.375-.703 0-1.266-.234-.547-.234-.812-.594-.25-.375-.344-1-.094-.453-.094-1.812v-4.219h-1.172v-2.031h1.172V23.32l2.578-1.5v3.422h1.75zm1.776-1.313v-2.375h2.562v2.375h-2.562zm0 10.985v-9.672h2.562v9.672h-2.562zm4.59-4.969q0-1.281.624-2.469.625-1.203 1.781-1.828 1.157-.625 2.579-.625 2.187 0 3.593 1.422 1.407 1.422 1.407 3.61 0 2.187-1.422 3.64-1.422 1.438-3.563 1.438-1.328 0-2.547-.594-1.203-.61-1.828-1.766-.625-1.172-.625-2.828zm2.624.125q0 1.453.672 2.219.688.75 1.688.75t1.671-.75q.688-.766.688-2.235 0-1.422-.688-2.187-.671-.766-1.671-.766t-1.688.766q-.672.765-.672 2.203zm18.162 4.844h-2.563v-4.938q0-1.562-.172-2.015-.156-.47-.53-.72-.36-.265-.876-.265-.672 0-1.203.375-.531.36-.734.969-.188.594-.188 2.219v4.375h-2.547v-9.672h2.375v1.422q1.266-1.64 3.188-1.64.844 0 1.547.312.703.296 1.062.78.36.47.5 1.079.14.594.14 1.703v6.016zm7.798 0v-13.36h4.328q2.453 0 3.203.203 1.14.297 1.922 1.313.781 1 .781 2.594 0 1.234-.453 2.078-.453.828-1.14 1.312-.688.47-1.391.625-.969.203-2.797.203h-1.766v5.032h-2.687zm2.687-11.094v3.781h1.485q1.593 0 2.125-.203.547-.203.843-.656.313-.453.313-1.031 0-.735-.438-1.204-.421-.484-1.078-.593-.484-.094-1.937-.094h-1.313zm9.74 11.094v-13.36h2.563v13.36h-2.562zm7.09-6.719l-2.328-.422q.406-1.406 1.36-2.078.953-.672 2.843-.672 1.703 0 2.547.406.844.407 1.172 1.032.344.625.344 2.28l-.016 3q0 1.266.11 1.876.125.61.468 1.297h-2.53q-.11-.25-.25-.75-.063-.235-.095-.313-.656.64-1.406.969-.734.313-1.594.313-1.484 0-2.343-.813-.86-.813-.86-2.047 0-.828.39-1.469.391-.64 1.095-.968.703-.344 2.03-.61 1.798-.328 2.485-.625v-.25q0-.75-.36-1.062-.359-.313-1.374-.313-.688 0-1.078.281-.375.266-.61.938zm3.422 2.078q-.484.156-1.562.39-1.063.22-1.39.438-.5.36-.5.906 0 .532.405.938.407.39 1.016.39.703 0 1.328-.468.469-.344.61-.844.093-.328.093-1.25v-.5zm9.485-5.031v2.031h-1.75v3.906q0 1.188.047 1.391.047.188.219.313.187.124.437.124.36 0 1.032-.25l.218 2q-.89.375-2.015.375-.703 0-1.266-.234-.547-.234-.812-.594-.25-.375-.344-1-.094-.453-.094-1.812v-4.219h-1.172v-2.031h1.172V23.32l2.578-1.5v3.422h1.75zm.65 0h1.422v-.735q0-1.218.25-1.812.266-.61.954-.984.703-.375 1.78-.375 1.095 0 2.141.328l-.359 1.781q-.61-.14-1.172-.14-.547 0-.797.265-.234.25-.234.984v.688h1.906v2.015h-1.906v7.657h-2.563v-7.657h-1.421v-2.015zm6.744 4.703q0-1.281.625-2.469.625-1.203 1.782-1.828 1.156-.625 2.578-.625 2.187 0 3.594 1.422 1.406 1.422 1.406 3.61 0 2.187-1.422 3.64-1.422 1.438-3.563 1.438-1.328 0-2.546-.594-1.204-.61-1.829-1.766-.625-1.172-.625-2.828zm2.625.125q0 1.453.672 2.219.688.75 1.688.75t1.672-.75q.687-.766.687-2.235 0-1.422-.687-2.187-.672-.766-1.672-.766-1 0-1.688.766-.672.765-.672 2.203zm11.818 4.844h-2.562v-9.672h2.375v1.375q.61-.985 1.094-1.281.484-.313 1.109-.313.875 0 1.687.484l-.796 2.235q-.641-.422-1.204-.422-.53 0-.906.297-.375.297-.594 1.078-.203.766-.203 3.234v2.985zm4.604-9.672h2.36v1.312q1.265-1.53 3.015-1.53.938 0 1.61.39.687.375 1.125 1.14.64-.765 1.375-1.14.75-.39 1.578-.39 1.062 0 1.797.437.75.421 1.11 1.265.265.625.265 2v6.188h-2.563v-5.532q0-1.437-.265-1.859-.344-.547-1.094-.547-.531 0-1.016.328-.469.328-.672.97-.203.624-.203 2v4.64h-2.562v-5.297q0-1.422-.14-1.828-.142-.407-.423-.61t-.781-.203q-.594 0-1.063.328-.468.313-.687.922-.203.594-.203 1.985v4.703h-2.563v-9.672zm21.975-3.688h2.688v7.235q0 1.718.109 2.234.172.828.812 1.328.657.485 1.782.485 1.156 0 1.734-.47.594-.468.703-1.14.125-.687.125-2.281v-7.39h2.688v7.015q0 2.406-.219 3.406-.219.985-.813 1.672-.578.688-1.562 1.094-.984.406-2.563.406-1.921 0-2.906-.437-.984-.454-1.562-1.157-.578-.703-.75-1.484-.266-1.14-.266-3.39v-7.126zm13.41 13.36v-13.36h2.688v13.36h-2.687z"/><path fill="none" d="M784 27.995c38 0 57 .204 76 .41 19 .204 38 .409 76 .409"/><path stroke="#ea9999" stroke-width="12" stroke-linejoin="round" stroke-linecap="butt" d="M784 27.995c38 0 57 .204 76 .41 19 .204 38 .409 76 .409"/><path fill="none" d="M152 124.803c14 0 21-12.205 28-24.41 7-12.204 14-24.409 28-24.409"/><path stroke="#ffd966" stroke-width="12" stroke-linejoin="round" stroke-linecap="butt" d="M152 124.803c14 0 21-12.205 28-24.41 7-12.204 14-24.409 28-24.409"/><path fill="none" d="M152 76.803c14 0 21-.205 28-.41 7-.204 14-.409 28-.409"/><path stroke="#93c47d" stroke-width="12" stroke-linejoin="round" stroke-linecap="butt" d="M152 76.803c14 0 21-.205 28-.41 7-.204 14-.409 28-.409"/><path fill="#6d9eeb" d="M.015 14.93a6.935 6.935 0 016.934-6.935H145.08a6.935 6.935 0 016.935 6.934v27.738a6.935 6.935 0 01-6.935 6.934H6.95a6.935 6.935 0 01-6.935-6.934z" fill-rule="evenodd"/><path fill="#000" d="M34.627 31.03l1.765.454q-.562 2.171-2 3.328-1.437 1.14-3.53 1.14-2.157 0-3.516-.875-1.344-.89-2.063-2.547-.703-1.671-.703-3.593 0-2.078.797-3.625.797-1.563 2.265-2.36 1.485-.812 3.25-.812 2 0 3.36 1.015 1.375 1.016 1.906 2.875l-1.734.407q-.47-1.453-1.36-2.11-.875-.672-2.203-.672-1.547 0-2.578.735-1.031.734-1.453 1.984-.422 1.235-.422 2.563 0 1.703.5 2.968.5 1.266 1.547 1.907 1.047.625 2.266.625 1.484 0 2.515-.86 1.031-.86 1.39-2.547zm3.129-.156q0-2.687 1.484-3.969 1.25-1.078 3.047-1.078 2 0 3.266 1.313 1.265 1.297 1.265 3.61 0 1.859-.562 2.937-.563 1.062-1.64 1.656-1.063.594-2.329.594-2.031 0-3.281-1.297-1.25-1.313-1.25-3.766zm1.687 0q0 1.86.797 2.797.813.922 2.047.922 1.219 0 2.031-.922.813-.937.813-2.844 0-1.797-.813-2.718-.812-.922-2.03-.922-1.235 0-2.048.922-.797.906-.797 2.765zm9.298 4.844v-9.672h1.469v1.375q1.062-1.594 3.078-1.594.875 0 1.61.313.734.312 1.093.828.375.5.516 1.203.093.453.093 1.594v5.953h-1.64v-5.89q0-1-.203-1.485-.188-.5-.672-.797-.485-.297-1.14-.297-1.048 0-1.813.672-.75.656-.75 2.516v5.28h-1.64zm13.954-1.469l.234 1.453q-.687.14-1.234.14-.89 0-1.39-.28-.485-.282-.688-.735-.203-.468-.203-1.937v-5.578H58.21v-1.266h1.203v-2.39l1.625-.985v3.375h1.656v1.266h-1.656v5.672q0 .687.078.89.094.203.281.328.203.11.578.11.266 0 .719-.063zm1.59 1.469v-9.672h1.468v1.469q.563-1.031 1.031-1.36.485-.328 1.063-.328.828 0 1.687.532l-.562 1.515q-.61-.36-1.203-.36-.547 0-.969.329-.422.328-.61.89-.28.876-.28 1.922v5.063h-1.626zm5.618-4.844q0-2.687 1.485-3.969 1.25-1.078 3.047-1.078 2 0 3.265 1.313 1.266 1.297 1.266 3.61 0 1.859-.563 2.937-.562 1.062-1.64 1.656-1.063.594-2.328.594-2.032 0-3.282-1.297-1.25-1.313-1.25-3.766zm1.688 0q0 1.86.797 2.797.812.922 2.047.922 1.218 0 2.03-.922.813-.937.813-2.844 0-1.797-.812-2.718-.813-.922-2.031-.922-1.235 0-2.047.922-.797.906-.797 2.765zm9.25 4.844v-13.36h1.641v13.36h-1.64zm4.145 0v-13.36h1.641v13.36h-1.64zm10.817-3.11l1.688.204q-.407 1.484-1.485 2.312-1.078.813-2.765.813-2.125 0-3.375-1.297-1.235-1.313-1.235-3.672 0-2.453 1.25-3.797 1.266-1.344 3.266-1.344 1.937 0 3.156 1.328 1.235 1.313 1.235 3.704v.437h-7.22q.095 1.594.907 2.453.813.844 2.016.844.906 0 1.547-.469.64-.484 1.015-1.515zm-5.39-2.656h5.406q-.11-1.218-.625-1.828-.781-.953-2.031-.953-1.125 0-1.907.766-.765.75-.843 2.015zm9.125 5.766v-9.672h1.469v1.469q.562-1.031 1.031-1.36.485-.328 1.063-.328.828 0 1.687.532l-.562 1.515q-.61-.36-1.203-.36-.547 0-.97.329-.421.328-.609.89-.28.876-.28 1.922v5.063h-1.626zm20.38-13.36h1.766v7.72q0 2.015-.453 3.202-.453 1.188-1.64 1.938-1.188.734-3.126.734-1.875 0-3.078-.64-1.187-.657-1.703-1.875-.5-1.235-.5-3.36V22.36h1.766v7.718q0 1.735.312 2.563.328.812 1.11 1.265.797.454 1.937.454 1.953 0 2.781-.891.829-.89.829-3.39v-7.72zm5.005 13.36v-13.36h1.765v13.36h-1.765z"/><path fill="#93c47d" d="M0 62.935A6.935 6.935 0 016.935 56h138.13A6.935 6.935 0 01152 62.935v27.737a6.935 6.935 0 01-6.935 6.934H6.935A6.935 6.935 0 010 90.672z" fill-rule="evenodd"/><path fill="#000" d="M48.468 83.723v-13.36h1.766v5.485h6.937v-5.484h1.766v13.36H57.17v-6.298h-6.937v6.297h-1.766zm19.535 0v-1.422q-1.125 1.64-3.062 1.64-.86 0-1.61-.327-.734-.328-1.093-.828-.36-.5-.5-1.22-.11-.468-.11-1.53V74.05h1.641v5.36q0 1.28.11 1.734.156.64.656 1.016.5.375 1.234.375t1.375-.375q.656-.391.922-1.032.266-.656.266-1.89V74.05h1.64v9.672h-1.469zm5.548 0h-1.516v-13.36h1.641v4.766q1.047-1.296 2.656-1.296.89 0 1.688.359.797.36 1.312 1.016.516.64.797 1.562.297.922.297 1.969 0 2.484-1.234 3.844-1.22 1.359-2.953 1.359-1.704 0-2.688-1.438v1.22zm-.016-4.906q0 1.734.485 2.516.765 1.265 2.094 1.265 1.078 0 1.859-.937.781-.938.781-2.782 0-1.89-.75-2.796-.75-.907-1.828-.907-1.062 0-1.86.938-.78.937-.78 2.703zm23.044-8.453h1.765v7.719q0 2.015-.453 3.203-.453 1.187-1.64 1.937-1.188.735-3.125.735-1.875 0-3.078-.641-1.188-.656-1.704-1.875-.5-1.234-.5-3.36v-7.718h1.766v7.719q0 1.734.313 2.562.328.813 1.109 1.266.797.453 1.937.453 1.954 0 2.782-.89.828-.891.828-3.391v-7.72zm5.004 13.36v-13.36h1.766v13.36h-1.766z"/><path fill="#ffd966" d="M0 110.935A6.935 6.935 0 016.935 104h138.13a6.935 6.935 0 016.935 6.935v27.737a6.935 6.935 0 01-6.935 6.934H6.935A6.935 6.935 0 010 138.672z" fill-rule="evenodd"/><path fill="#000" d="M46.884 131.723v-13.36h9.656v1.579h-7.875v4.094h7.375v1.562h-7.375v4.547h8.188v1.578h-9.97zm12.412 0v-13.36h4.61q1.546 0 2.375.204 1.14.25 1.953.953 1.062.89 1.578 2.281.531 1.39.531 3.172 0 1.516-.36 2.703-.359 1.172-.921 1.938-.547.765-1.203 1.219-.657.437-1.594.671-.938.22-2.14.22h-4.829zm1.766-1.578h2.86q1.312 0 2.062-.234.75-.25 1.203-.703.625-.625.969-1.688.359-1.062.359-2.578 0-2.094-.688-3.219-.687-1.125-1.671-1.5-.704-.281-2.282-.281h-2.812v10.203zm10.238 1.578l5.125-13.36h1.907l5.468 13.36h-2.015l-1.547-4.047h-5.594l-1.469 4.047H71.3zm3.86-5.484h4.531l-1.406-3.703q-.625-1.688-.938-2.766-.265 1.281-.718 2.547l-1.47 3.922zm22.972-7.875h1.765v7.719q0 2.015-.453 3.203-.453 1.187-1.64 1.937-1.188.735-3.125.735-1.875 0-3.079-.641-1.187-.656-1.703-1.875-.5-1.234-.5-3.36v-7.718h1.766v7.719q0 1.734.312 2.562.329.813 1.11 1.266.797.453 1.937.453 1.953 0 2.782-.89.828-.891.828-3.391v-7.72zm5.004 13.36v-13.36h1.766v13.36h-1.766z"/><path fill="#fff" d="M360 47.995h424v360H360z" fill-rule="evenodd"/><path fill="none" d="M152.015 28.798c13.996 0 20.993 11.803 27.993 23.606S194.01 76.01 208.015 76.01"/><path stroke="#6d9eeb" stroke-width="12" stroke-linejoin="round" stroke-linecap="butt" d="M152.015 28.798c13.996 0 20.993 11.803 27.993 23.606S194.01 76.01 208.015 76.01"/><path fill="#d9d9d9" d="M384 79.995h136v16H384zM384 63.995h80v8h-80zM472 63.995h80v8h-80zM384 119.995h16v16h-16zM408 119.995h64v16h-64zM480 119.995h48v16h-48zM752 119.995h16v16h-16zM712 119.995h32v16h-32zM688 119.995h16v16h-16zM384 183.995h16v16h-16zM408 151.995h96v16h-96zM408 183.995h96v16h-96zM512 151.995h104v16H512zM512 183.995h104v16H512zM624 151.995h120v16H624zM624 183.995h120v16H624zM752 151.995h16v16h-16zM752 183.995h16v16h-16zM384 207.995h16v16h-16zM408 207.995h96v16h-96zM512 207.995h104v16H512zM624 207.995h120v16H624zM752 207.995h16v16h-16zM384 231.995h16v16h-16zM408 231.995h96v16h-96zM512 231.995h104v16H512zM624 231.995h120v16H624zM752 231.995h16v16h-16zM384 255.995h16v16h-16zM408 255.995h96v16h-96zM512 255.995h104v16H512zM624 255.995h120v16H624zM752 255.995h16v16h-16zM384 279.995h16v16h-16zM408 279.995h96v16h-96zM512 279.995h104v16H512zM624 279.995h120v16H624zM752 279.995h16v16h-16zM384 303.995h16v16h-16zM408 303.995h96v16h-96zM512 303.995h104v16H512zM624 303.995h120v16H624zM752 303.995h16v16h-16zM384 327.995h16v16h-16zM408 327.995h96v16h-96zM512 327.995h104v16H512zM624 327.995h120v16H624zM752 327.995h16v16h-16zM384 351.995h16v16h-16zM408 351.995h96v16h-96zM512 351.995h104v16H512zM624 351.995h120v16H624zM752 351.995h16v16h-16z" fill-rule="evenodd"/><path fill="none" d="M360 143.995h424"/><path stroke="#ccc" stroke-linejoin="round" stroke-linecap="butt" d="M360 143.995h424"/><path fill="none" d="M360 111.995h424"/><path stroke="#ccc" stroke-linejoin="round" stroke-linecap="butt" d="M360 111.995h424"/><path fill="#b4a7d6" d="M808 214.93a6.935 6.935 0 016.935-6.935h72.115a6.935 6.935 0 016.934 6.934v27.738a6.935 6.935 0 01-6.934 6.934h-72.115a6.935 6.935 0 01-6.935-6.934z" fill-rule="evenodd"/><path fill="#000" d="M828.586 235.718v-13.36h5.046q1.329 0 2.032.126.968.171 1.64.64.672.453 1.078 1.281.407.829.407 1.829 0 1.703-1.094 2.89-1.078 1.172-3.922 1.172h-3.422v5.422h-1.765zm1.765-7h3.453q1.719 0 2.438-.64.719-.641.719-1.798 0-.843-.422-1.437-.422-.594-1.125-.781-.438-.125-1.641-.125h-3.422v4.78zm10.46 7v-9.672h1.468v1.469q.563-1.031 1.031-1.36.485-.328 1.063-.328.828 0 1.687.532l-.562 1.515q-.61-.36-1.203-.36-.547 0-.969.329-.422.328-.61.89-.28.876-.28 1.922v5.063h-1.626zm5.618-4.844q0-2.687 1.485-3.969 1.25-1.078 3.047-1.078 2 0 3.265 1.313 1.266 1.297 1.266 3.61 0 1.859-.563 2.937-.562 1.062-1.64 1.656-1.063.594-2.328.594-2.032 0-3.282-1.297-1.25-1.313-1.25-3.766zm1.688 0q0 1.86.797 2.797.812.922 2.047.922 1.218 0 2.03-.922.813-.937.813-2.844 0-1.797-.812-2.718-.813-.922-2.031-.922-1.235 0-2.047.922-.797.906-.797 2.765zm8.204 4.844l3.53-5.031-3.265-4.641h2.047l1.484 2.266q.422.64.672 1.078.407-.594.735-1.063l1.64-2.281h1.953l-3.343 4.547 3.593 5.125h-2.015l-1.985-3-.515-.813-2.547 3.813h-1.984zm10.343 3.719l-.187-1.532q.547.141.937.141.547 0 .875-.187.328-.172.547-.5.156-.25.5-1.22.047-.14.14-.405l-3.671-9.688h1.766l2.015 5.594q.39 1.078.703 2.25.282-1.125.672-2.203l2.078-5.641h1.641l-3.688 9.828q-.593 1.61-.921 2.203-.438.813-1 1.188-.563.375-1.344.375-.485 0-1.063-.203z"/><path fill="#6d9eeb" d="M936 166.93a6.935 6.935 0 016.935-6.935h138.13a6.934 6.934 0 016.935 6.934v27.738a6.935 6.935 0 01-6.935 6.934h-138.13a6.935 6.935 0 01-6.935-6.934z" fill-rule="evenodd"/><path fill="#000" d="M965.42 183.03l1.765.454q-.562 2.171-2 3.328-1.437 1.14-3.53 1.14-2.157 0-3.516-.875-1.344-.89-2.063-2.547-.703-1.671-.703-3.593 0-2.078.797-3.625.797-1.563 2.265-2.36 1.485-.812 3.25-.812 2 0 3.36 1.015 1.375 1.016 1.906 2.875l-1.734.407q-.47-1.453-1.36-2.11-.875-.672-2.203-.672-1.547 0-2.578.735-1.031.734-1.453 1.984-.422 1.235-.422 2.563 0 1.703.5 2.968.5 1.266 1.547 1.907 1.047.625 2.266.625 1.484 0 2.515-.86 1.031-.86 1.39-2.547zm3.129-.156q0-2.687 1.484-3.969 1.25-1.078 3.047-1.078 2 0 3.266 1.313 1.266 1.297 1.266 3.61 0 1.859-.563 2.937-.562 1.062-1.64 1.656-1.063.594-2.329.594-2.031 0-3.281-1.297-1.25-1.313-1.25-3.766zm1.688 0q0 1.86.796 2.797.813.922 2.047.922 1.219 0 2.032-.922.812-.937.812-2.844 0-1.797-.812-2.718-.813-.922-2.032-.922-1.234 0-2.047.922-.796.906-.796 2.765zm9.297 4.844v-9.672h1.469v1.375q1.062-1.594 3.078-1.594.875 0 1.61.313.734.312 1.093.828.375.5.516 1.203.093.453.093 1.594v5.953h-1.64v-5.89q0-1-.203-1.485-.188-.5-.672-.797-.485-.297-1.14-.297-1.048 0-1.813.672-.75.656-.75 2.516v5.28h-1.64zm13.954-1.469l.234 1.453q-.687.14-1.234.14-.89 0-1.39-.28-.485-.282-.688-.735-.203-.468-.203-1.937v-5.578h-1.203v-1.266h1.203v-2.39l1.625-.985v3.375h1.656v1.266h-1.656v5.672q0 .687.078.89.094.203.281.328.203.11.578.11.266 0 .719-.063zm1.59 1.469v-9.672h1.468v1.469q.563-1.031 1.031-1.36.485-.328 1.063-.328.828 0 1.687.532l-.562 1.515q-.61-.36-1.203-.36-.547 0-.969.329-.422.328-.61.89-.28.876-.28 1.922v5.063h-1.626zm5.618-4.844q0-2.687 1.485-3.969 1.25-1.078 3.047-1.078 2 0 3.265 1.313 1.266 1.297 1.266 3.61 0 1.859-.563 2.937-.562 1.062-1.64 1.656-1.063.594-2.328.594-2.032 0-3.282-1.297-1.25-1.313-1.25-3.766zm1.688 0q0 1.86.797 2.797.812.922 2.047.922 1.218 0 2.03-.922.813-.937.813-2.844 0-1.797-.812-2.718-.813-.922-2.031-.922-1.235 0-2.047.922-.797.906-.797 2.765zm9.25 4.844v-13.36h1.641v13.36h-1.64zm4.145 0v-13.36h1.641v13.36h-1.64zm10.817-3.11l1.688.204q-.407 1.484-1.485 2.312-1.078.813-2.765.813-2.125 0-3.375-1.297-1.235-1.313-1.235-3.672 0-2.453 1.25-3.797 1.266-1.344 3.266-1.344 1.937 0 3.156 1.328 1.235 1.313 1.235 3.704v.437h-7.22q.095 1.594.907 2.453.813.844 2.016.844.906 0 1.547-.469.64-.484 1.015-1.515zm-5.39-2.656h5.406q-.11-1.218-.625-1.828-.781-.953-2.031-.953-1.125 0-1.907.766-.765.75-.843 2.015zm9.125 5.766v-9.672h1.469v1.469q.562-1.031 1.031-1.36.485-.328 1.063-.328.828 0 1.687.532l-.562 1.515q-.61-.36-1.203-.36-.547 0-.97.329-.421.328-.609.89-.28.876-.28 1.922v5.063h-1.626zm9.116 0l5.125-13.36h1.907l5.468 13.36h-2.015l-1.547-4.047h-5.594l-1.469 4.047h-1.875zm3.86-5.484h4.53l-1.405-3.704q-.625-1.687-.938-2.765-.265 1.281-.719 2.547l-1.468 3.922zm10.053 5.484v-13.36h5.046q1.329 0 2.032.126.968.171 1.64.64.672.453 1.078 1.281.407.829.407 1.829 0 1.703-1.094 2.89-1.078 1.172-3.922 1.172h-3.422v5.422h-1.765zm1.765-7h3.453q1.72 0 2.438-.64.719-.641.719-1.798 0-.843-.422-1.437-.422-.594-1.125-.781-.438-.125-1.64-.125h-3.423v4.78zm10.975 7v-13.36h1.766v13.36h-1.766z"/><path fill="#93c47d" d="M936 214.93a6.935 6.935 0 016.935-6.935h138.13a6.934 6.934 0 016.935 6.934v27.738a6.935 6.935 0 01-6.935 6.934h-138.13a6.935 6.935 0 01-6.935-6.934z" fill-rule="evenodd"/><path fill="#000" d="M979.276 235.718v-13.36h1.766v5.485h6.937v-5.484h1.766v13.359h-1.766v-6.297h-6.937v6.297h-1.766zm19.535 0v-1.422q-1.125 1.64-3.062 1.64-.86 0-1.61-.327-.734-.329-1.093-.829-.36-.5-.5-1.218-.11-.47-.11-1.532v-5.984h1.641v5.36q0 1.28.11 1.734.156.64.656 1.015.5.375 1.234.375t1.375-.375q.656-.39.922-1.03.265-.657.265-1.891v-5.188h1.641v9.672h-1.469zm5.548 0h-1.516v-13.36h1.64v4.766q1.048-1.297 2.657-1.297.89 0 1.688.36.797.359 1.312 1.015.516.64.797 1.563.297.922.297 1.969 0 2.484-1.234 3.843-1.22 1.36-2.954 1.36-1.703 0-2.687-1.438v1.219zm-.016-4.906q0 1.734.485 2.515.765 1.266 2.093 1.266 1.079 0 1.86-.938.781-.937.781-2.78 0-1.891-.75-2.798-.75-.906-1.828-.906-1.063 0-1.86.938-.78.937-.78 2.703zm11.78 4.906l5.124-13.36h1.907l5.468 13.36h-2.015l-1.547-4.047h-5.594l-1.469 4.047h-1.875zm3.859-5.484h4.531l-1.406-3.704q-.625-1.687-.938-2.765-.265 1.281-.718 2.547l-1.47 3.922zm10.053 5.484v-13.36h5.047q1.328 0 2.03.126.97.171 1.641.64.672.453 1.079 1.281.406.829.406 1.829 0 1.703-1.094 2.89-1.078 1.172-3.922 1.172h-3.422v5.422h-1.765zm1.765-7h3.453q1.72 0 2.438-.64.719-.641.719-1.798 0-.843-.422-1.437-.422-.594-1.125-.781-.438-.125-1.64-.125h-3.423v4.78zm10.975 7v-13.36h1.766v13.36h-1.766z"/><path fill="#ffd966" d="M936 262.93a6.935 6.935 0 016.935-6.935h138.13a6.934 6.934 0 016.935 6.934v27.738a6.935 6.935 0 01-6.935 6.934h-138.13a6.934 6.934 0 01-6.935-6.934z" fill-rule="evenodd"/><path fill="#000" d="M977.692 283.718v-13.36h9.656v1.579h-7.875v4.093h7.375v1.563h-7.375v4.547h8.188v1.578h-9.97zm12.412 0v-13.36h4.61q1.546 0 2.375.204 1.14.25 1.953.953 1.062.89 1.578 2.281.531 1.39.531 3.172 0 1.516-.36 2.703-.359 1.172-.921 1.938-.547.765-1.203 1.218-.657.438-1.594.672-.938.219-2.14.219h-4.829zm1.766-1.578h2.86q1.312 0 2.062-.235.75-.25 1.203-.703.625-.625.969-1.687.359-1.063.359-2.578 0-2.094-.688-3.22-.687-1.124-1.671-1.5-.704-.28-2.282-.28h-2.812v10.203zm10.238 1.578l5.125-13.36h1.907l5.468 13.36h-2.015l-1.547-4.047h-5.594l-1.469 4.047h-1.875zm3.86-5.484h4.53l-1.405-3.704q-.625-1.687-.938-2.765-.265 1.281-.719 2.547l-1.468 3.922zm11.707 5.484l5.125-13.36h1.907l5.468 13.36h-2.015l-1.547-4.047h-5.594l-1.469 4.047h-1.875zm3.86-5.484h4.53l-1.405-3.704q-.625-1.687-.938-2.765-.265 1.281-.719 2.547l-1.468 3.922zm10.053 5.484v-13.36h5.047q1.328 0 2.03.126.97.171 1.641.64.672.453 1.079 1.281.406.829.406 1.829 0 1.703-1.094 2.89-1.078 1.172-3.922 1.172h-3.422v5.422h-1.765zm1.765-7h3.453q1.72 0 2.438-.64.719-.641.719-1.798 0-.843-.422-1.437-.422-.594-1.125-.781-.438-.125-1.64-.125h-3.423v4.78zm10.975 7v-13.36h1.766v13.36h-1.766z"/><path fill="none" d="M784 227.995c6 0 9 .204 12 .41 3 .204 6 .409 12 .409"/><path stroke="#b4a7d6" stroke-width="12" stroke-linejoin="round" stroke-linecap="butt" d="M784 227.995c6 0 9 .204 12 .41 3 .204 6 .409 12 .409"/><path fill="none" d="M893.984 228.798c10.504 0 15.756 12 21.008 24 5.252 12 10.504 24 21.008 24"/><path stroke="#ffd966" stroke-width="12" stroke-linejoin="round" stroke-linecap="butt" d="M893.984 228.798c10.504 0 15.756 12 21.008 24 5.252 12 10.504 24 21.008 24"/><path fill="none" d="M893.984 228.798c10.504 0 15.756.016 21.008.031a6009.1 6009.1 0 0021.008.032"/><path stroke="#93c47d" stroke-width="12" stroke-linejoin="round" stroke-linecap="butt" d="M893.984 228.798c10.504 0 15.756.016 21.008.031a6009.1 6009.1 0 0021.008.032"/><path fill="none" d="M893.984 228.798c10.504 0 15.756-12 21.008-24 5.252-12 10.504-24 21.008-24"/><path stroke="#6d9eeb" stroke-width="12" stroke-linejoin="round" stroke-linecap="butt" d="M893.984 228.798c10.504 0 15.756-12 21.008-24 5.252-12 10.504-24 21.008-24"/><path fill="#ea9999" d="M752 27.995c0-6.628 5.373-12 12-12a12 12 0 0112 12c0 6.627-5.373 12-12 12s-12-5.373-12-12z" fill-rule="evenodd"/><path stroke="#000" stroke-linejoin="round" stroke-linecap="butt" d="M752 27.995h0c0-6.628 5.373-12 12-12h0a12 12 0 0112 12h0c0 6.627-5.373 12-12 12h0c-6.627 0-12-5.373-12-12z"/><path fill="#ea9999" d="M936 14.93a6.935 6.935 0 016.935-6.935h138.13a6.934 6.934 0 016.935 6.934v27.738a6.935 6.935 0 01-6.935 6.934h-138.13A6.935 6.935 0 01936 42.667z" fill-rule="evenodd"/><path fill="#000" d="M952.848 35.718l5.125-13.36h1.906l5.47 13.36h-2.016l-1.547-4.047h-5.594l-1.469 4.047h-1.875zm3.86-5.484h4.53l-1.405-3.704q-.625-1.687-.938-2.765-.266 1.281-.719 2.547l-1.468 3.922zm16.177 5.484v-1.422q-1.125 1.64-3.062 1.64-.86 0-1.61-.327-.734-.329-1.093-.829-.36-.5-.5-1.218-.11-.47-.11-1.532v-5.984h1.641v5.36q0 1.28.11 1.734.156.64.656 1.015.5.375 1.234.375t1.375-.375q.656-.39.922-1.03.266-.657.266-1.891v-5.188h1.64v9.672h-1.469zm7.626-1.469l.235 1.453q-.688.14-1.235.14-.89 0-1.39-.28-.485-.282-.688-.735-.203-.468-.203-1.937v-5.578h-1.203v-1.266h1.203v-2.39l1.625-.985v3.375h1.656v1.266h-1.656v5.672q0 .687.078.89.094.203.281.328.203.11.578.11.266 0 .72-.063zm1.605 1.469v-13.36h1.641v4.797q1.14-1.328 2.89-1.328 1.079 0 1.86.422.797.422 1.14 1.172.344.75.344 2.172v6.125h-1.64v-6.125q0-1.234-.532-1.797-.53-.562-1.515-.562-.719 0-1.36.39-.64.375-.921 1.016-.266.64-.266 1.781v5.297h-1.64zm17.001-3.11l1.688.204q-.407 1.484-1.485 2.312-1.078.813-2.765.813-2.125 0-3.375-1.297-1.235-1.313-1.235-3.672 0-2.453 1.25-3.797 1.266-1.344 3.266-1.344 1.937 0 3.156 1.328 1.234 1.313 1.234 3.704v.437h-7.218q.093 1.594.906 2.453.812.844 2.016.844.906 0 1.546-.469.641-.484 1.016-1.515zm-5.39-2.656h5.406q-.11-1.218-.625-1.828-.782-.953-2.032-.953-1.125 0-1.906.766-.765.75-.844 2.015zm9.14 5.766v-9.672h1.47v1.375q1.062-1.594 3.078-1.594.875 0 1.609.313.734.312 1.094.828.375.5.515 1.203.094.453.094 1.594v5.953h-1.64v-5.89q0-1-.204-1.485-.187-.5-.671-.797-.485-.297-1.141-.297-1.047 0-1.813.672-.75.656-.75 2.516v5.28h-1.64zm13.955-1.469l.234 1.453q-.688.14-1.234.14-.891 0-1.391-.28-.484-.282-.688-.735-.203-.468-.203-1.937v-5.578h-1.203v-1.266h1.203v-2.39l1.625-.985v3.375h1.657v1.266h-1.657v5.672q0 .687.078.89.094.203.282.328.203.11.578.11.265 0 .719-.063zm1.605-10v-1.89h1.64v1.89h-1.64zm0 11.469v-9.672h1.64v9.672h-1.64zm10.457-3.547l1.61.219q-.266 1.656-1.36 2.61-1.078.937-2.672.937-1.984 0-3.187-1.297-1.203-1.297-1.203-3.719 0-1.578.515-2.75.516-1.172 1.578-1.75 1.063-.594 2.313-.594 1.578 0 2.578.797 1 .797 1.281 2.266l-1.593.234q-.235-.969-.813-1.453-.578-.5-1.39-.5-1.235 0-2.016.89-.782.891-.782 2.813 0 1.953.75 2.844.75.875 1.954.875.968 0 1.609-.594.656-.594.828-1.828zm9.328 2.36q-.922.765-1.765 1.093-.828.313-1.797.313-1.594 0-2.453-.782-.86-.78-.86-1.984 0-.719.328-1.297.329-.594.844-.937.531-.36 1.188-.547.468-.125 1.453-.25 1.984-.235 2.922-.563.015-.343.015-.422 0-1-.468-1.421-.625-.547-1.875-.547-1.157 0-1.704.406-.546.406-.812 1.422l-1.61-.219q.22-1.016.72-1.64.5-.641 1.452-.985.954-.344 2.188-.344 1.25 0 2.016.297.78.281 1.14.735.375.437.516 1.109.078.422.078 1.516v2.187q0 2.281.11 2.89.109.594.406 1.157h-1.704q-.265-.516-.328-1.188zm-.14-3.672q-.891.375-2.672.625-1.016.14-1.438.328-.422.187-.656.53-.219.345-.219.782 0 .656.5 1.094.5.437 1.453.437.938 0 1.672-.406.75-.422 1.094-1.14.266-.563.266-1.641v-.61zm7.782 3.39l.234 1.453q-.687.14-1.234.14-.891 0-1.391-.28-.484-.282-.687-.735-.204-.468-.204-1.937v-5.578h-1.203v-1.266h1.203v-2.39l1.625-.985v3.375h1.657v1.266h-1.657v5.672q0 .687.079.89.093.203.28.328.204.11.579.11.266 0 .719-.063zm1.605-10v-1.89h1.64v1.89h-1.64zm0 11.469v-9.672h1.64v9.672h-1.64zm3.535-4.844q0-2.687 1.485-3.969 1.25-1.078 3.047-1.078 2 0 3.265 1.313 1.266 1.297 1.266 3.61 0 1.859-.563 2.937-.562 1.062-1.64 1.656-1.063.594-2.328.594-2.032 0-3.282-1.297-1.25-1.313-1.25-3.766zm1.688 0q0 1.86.797 2.797.812.922 2.047.922 1.218 0 2.03-.922.813-.937.813-2.844 0-1.797-.812-2.718-.813-.922-2.031-.922-1.235 0-2.047.922-.797.906-.797 2.765zm9.297 4.844v-9.672h1.469v1.375q1.062-1.594 3.078-1.594.875 0 1.61.313.734.312 1.093.828.375.5.516 1.203.094.453.094 1.594v5.953h-1.641v-5.89q0-1-.203-1.485-.188-.5-.672-.797-.484-.297-1.14-.297-1.048 0-1.813.672-.75.656-.75 2.516v5.28h-1.64z"/><path fill="none" d="M360 175.995h424"/><path stroke="#ccc" stroke-linejoin="round" stroke-linecap="butt" d="M360 175.995h424"/><path fill="#d9d9d9" d="M752 383.995h16v16h-16zM712 383.995h32v16h-32zM688 383.995h16v16h-16z" fill-rule="evenodd"/><path fill="none" d="M360 375.995h424"/><path stroke="#ccc" stroke-linejoin="round" stroke-linecap="butt" d="M360 375.995h424"/><path fill="#d9d9d9" d="M624 383.995h56v16h-56z" fill-rule="evenodd"/><path fill="#666" d="M208 104h152v304H208z" fill-rule="evenodd"/><path stroke="#6d9eeb" stroke-width="8" stroke-linejoin="round" stroke-linecap="butt" d="M208 104h152v304H208z"/><path fill="#434343" d="M208 47.995h152v56H208z" fill-rule="evenodd"/><path stroke="#6d9eeb" stroke-width="8" stroke-linejoin="round" stroke-linecap="butt" d="M208 47.995h152v56H208z"/><path fill="#fff" d="M227.188 77.791l1.64.406q-.516 2.031-1.86 3.094-1.343 1.063-3.28 1.063-2 0-3.266-.813-1.25-.828-1.906-2.375-.657-1.547-.657-3.328 0-1.938.735-3.375.75-1.453 2.11-2.188 1.374-.75 3.015-.75 1.86 0 3.125.953 1.281.938 1.765 2.657L227 73.51q-.438-1.344-1.266-1.953-.812-.625-2.047-.625-1.437 0-2.406.687-.953.672-1.344 1.828-.375 1.156-.375 2.39 0 1.579.454 2.766.468 1.172 1.437 1.766.969.578 2.11.578 1.375 0 2.328-.797.953-.797 1.297-2.359zm2.904-.156q0-2.485 1.39-3.688 1.157-1 2.813-1 1.86 0 3.031 1.219 1.188 1.203 1.188 3.344 0 1.734-.531 2.734-.516 1-1.516 1.547-.984.547-2.172.547-1.875 0-3.047-1.203-1.156-1.219-1.156-3.5zm1.562 0q0 1.734.75 2.593.75.86 1.891.86 1.14 0 1.89-.86.75-.874.75-2.64 0-1.656-.75-2.516-.75-.86-1.89-.86t-1.89.86q-.75.844-.75 2.563zm8.638 4.5V73.15h1.375v1.282q.984-1.485 2.859-1.485.812 0 1.484.297.688.281 1.016.766.344.468.484 1.125.078.422.078 1.468v5.532h-1.515v-5.469q0-.922-.188-1.375-.172-.469-.625-.75t-1.062-.281q-.969 0-1.672.625-.703.61-.703 2.343v4.907h-1.531zm12.965-1.36l.218 1.344q-.64.14-1.156.14-.828 0-1.281-.265-.453-.266-.64-.687-.188-.438-.188-1.797v-5.172h-1.125V73.15h1.125v-2.218l1.515-.922v3.14h1.532v1.188h-1.532v5.25q0 .656.079.844.078.187.25.296.187.11.53.11.25 0 .673-.063zm7.642-1.53l1.563.187q-.36 1.39-1.375 2.156-1 .75-2.563.75-1.984 0-3.14-1.203-1.141-1.219-1.141-3.422 0-2.266 1.156-3.516 1.172-1.25 3.031-1.25 1.813 0 2.954 1.235 1.14 1.218 1.14 3.437 0 .14-.015.406h-6.704q.094 1.485.844 2.282.75.78 1.875.78.844 0 1.438-.437.593-.437.937-1.406zm-5-2.47h5.016q-.11-1.125-.578-1.703-.735-.875-1.891-.875-1.047 0-1.766.703-.703.703-.78 1.875zm7.465 5.36l3.282-4.672-3.032-4.313h1.907l1.375 2.11q.39.593.625 1 .375-.563.687-.985l1.516-2.125h1.812l-3.11 4.235 3.345 4.75h-1.86l-1.843-2.797-.5-.75-2.36 3.547h-1.844zm13.008-1.36l.219 1.344q-.64.14-1.156.14-.828 0-1.282-.265-.453-.266-.64-.687-.188-.438-.188-1.797v-5.172H272.2V73.15h1.125v-2.218l1.516-.922v3.14h1.531v1.188h-1.531v5.25q0 .656.078.844.078.187.25.296.188.11.531.11.25 0 .672-.063zm5.941-2.625l1.547-.14q.11.937.5 1.531.406.594 1.25.969.86.36 1.906.36.938 0 1.657-.267.734-.28 1.078-.765.344-.5.344-1.078 0-.578-.344-1.016-.328-.437-1.11-.734-.5-.188-2.203-.594-1.703-.422-2.39-.781-.89-.469-1.328-1.157-.438-.687-.438-1.546 0-.938.531-1.75.532-.813 1.547-1.235 1.031-.422 2.297-.422 1.375 0 2.422.438 1.062.437 1.625 1.312.562.86.61 1.953l-1.579.11q-.125-1.172-.86-1.766-.734-.61-2.155-.61-1.485 0-2.172.548-.688.547-.688 1.312 0 .672.485 1.11.484.421 2.484.875 2 .453 2.734.796 1.094.5 1.61 1.266.515.766.515 1.766 0 .984-.578 1.86-.562.874-1.625 1.374-1.062.484-2.39.484-1.688 0-2.829-.484-1.125-.5-1.78-1.484-.641-.985-.673-2.235zm13.574 3.985l-2.75-8.985h1.578l1.422 5.188.547 1.922q.03-.14.453-1.844l1.437-5.266h1.563l1.343 5.203.454 1.72.515-1.735 1.531-5.188h1.485l-2.813 8.985h-1.578l-1.422-5.375-.36-1.532-1.812 6.907h-1.593zm10.873-10.657v-1.75h1.516v1.75h-1.516zm0 10.657V73.15h1.516v8.985h-1.516zm7.162-1.36l.219 1.344q-.64.14-1.156.14-.828 0-1.282-.265-.453-.266-.64-.687-.188-.438-.188-1.797v-5.172h-1.125V73.15h1.125v-2.218l1.516-.922v3.14h1.531v1.188h-1.531v5.25q0 .656.078.844.078.187.25.296.188.11.531.11.25 0 .672-.063zm7.346-1.937l1.5.203q-.235 1.547-1.25 2.422-1.016.875-2.485.875-1.843 0-2.968-1.203t-1.125-3.453q0-1.47.484-2.547.484-1.094 1.469-1.64.984-.548 2.14-.548 1.47 0 2.391.75.937.735 1.203 2.094l-1.484.219q-.203-.89-.75-1.344-.532-.469-1.297-.469-1.14 0-1.875.828-.719.828-.719 2.61 0 1.812.688 2.64.703.813 1.828.813.89 0 1.484-.547.61-.563.766-1.703zm2.804 3.297V69.728h1.532v4.454q1.062-1.235 2.687-1.235 1 0 1.735.39.734.391 1.046 1.095.329.687.329 2.015v5.688h-1.532v-5.688q0-1.156-.5-1.672-.484-.515-1.39-.515-.688 0-1.282.36-.593.343-.843.952-.25.594-.25 1.64v4.923h-1.532zm15.794-2.89l1.562.187q-.36 1.39-1.375 2.156-1 .75-2.562.75-1.985 0-3.14-1.203-1.142-1.219-1.142-3.422 0-2.266 1.157-3.516 1.172-1.25 3.031-1.25 1.812 0 2.953 1.235 1.14 1.218 1.14 3.437 0 .14-.015.406h-6.703q.094 1.485.844 2.282.75.78 1.875.78.843 0 1.437-.437.594-.437.938-1.406zm-5-2.47h5.015q-.109-1.125-.578-1.703-.734-.875-1.89-.875-1.047 0-1.766.703-.703.703-.781 1.875zm8.465 5.36V73.15h1.375v1.36q.516-.953.953-1.25.453-.313.984-.313.782 0 1.563.485l-.516 1.421q-.562-.328-1.125-.328-.5 0-.89.297t-.563.828q-.265.813-.265 1.782v4.703h-1.516z"/><path fill="#999" d="M224 151.995h120v16H224zM240 175.995h104v16H240zM240 199.995h104v16H240zM240 223.995h104v16H240zM224 255.995h120v16H224zM240 279.995h104v16H240zM240 303.995h104v16H240zM240 327.995h104v16H240zM224 119.995h120v16H224zM240 351.995h104v16H240zM240 375.995h104v16H240z" fill-rule="evenodd"/><path fill="none" d="M368 47.995h416v360H368z"/><path stroke="#b4a7d6" stroke-width="8" stroke-linejoin="round" stroke-linecap="butt" d="M368 47.995h416v360H368z"/><path fill="none" d="M744 27.995c0-11.046 8.954-20 20-20a20 20 0 0120 20c0 11.045-8.954 20-20 20s-20-8.955-20-20z"/><path stroke="#ea9999" stroke-width="8" stroke-linejoin="round" stroke-linecap="butt" d="M744 27.995h0c0-11.046 8.954-20 20-20h0a20 20 0 0120 20h0c0 11.045-8.954 20-20 20h0c-11.046 0-20-8.955-20-20z"/></g></svg>